<?xml version="1.0" encoding="UTF-8"?><svg id="Layer_2" xmlns="http://www.w3.org/2000/svg" xmlns:xlink="http://www.w3.org/1999/xlink" viewBox="0 0 519.44 293.86"><defs><style>.cls-1{stroke-width:8px;}.cls-1,.cls-2,.cls-3,.cls-4,.cls-5,.cls-6{fill:none;}.cls-1,.cls-6{stroke:#ebebeb;}.cls-7{clip-path:url(#clippath);}.cls-2,.cls-8{stroke-width:0px;}.cls-3{stroke:#000;stroke-linecap:square;}.cls-4{stroke:#0288d1;stroke-width:2px;}.cls-9{clip-path:url(#clippath-1);}.cls-10{clip-path:url(#clippath-4);}.cls-11{clip-path:url(#clippath-3);}.cls-12{clip-path:url(#clippath-2);}.cls-13{clip-path:url(#clippath-7);}.cls-14{clip-path:url(#clippath-8);}.cls-15{clip-path:url(#clippath-6);}.cls-16{clip-path:url(#clippath-5);}.cls-17{clip-path:url(#clippath-9);}.cls-5{stroke:#b8b8b8;stroke-width:.5px;}.cls-18{clip-path:url(#clippath-14);}.cls-19{clip-path:url(#clippath-13);}.cls-20{clip-path:url(#clippath-12);}.cls-21{clip-path:url(#clippath-10);}.cls-22{clip-path:url(#clippath-15);}.cls-23{clip-path:url(#clippath-17);}.cls-24{clip-path:url(#clippath-16);}.cls-25{clip-path:url(#clippath-11);}.cls-26{clip-path:url(#clippath-18);}.cls-6{stroke-width:1.92px;}.cls-27{isolation:isolate;}</style><clipPath id="clippath"><rect class="cls-2" x="0" y="7.34" width="19.03" height="246.85"/></clipPath><clipPath id="clippath-1"><rect class="cls-2" x="33.46" y="246.85" width="9.17" height="14.69"/></clipPath><clipPath id="clippath-2"><rect class="cls-2" x="24.21" y="185.14" width="18.43" height="14.69"/></clipPath><clipPath id="clippath-3"><rect class="cls-2" x="33.46" y="123.43" width="9.17" height="14.69"/></clipPath><clipPath id="clippath-4"><rect class="cls-2" x="18.03" y="61.71" width="24.6" height="14.69"/></clipPath><clipPath id="clippath-5"><rect class="cls-2" x="27.29" width="15.34" height="14.69"/></clipPath><clipPath id="clippath-6"><rect class="cls-2" x="55.6" y="271.85" width="451.05" height="19.03"/></clipPath><clipPath id="clippath-7"><rect class="cls-2" x="51.01" y="258.16" width="9.17" height="14.69"/></clipPath><clipPath id="clippath-8"><rect class="cls-2" x="116.24" y="258.16" width="27.69" height="14.69"/></clipPath><clipPath id="clippath-9"><rect class="cls-2" x="190.73" y="258.16" width="27.69" height="14.69"/></clipPath><clipPath id="clippath-10"><rect class="cls-2" x="262.13" y="258.16" width="33.86" height="14.69"/></clipPath><clipPath id="clippath-11"><rect class="cls-2" x="336.61" y="258.16" width="33.86" height="14.69"/></clipPath><clipPath id="clippath-12"><rect class="cls-2" x="411.1" y="258.16" width="33.86" height="14.69"/></clipPath><clipPath id="clippath-13"><rect class="cls-2" x="485.58" y="258.16" width="33.86" height="14.69"/></clipPath><clipPath id="clippath-14"><rect class="cls-2" x="50" y="25.88" width="462" height="231"/></clipPath><clipPath id="clippath-15"><rect class="cls-2" x="50.8" y="2.54" width="460.65" height="256.45"/></clipPath><clipPath id="clippath-16"><rect class="cls-2" x="53.6" y="5.34" width="455.05" height="250.85"/></clipPath><clipPath id="clippath-17"><rect class="cls-2" x="425" y="11.88" width="10" height="8"/></clipPath><clipPath id="clippath-18"><rect class="cls-2" x="425" y="10.88" width="10" height="10"/></clipPath></defs><g id="Layer_1-2"><line class="cls-5" x1="56" y1="192.38" x2="507" y2="192.38"/><line class="cls-5" x1="56" y1="130.38" x2="507" y2="130.38"/><line class="cls-5" x1="56" y1="69.38" x2="507" y2="69.38"/><line class="cls-5" x1="56" y1="7.38" x2="507" y2="7.38"/><path class="cls-3" d="m55.5,7.38h-2m2,62h-2m2,61h-2m2,62h-2m2,62h-2"/><g class="cls-7"><path class="cls-8" d="m10.32,141.35l-7.93,2.79v-1.13l6.87-2.26v-.02l-6.87-2.29v-1.1l7.93,2.82v1.2Z"/><path class="cls-8" d="m10.3,132.17c.1.16.14.39.14.68,0,.24-.07.44-.21.58-.14.14-.36.22-.67.22.31.26.54.56.67.9.14.34.21.72.21,1.12,0,.26-.03.51-.09.74-.06.23-.15.44-.28.6-.13.17-.29.31-.49.41-.2.1-.45.15-.74.15-.33,0-.59-.06-.8-.17-.21-.11-.38-.26-.5-.44-.13-.18-.23-.39-.29-.62-.07-.23-.12-.47-.17-.72-.05-.26-.09-.5-.12-.74-.03-.23-.06-.44-.11-.62s-.12-.32-.21-.42c-.09-.1-.23-.16-.41-.16-.21,0-.37.04-.5.12-.13.08-.22.18-.29.3s-.11.26-.13.41c-.02.15-.03.3-.03.45,0,.4.08.73.23,1,.15.27.44.41.86.43v.94c-.36-.01-.66-.09-.9-.22-.24-.13-.44-.31-.59-.53s-.26-.48-.33-.76c-.07-.28-.1-.59-.1-.92,0-.26.02-.52.06-.77.04-.26.11-.49.23-.69.12-.21.28-.37.48-.5s.48-.19.81-.19h2.95c.22,0,.38-.01.49-.04s.16-.11.16-.26c0-.08-.02-.18-.04-.29h.73Zm-2.94,1.53c.09.12.15.27.19.47.04.19.07.39.1.6s.06.42.09.64c.03.21.09.41.16.58.07.17.18.31.32.42.14.11.32.16.56.16.15,0,.29-.03.39-.09.11-.06.19-.14.26-.24.07-.1.11-.22.14-.35.03-.13.04-.27.04-.42,0-.31-.04-.58-.13-.8-.08-.22-.19-.4-.32-.54-.13-.14-.27-.24-.42-.31-.15-.07-.29-.1-.43-.1h-.96Z"/><path class="cls-8" d="m2.4,130.29h7.93v.94H2.4v-.94Z"/><path class="cls-8" d="m10.32,124.96h-.91v.02c.36.2.62.46.78.77.17.31.25.68.25,1.1,0,.38-.05.69-.15.94-.1.25-.24.46-.43.61-.18.16-.41.26-.66.33-.26.06-.54.09-.85.09h-3.77v-.94h3.88c.36,0,.64-.1.84-.31.21-.21.31-.49.31-.85,0-.29-.04-.54-.13-.75-.09-.21-.21-.39-.38-.53s-.35-.25-.57-.32c-.22-.07-.46-.11-.72-.11h-3.24v-.94h5.74v.89Z"/><path class="cls-8" d="m9.96,118.59c.33.43.49.97.49,1.62,0,.46-.07.86-.22,1.19-.15.34-.36.62-.62.85s-.58.4-.95.52-.77.18-1.21.19c-.44,0-.84-.07-1.2-.2-.36-.13-.68-.32-.94-.56-.27-.24-.47-.52-.62-.85-.15-.33-.22-.69-.22-1.08,0-.51.11-.93.32-1.27.21-.34.48-.61.8-.81.33-.2.68-.34,1.07-.42s.75-.11,1.1-.09v4.3c.25,0,.49-.02.72-.09.23-.07.43-.17.6-.32s.31-.34.42-.57c.1-.23.16-.5.16-.81,0-.4-.09-.73-.28-.98-.19-.26-.47-.42-.84-.51v-.93c.64.13,1.13.4,1.45.83Zm-3.69.23c-.2.08-.37.2-.52.34-.14.14-.26.31-.34.51-.08.2-.13.41-.13.65s.04.46.13.66c.09.2.2.36.35.5.15.14.32.25.52.33.2.08.41.13.63.14v-3.3c-.22.02-.43.06-.63.15Z"/></g><g class="cls-9"><path class="cls-8" d="m35.45,253.41c.01-.31.05-.61.11-.91.06-.3.14-.58.25-.84.11-.27.26-.5.46-.7.19-.2.44-.36.73-.48.29-.12.64-.18,1.05-.18s.76.06,1.05.18c.29.12.53.28.73.48.19.2.34.43.46.7s.2.55.26.84c.06.3.1.6.11.91s.02.61.02.9,0,.59-.02.9-.05.61-.11.91c-.06.3-.14.58-.26.84s-.26.49-.46.69c-.19.2-.43.36-.72.47-.29.11-.64.17-1.05.17s-.76-.06-1.05-.17c-.29-.12-.53-.27-.73-.47-.19-.2-.34-.43-.46-.69-.11-.26-.2-.54-.25-.84-.06-.3-.1-.6-.11-.91s-.02-.61-.02-.9,0-.59.02-.9Zm1,1.88c.02.37.08.71.18,1.03.1.32.26.59.48.82.22.22.53.33.93.33s.71-.11.93-.33c.22-.22.38-.49.48-.82.1-.32.16-.67.18-1.03.02-.37.03-.7.03-.99,0-.19,0-.41,0-.64,0-.23-.02-.47-.06-.7-.03-.23-.08-.46-.14-.68-.06-.22-.16-.42-.28-.58-.12-.17-.28-.3-.46-.41s-.41-.16-.68-.16-.49.05-.68.16-.34.24-.46.41c-.12.17-.21.36-.28.58-.06.22-.11.45-.14.68-.03.23-.05.47-.06.7,0,.23,0,.45,0,.64,0,.3,0,.63.03.99Z"/></g><g class="cls-12"><path class="cls-8" d="m28.23,191.98h.31c.2,0,.39-.03.57-.08.18-.06.34-.14.48-.24s.25-.24.33-.41c.08-.16.12-.35.12-.56,0-.42-.13-.74-.4-.95-.27-.21-.6-.32-1-.32-.25,0-.47.05-.66.14-.19.09-.34.22-.47.37-.12.16-.21.34-.27.54-.06.21-.09.42-.09.65h-.94c.01-.38.08-.72.18-1.03s.26-.58.46-.8c.2-.22.45-.4.75-.52.3-.12.65-.19,1.04-.19.34,0,.66.04.95.13s.55.21.76.38c.21.17.38.39.51.66.12.27.18.58.18.94s-.1.67-.31.94-.47.48-.78.62v.02c.48.1.84.33,1.07.68.23.35.35.76.35,1.23,0,.39-.07.74-.22,1.04-.14.3-.34.55-.58.75-.24.2-.53.35-.86.45-.33.1-.68.15-1.05.15-.4,0-.76-.06-1.09-.17-.33-.11-.6-.28-.83-.49-.23-.22-.41-.49-.53-.8s-.18-.68-.17-1.09h.94c.01.51.16.93.44,1.25.28.32.69.48,1.23.48.23,0,.45-.04.65-.11s.39-.17.54-.3c.16-.13.28-.29.37-.48.09-.19.14-.4.14-.64s-.04-.46-.13-.65-.21-.35-.35-.48c-.15-.13-.32-.23-.53-.29-.2-.06-.42-.09-.66-.09-.2,0-.39.01-.57.03v-.8s.07.01.1.01Z"/><path class="cls-8" d="m34.03,195.23v1.23h-1.23v-1.23h1.23Z"/><path class="cls-8" d="m37.01,189.56l-.42,2.26.02.02c.17-.19.39-.33.66-.43s.54-.14.8-.14c.35,0,.68.06.99.17.31.11.58.28.81.51.23.23.41.51.54.84.13.34.2.73.2,1.18,0,.33-.06.66-.17.97-.12.32-.29.59-.52.84-.23.24-.52.44-.86.58-.34.14-.75.22-1.2.22-.34,0-.66-.05-.96-.15-.3-.1-.56-.24-.79-.43-.23-.19-.41-.42-.54-.7-.13-.28-.2-.6-.21-.96h.94c.01.2.06.39.15.56.08.17.2.33.34.46.14.13.31.23.51.3.2.07.41.11.65.11.22,0,.43-.04.64-.12.2-.08.38-.19.53-.35.15-.16.27-.35.36-.58.09-.23.13-.5.13-.82,0-.26-.04-.5-.13-.72-.09-.22-.21-.41-.36-.57s-.34-.28-.56-.37-.46-.13-.73-.13c-.31,0-.59.07-.83.21-.24.14-.45.32-.64.54l-.81-.04.73-4.08h3.88v.83h-3.17Z"/></g><g class="cls-11"><path class="cls-8" d="m39.49,129.22c-.35.54-.66,1.12-.93,1.73-.27.61-.49,1.25-.66,1.9-.17.65-.27,1.28-.31,1.9h-1.05c.04-.67.15-1.32.33-1.95.17-.63.4-1.24.67-1.82s.59-1.13.95-1.65c.36-.52.75-1,1.16-1.43h-4.13v-.89h5.09v.81c-.4.39-.77.86-1.12,1.4Z"/></g><g class="cls-10"><path class="cls-8" d="m22.54,73.04v-5.64h-2.04v-.75c.27,0,.53-.02.78-.06.25-.04.48-.12.68-.23.2-.11.38-.26.52-.46.14-.19.24-.44.29-.73h.72v7.87h-.94Z"/><path class="cls-8" d="m26.19,68.28c.01-.31.05-.61.11-.91.06-.3.14-.58.25-.84.11-.27.26-.5.46-.7.19-.2.44-.36.73-.48.29-.12.64-.18,1.05-.18s.76.06,1.05.18c.29.12.53.28.73.48.19.2.34.43.46.7s.2.55.26.84c.06.3.1.6.11.91s.02.61.02.9,0,.59-.02.9-.05.61-.11.91c-.06.3-.14.58-.26.84s-.26.49-.46.69c-.19.2-.43.36-.72.47-.29.11-.64.17-1.05.17s-.76-.06-1.05-.17c-.29-.12-.53-.27-.73-.47-.19-.2-.34-.43-.46-.69-.11-.26-.2-.54-.25-.84-.06-.3-.1-.6-.11-.91s-.02-.61-.02-.9,0-.59.02-.9Zm1,1.88c.02.37.08.71.18,1.03.1.32.26.59.48.82.22.22.53.33.93.33s.71-.11.93-.33c.22-.22.38-.49.48-.82.1-.32.16-.67.18-1.03.02-.37.03-.7.03-.99,0-.19,0-.41,0-.64,0-.23-.02-.47-.06-.7-.03-.23-.08-.46-.14-.68-.06-.22-.16-.42-.28-.58-.12-.17-.28-.3-.46-.41s-.41-.16-.68-.16-.49.05-.68.16-.34.24-.46.41c-.12.17-.21.36-.28.58-.06.22-.11.45-.14.68-.03.23-.05.47-.06.7,0,.23,0,.45,0,.64,0,.3,0,.63.03.99Z"/><path class="cls-8" d="m34.03,71.81v1.23h-1.23v-1.23h1.23Z"/><path class="cls-8" d="m37.01,66.13l-.42,2.26.02.02c.17-.19.39-.33.66-.43s.54-.14.8-.14c.35,0,.68.06.99.17.31.11.58.28.81.51.23.23.41.51.54.84.13.34.2.73.2,1.18,0,.33-.06.66-.17.97-.12.32-.29.59-.52.84-.23.24-.52.44-.86.58-.34.14-.75.22-1.2.22-.34,0-.66-.05-.96-.15-.3-.1-.56-.24-.79-.43-.23-.19-.41-.42-.54-.7-.13-.28-.2-.6-.21-.96h.94c.01.2.06.39.15.56.08.17.2.33.34.46.14.13.31.23.51.3.2.07.41.11.65.11.22,0,.43-.04.64-.12.2-.08.38-.19.53-.35.15-.16.27-.35.36-.58.09-.23.13-.5.13-.82,0-.26-.04-.5-.13-.72-.09-.22-.21-.41-.36-.57s-.34-.28-.56-.37-.46-.13-.73-.13c-.31,0-.59.07-.83.21-.24.14-.45.32-.64.54l-.81-.04.73-4.08h3.88v.83h-3.17Z"/></g><g class="cls-16"><path class="cls-8" d="m31.8,11.32v-5.64h-2.04v-.75c.27,0,.53-.02.78-.06.25-.04.48-.12.68-.23.2-.11.38-.26.52-.46.14-.19.24-.44.29-.73h.72v7.87h-.94Z"/><path class="cls-8" d="m40.68,8.65v.83h-1.07v1.84h-.89v-1.84h-3.45v-.91l3.58-5.12h.75v5.2h1.07Zm-1.95-3.85h-.02l-2.62,3.85h2.64v-3.85Z"/></g><line class="cls-3" x1="55.5" y1="254.38" x2="506.5" y2="254.38"/><g class="cls-15"><path class="cls-8" d="m260.07,280.59v7.93h-1.05v-7.93h1.05Z"/><path class="cls-8" d="m264.14,282.78v.83h-1.14v3.56c0,.11,0,.2.03.27.02.07.05.12.11.16s.12.06.22.07c.09.01.21.02.36.02h.43v.83h-.72c-.24,0-.45-.02-.63-.05s-.31-.09-.42-.18c-.11-.09-.19-.21-.24-.38s-.08-.38-.08-.64v-3.65h-.98v-.83h.98v-1.72h.94v1.72h1.14Z"/><path class="cls-8" d="m269.25,288.15c-.43.33-.97.49-1.62.49-.46,0-.86-.07-1.19-.22-.34-.15-.62-.36-.85-.62s-.4-.58-.52-.95-.18-.77-.19-1.21c0-.44.07-.84.2-1.2.13-.36.32-.68.56-.94.24-.27.52-.47.85-.62.33-.15.69-.22,1.08-.22.51,0,.93.11,1.27.32.34.21.61.48.81.8.2.33.34.68.42,1.07s.11.75.09,1.1h-4.3c0,.25.02.49.09.72.07.23.17.43.32.6s.34.31.57.42c.23.1.5.16.81.16.4,0,.73-.09.98-.28.26-.19.42-.47.51-.84h.93c-.13.64-.4,1.13-.83,1.45Zm-.23-3.69c-.08-.2-.2-.37-.34-.52-.14-.14-.31-.26-.51-.34-.2-.08-.41-.13-.65-.13s-.46.04-.66.13c-.2.09-.36.2-.5.35-.14.15-.25.32-.33.52-.08.2-.13.41-.14.63h3.3c-.02-.22-.06-.43-.15-.63Z"/><path class="cls-8" d="m272,282.78v1.21h.02c.23-.47.51-.81.84-1.03.33-.22.75-.33,1.27-.31v1c-.38,0-.7.05-.97.16-.27.1-.48.26-.64.46-.16.2-.28.44-.36.73-.07.29-.11.61-.11.98v2.55h-.94v-5.74h.89Z"/><path class="cls-8" d="m279.93,288.5c-.16.1-.39.14-.68.14-.24,0-.44-.07-.58-.21-.14-.14-.22-.36-.22-.67-.26.31-.56.54-.9.67-.34.14-.72.21-1.12.21-.26,0-.51-.03-.74-.09-.23-.06-.44-.15-.6-.28-.17-.13-.31-.29-.41-.49-.1-.2-.15-.45-.15-.74,0-.33.06-.59.17-.8.11-.21.26-.38.44-.5.18-.13.39-.23.62-.29.23-.07.47-.12.72-.17.26-.05.5-.09.74-.12.23-.03.44-.06.62-.11s.32-.12.42-.21c.1-.09.16-.23.16-.41,0-.21-.04-.37-.12-.5-.08-.13-.18-.22-.3-.29s-.26-.11-.41-.13c-.15-.02-.3-.03-.45-.03-.4,0-.73.08-1,.23-.27.15-.41.44-.43.86h-.94c.01-.36.09-.66.22-.9.13-.24.31-.44.53-.59s.48-.26.76-.33c.28-.07.59-.1.92-.1.26,0,.52.02.77.06.26.04.49.11.69.23.21.12.37.28.5.48s.19.48.19.81v2.95c0,.22.01.38.04.49s.11.16.26.16c.08,0,.18-.02.29-.04v.73Zm-1.53-2.94c-.12.09-.27.15-.47.19-.19.04-.39.07-.6.1s-.42.06-.64.09c-.21.03-.41.09-.58.16-.17.07-.31.18-.42.32-.11.14-.16.32-.16.56,0,.15.03.29.09.39.06.11.14.19.24.26.1.07.22.11.35.14.13.03.27.04.42.04.31,0,.58-.04.8-.13.22-.08.4-.19.54-.32.14-.13.24-.27.31-.42.07-.15.1-.29.1-.43v-.96Z"/><path class="cls-8" d="m283.26,282.78v.83h-1.14v3.56c0,.11,0,.2.03.27.02.07.05.12.11.16s.12.06.22.07c.09.01.21.02.36.02h.43v.83h-.72c-.24,0-.45-.02-.63-.05s-.31-.09-.42-.18c-.11-.09-.19-.21-.24-.38s-.08-.38-.08-.64v-3.65h-.98v-.83h.98v-1.72h.94v1.72h1.14Z"/><path class="cls-8" d="m284.35,281.75v-1.15h.94v1.15h-.94Zm.94,1.03v5.74h-.94v-5.74h.94Z"/><path class="cls-8" d="m286.63,284.47c.12-.37.3-.68.53-.96.24-.27.53-.48.88-.64s.75-.23,1.2-.23.86.08,1.2.23.63.37.87.64c.24.27.41.59.53.96.12.37.18.76.18,1.18s-.06.81-.18,1.18c-.12.36-.3.68-.53.95-.24.27-.53.48-.87.63s-.75.23-1.2.23-.85-.08-1.2-.23-.64-.36-.88-.63c-.24-.27-.41-.59-.53-.95-.12-.36-.18-.75-.18-1.18s.06-.82.18-1.18Zm.96,2.11c.09.27.22.5.38.68.16.18.35.32.57.42.22.1.45.14.69.14s.48-.05.69-.14c.22-.1.41-.23.57-.42.16-.18.29-.41.38-.68.09-.27.14-.58.14-.93s-.05-.66-.14-.93c-.09-.27-.22-.5-.38-.68-.16-.18-.35-.33-.57-.42-.22-.1-.45-.14-.69-.14s-.48.05-.69.14c-.22.1-.41.24-.57.42-.16.19-.29.41-.38.68-.09.27-.14.58-.14.93s.05.66.14.93Z"/><path class="cls-8" d="m294.02,282.78v.91h.02c.39-.7,1.01-1.04,1.86-1.04.38,0,.69.05.94.16.25.1.46.25.61.43.16.18.26.4.33.66.06.25.09.54.09.85v3.77h-.94v-3.88c0-.36-.1-.64-.31-.84-.21-.21-.49-.31-.85-.31-.29,0-.54.04-.75.13s-.39.21-.53.38c-.14.16-.25.35-.32.57-.07.22-.11.46-.11.72v3.24h-.94v-5.74h.89Z"/><path class="cls-8" d="m300.03,287.24c.09.14.21.26.35.34.14.08.31.15.49.18.18.04.37.06.56.06.15,0,.3-.01.47-.03.16-.02.31-.06.45-.12.14-.06.25-.15.34-.26.09-.12.13-.26.13-.44,0-.24-.09-.43-.28-.56-.19-.12-.42-.23-.69-.3-.28-.08-.58-.15-.9-.21-.33-.06-.63-.15-.9-.27-.28-.11-.51-.28-.69-.48s-.28-.5-.28-.87c0-.29.06-.54.19-.74.13-.21.3-.38.5-.5.2-.13.43-.23.69-.29.26-.06.51-.09.76-.09.33,0,.63.03.9.08.27.06.52.15.73.29.21.14.38.32.5.55.13.23.2.52.22.87h-.94c-.01-.19-.06-.34-.14-.46-.08-.12-.19-.22-.31-.29-.13-.07-.26-.13-.42-.16-.15-.03-.31-.05-.46-.05-.14,0-.28.01-.43.03-.14.02-.28.06-.39.12s-.21.13-.29.22c-.07.09-.11.21-.11.36,0,.16.06.3.17.41s.26.2.44.27.38.13.6.18c.22.05.44.1.67.15.24.05.47.11.69.19s.43.17.6.29.31.28.42.46c.11.18.16.41.16.69,0,.35-.07.64-.22.87-.14.23-.33.42-.57.56-.23.14-.5.24-.79.29-.29.06-.58.08-.87.08-.32,0-.62-.03-.91-.1s-.54-.18-.77-.33c-.22-.15-.4-.35-.53-.6-.13-.25-.21-.55-.22-.91h.94c0,.21.06.38.14.53Z"/></g><g class="cls-13"><path class="cls-8" d="m55.52,269.49v-5.64h-2.04v-.75c.27,0,.53-.02.78-.06.25-.04.48-.12.68-.23.2-.11.38-.26.52-.46.14-.19.24-.44.29-.73h.72v7.87h-.94Z"/></g><g class="cls-14"><path class="cls-8" d="m120.26,265h.31c.2,0,.39-.03.57-.08.18-.06.34-.14.48-.24s.25-.24.33-.41c.08-.16.12-.35.12-.56,0-.42-.13-.74-.4-.95-.27-.21-.6-.32-1-.32-.25,0-.47.05-.66.14-.19.09-.34.22-.47.37-.12.16-.21.34-.27.54-.06.21-.09.42-.09.65h-.94c.01-.38.08-.72.18-1.03s.26-.58.46-.8c.2-.22.45-.4.75-.52.3-.12.65-.19,1.04-.19.34,0,.66.04.95.13s.55.21.76.38c.21.17.38.39.51.66.12.27.18.58.18.94s-.1.67-.31.94-.47.48-.78.62v.02c.48.1.84.33,1.07.68.23.35.35.76.35,1.23,0,.39-.07.74-.22,1.04-.14.3-.34.55-.58.75-.24.2-.53.35-.86.45-.33.1-.68.15-1.05.15-.4,0-.76-.06-1.09-.17-.33-.11-.6-.28-.83-.49-.23-.22-.41-.49-.53-.8s-.18-.68-.17-1.09h.94c.01.51.16.93.44,1.25.28.32.69.48,1.23.48.23,0,.45-.04.65-.11s.39-.17.54-.3c.16-.13.28-.29.37-.48.09-.19.14-.4.14-.64s-.04-.46-.13-.65-.21-.35-.35-.48c-.15-.13-.32-.23-.53-.29-.2-.06-.42-.09-.66-.09-.2,0-.39.01-.57.03v-.8s.07.01.1.01Z"/><path class="cls-8" d="m128.1,262.77c-.23-.21-.53-.32-.91-.32-.4,0-.72.1-.97.29-.24.2-.43.44-.57.74-.14.3-.23.62-.28.97s-.08.67-.09.98l.02.02c.22-.36.5-.62.83-.79s.71-.24,1.14-.24c.38,0,.72.06,1.02.19.3.13.55.31.75.54s.36.5.47.81c.11.31.17.65.17,1.01,0,.29-.04.59-.13.9-.09.31-.24.59-.44.85-.2.26-.47.47-.81.63-.34.17-.75.25-1.25.25-.58,0-1.05-.12-1.41-.36-.36-.24-.63-.54-.82-.91s-.32-.78-.38-1.22-.09-.87-.09-1.29c0-.54.05-1.06.14-1.57.09-.51.25-.96.47-1.35.22-.39.52-.71.89-.94.37-.24.84-.36,1.4-.36.65,0,1.17.17,1.55.52.38.34.61.84.67,1.49h-.94c-.04-.36-.18-.64-.41-.86Zm-1.71,2.62c-.2.09-.37.22-.51.38-.14.16-.25.35-.32.57-.07.22-.11.45-.11.69s.04.47.11.69c.07.21.18.4.32.55.14.16.31.28.51.37.2.09.43.14.69.14s.49-.05.68-.14c.2-.09.36-.22.49-.38.13-.16.23-.35.31-.56s.11-.43.11-.66c0-.24-.03-.47-.09-.69-.06-.22-.16-.41-.29-.57s-.3-.29-.5-.38c-.2-.1-.43-.14-.7-.14s-.5.05-.7.14Z"/><path class="cls-8" d="m130.57,264.72c.01-.31.05-.61.11-.91.06-.3.14-.58.25-.84.11-.27.26-.5.46-.7.19-.2.44-.36.73-.48.29-.12.64-.18,1.05-.18s.76.06,1.05.18c.29.12.53.28.73.48.19.2.34.43.46.7s.2.55.26.84c.06.3.1.6.11.91s.02.61.02.9,0,.59-.02.9-.05.61-.11.91c-.06.3-.14.58-.26.84s-.26.49-.46.69c-.19.2-.43.36-.72.47-.29.11-.64.17-1.05.17s-.76-.06-1.05-.17c-.29-.12-.53-.27-.73-.47-.19-.2-.34-.43-.46-.69-.11-.26-.2-.54-.25-.84-.06-.3-.1-.6-.11-.91s-.02-.61-.02-.9,0-.59.02-.9Zm1,1.88c.02.37.08.71.18,1.03.1.32.26.59.48.82.22.22.53.33.93.33s.71-.11.93-.33c.22-.22.38-.49.48-.82.1-.32.16-.67.18-1.03.02-.37.03-.7.03-.99,0-.19,0-.41,0-.64,0-.23-.02-.47-.06-.7-.03-.23-.08-.46-.14-.68-.06-.22-.16-.42-.28-.58-.12-.17-.28-.3-.46-.41s-.41-.16-.68-.16-.49.05-.68.16-.34.24-.46.41c-.12.17-.21.36-.28.58-.06.22-.11.45-.14.68-.03.23-.05.47-.06.7,0,.23,0,.45,0,.64,0,.3,0,.63.03.99Z"/><path class="cls-8" d="m136.75,264.72c.01-.31.05-.61.11-.91.06-.3.14-.58.25-.84.11-.27.26-.5.46-.7.19-.2.44-.36.73-.48.29-.12.64-.18,1.05-.18s.76.06,1.05.18c.29.12.53.28.73.48.19.2.34.43.46.7s.2.55.26.84c.06.3.1.6.11.91s.02.61.02.9,0,.59-.02.9-.05.61-.11.91c-.06.3-.14.58-.26.84s-.26.49-.46.69c-.19.2-.43.36-.72.47-.29.11-.64.17-1.05.17s-.76-.06-1.05-.17c-.29-.12-.53-.27-.73-.47-.19-.2-.34-.43-.46-.69-.11-.26-.2-.54-.25-.84-.06-.3-.1-.6-.11-.91s-.02-.61-.02-.9,0-.59.02-.9Zm1,1.88c.02.37.08.71.18,1.03.1.32.26.59.48.82.22.22.53.33.93.33s.71-.11.93-.33c.22-.22.38-.49.48-.82.1-.32.16-.67.18-1.03.02-.37.03-.7.03-.99,0-.19,0-.41,0-.64,0-.23-.02-.47-.06-.7-.03-.23-.08-.46-.14-.68-.06-.22-.16-.42-.28-.58-.12-.17-.28-.3-.46-.41s-.41-.16-.68-.16-.49.05-.68.16-.34.24-.46.41c-.12.17-.21.36-.28.58-.06.22-.11.45-.14.68-.03.23-.05.47-.06.7,0,.23,0,.45,0,.64,0,.3,0,.63.03.99Z"/></g><g class="cls-17"><path class="cls-8" d="m196.76,263.96c-.35.54-.66,1.12-.93,1.73-.27.61-.49,1.25-.66,1.9-.17.65-.27,1.28-.31,1.9h-1.05c.04-.67.15-1.32.33-1.95.17-.63.4-1.24.67-1.82s.59-1.13.95-1.65c.36-.52.75-1,1.16-1.43h-4.13v-.89h5.09v.81c-.4.39-.77.86-1.12,1.4Z"/><path class="cls-8" d="m201.41,269.49v-5.64h-2.04v-.75c.27,0,.53-.02.78-.06.25-.04.48-.12.68-.23.2-.11.38-.26.52-.46.14-.19.24-.44.29-.73h.72v7.87h-.94Z"/><path class="cls-8" d="m205.18,263.29c.1-.34.26-.63.48-.88s.49-.44.82-.58.7-.21,1.11-.21c.34,0,.66.05.96.15.3.1.56.24.78.43.22.19.4.42.53.71s.19.61.19.98c0,.35-.05.66-.16.92-.11.27-.25.51-.43.72-.18.21-.38.4-.61.57-.23.17-.47.33-.71.49-.24.15-.49.29-.73.44-.24.14-.47.3-.67.46-.2.16-.38.34-.52.53-.14.19-.24.4-.28.65h4.04v.83h-5.14c.04-.47.12-.86.25-1.19s.29-.62.49-.86c.2-.24.43-.46.68-.64s.51-.36.79-.52c.33-.21.63-.4.88-.57.25-.17.46-.35.63-.53.17-.18.29-.37.38-.58.08-.21.13-.45.13-.72,0-.21-.04-.41-.12-.58s-.19-.32-.33-.45c-.14-.13-.3-.22-.48-.29s-.38-.1-.59-.1c-.27,0-.51.06-.71.17-.2.11-.36.26-.48.45-.13.19-.22.39-.27.63-.06.23-.08.47-.07.71h-.94c-.02-.4.02-.77.12-1.11Z"/><path class="cls-8" d="m211.23,264.72c.01-.31.05-.61.11-.91.06-.3.14-.58.25-.84.11-.27.26-.5.46-.7.19-.2.44-.36.73-.48.29-.12.64-.18,1.05-.18s.76.06,1.05.18c.29.12.53.28.73.48.19.2.34.43.46.7s.2.55.26.84c.06.3.1.6.11.91s.02.61.02.9,0,.59-.02.9-.05.61-.11.91c-.06.3-.14.58-.26.84s-.26.49-.46.69c-.19.2-.43.36-.72.47-.29.11-.64.17-1.05.17s-.76-.06-1.05-.17c-.29-.12-.53-.27-.73-.47-.19-.2-.34-.43-.46-.69-.11-.26-.2-.54-.25-.84-.06-.3-.1-.6-.11-.91s-.02-.61-.02-.9,0-.59.02-.9Zm1,1.88c.02.37.08.71.18,1.03.1.32.26.59.48.82.22.22.53.33.93.33s.71-.11.93-.33c.22-.22.38-.49.48-.82.1-.32.16-.67.18-1.03.02-.37.03-.7.03-.99,0-.19,0-.41,0-.64,0-.23-.02-.47-.06-.7-.03-.23-.08-.46-.14-.68-.06-.22-.16-.42-.28-.58-.12-.17-.28-.3-.46-.41s-.41-.16-.68-.16-.49.05-.68.16-.34.24-.46.41c-.12.17-.21.36-.28.58-.06.22-.11.45-.14.68-.03.23-.05.47-.06.7,0,.23,0,.45,0,.64,0,.3,0,.63.03.99Z"/></g><g class="cls-21"><path class="cls-8" d="m266.64,269.49v-5.64h-2.04v-.75c.27,0,.53-.02.78-.06.25-.04.48-.12.68-.23.2-.11.38-.26.52-.46.14-.19.24-.44.29-.73h.72v7.87h-.94Z"/><path class="cls-8" d="m270.29,264.72c.01-.31.05-.61.11-.91.06-.3.14-.58.25-.84.11-.27.26-.5.46-.7.19-.2.44-.36.73-.48.29-.12.64-.18,1.05-.18s.76.06,1.05.18c.29.12.53.28.73.48.19.2.34.43.46.7s.2.55.26.84c.06.3.1.6.11.91s.02.61.02.9,0,.59-.02.9-.05.61-.11.91c-.06.3-.14.58-.26.84s-.26.49-.46.69c-.19.2-.43.36-.72.47-.29.11-.64.17-1.05.17s-.76-.06-1.05-.17c-.29-.12-.53-.27-.73-.47-.19-.2-.34-.43-.46-.69-.11-.26-.2-.54-.25-.84-.06-.3-.1-.6-.11-.91s-.02-.61-.02-.9,0-.59.02-.9Zm1,1.88c.02.37.08.71.18,1.03.1.32.26.59.48.82.22.22.53.33.93.33s.71-.11.93-.33c.22-.22.38-.49.48-.82.1-.32.16-.67.18-1.03.02-.37.03-.7.03-.99,0-.19,0-.41,0-.64,0-.23-.02-.47-.06-.7-.03-.23-.08-.46-.14-.68-.06-.22-.16-.42-.28-.58-.12-.17-.28-.3-.46-.41s-.41-.16-.68-.16-.49.05-.68.16-.34.24-.46.41c-.12.17-.21.36-.28.58-.06.22-.11.45-.14.68-.03.23-.05.47-.06.7,0,.23,0,.45,0,.64,0,.3,0,.63.03.99Z"/><path class="cls-8" d="m280.16,262.77c-.23-.21-.53-.32-.91-.32-.4,0-.72.1-.97.29-.24.2-.43.44-.57.74-.14.3-.23.62-.28.97s-.08.67-.09.98l.02.02c.22-.36.5-.62.83-.79s.71-.24,1.14-.24c.38,0,.72.06,1.02.19.3.13.55.31.75.54s.36.5.47.81c.11.31.17.65.17,1.01,0,.29-.04.59-.13.9-.09.31-.24.59-.44.85-.2.26-.47.47-.81.63-.34.17-.75.25-1.25.25-.58,0-1.05-.12-1.41-.36-.36-.24-.63-.54-.82-.91s-.32-.78-.38-1.22-.09-.87-.09-1.29c0-.54.05-1.06.14-1.57.09-.51.25-.96.47-1.35.22-.39.52-.71.89-.94.37-.24.84-.36,1.4-.36.65,0,1.17.17,1.55.52.38.34.61.84.67,1.49h-.94c-.04-.36-.18-.64-.41-.86Zm-1.71,2.62c-.2.09-.37.22-.51.38-.14.16-.25.35-.32.57-.07.22-.11.45-.11.69s.04.47.11.69c.07.21.18.4.32.55.14.16.31.28.51.37.2.09.43.14.69.14s.49-.05.68-.14c.2-.09.36-.22.49-.38.13-.16.23-.35.31-.56s.11-.43.11-.66c0-.24-.03-.47-.09-.69-.06-.22-.16-.41-.29-.57s-.3-.29-.5-.38c-.2-.1-.43-.14-.7-.14s-.5.05-.7.14Z"/><path class="cls-8" d="m282.75,263.29c.1-.34.26-.63.48-.88s.49-.44.82-.58.7-.21,1.11-.21c.34,0,.66.05.96.15.3.1.56.24.78.43.22.19.4.42.53.71s.19.61.19.98c0,.35-.05.66-.16.92-.11.27-.25.51-.43.72-.18.21-.38.4-.61.57-.23.17-.47.33-.71.49-.24.15-.49.29-.73.44-.24.14-.47.3-.67.46-.2.16-.38.34-.52.53-.14.19-.24.4-.28.65h4.04v.83h-5.14c.04-.47.12-.86.25-1.19s.29-.62.49-.86c.2-.24.43-.46.68-.64s.51-.36.79-.52c.33-.21.63-.4.88-.57.25-.17.46-.35.63-.53.17-.18.29-.37.38-.58.08-.21.13-.45.13-.72,0-.21-.04-.41-.12-.58s-.19-.32-.33-.45c-.14-.13-.3-.22-.48-.29s-.38-.1-.59-.1c-.27,0-.51.06-.71.17-.2.11-.36.26-.48.45-.13.19-.22.39-.27.63-.06.23-.08.47-.07.71h-.94c-.02-.4.02-.77.12-1.11Z"/><path class="cls-8" d="m288.8,264.72c.01-.31.05-.61.11-.91.06-.3.14-.58.25-.84.11-.27.26-.5.46-.7.19-.2.44-.36.73-.48.29-.12.64-.18,1.05-.18s.76.06,1.05.18c.29.12.53.28.73.48.19.2.34.43.46.7s.2.55.26.84c.06.3.1.6.11.91s.02.61.02.9,0,.59-.02.9-.05.61-.11.91c-.06.3-.14.58-.26.84s-.26.49-.46.69c-.19.2-.43.36-.72.47-.29.11-.64.17-1.05.17s-.76-.06-1.05-.17c-.29-.12-.53-.27-.73-.47-.19-.2-.34-.43-.46-.69-.11-.26-.2-.54-.25-.84-.06-.3-.1-.6-.11-.91s-.02-.61-.02-.9,0-.59.02-.9Zm1,1.88c.02.37.08.71.18,1.03.1.32.26.59.48.82.22.22.53.33.93.33s.71-.11.93-.33c.22-.22.38-.49.48-.82.1-.32.16-.67.18-1.03.02-.37.03-.7.03-.99,0-.19,0-.41,0-.64,0-.23-.02-.47-.06-.7-.03-.23-.08-.46-.14-.68-.06-.22-.16-.42-.28-.58-.12-.17-.28-.3-.46-.41s-.41-.16-.68-.16-.49.05-.68.16-.34.24-.46.41c-.12.17-.21.36-.28.58-.06.22-.11.45-.14.68-.03.23-.05.47-.06.7,0,.23,0,.45,0,.64,0,.3,0,.63.03.99Z"/></g><g class="cls-25"><path class="cls-8" d="m341.12,269.49v-5.64h-2.04v-.75c.27,0,.53-.02.78-.06.25-.04.48-.12.68-.23.2-.11.38-.26.52-.46.14-.19.24-.44.29-.73h.72v7.87h-.94Z"/><path class="cls-8" d="m350,266.81v.83h-1.06v1.84h-.89v-1.84h-3.45v-.91l3.58-5.12h.76v5.2h1.06Zm-1.95-3.85h-.02l-2.62,3.85h2.64v-3.85Z"/><path class="cls-8" d="m351.07,263.29c.1-.34.26-.63.48-.88.22-.25.49-.44.82-.58s.7-.21,1.11-.21c.34,0,.66.05.96.15.3.1.56.24.78.43s.4.42.53.71.19.61.19.98c0,.35-.05.66-.16.92-.11.27-.25.51-.43.72-.18.21-.38.4-.61.57-.23.17-.47.33-.71.49-.24.15-.49.29-.73.44-.25.14-.47.3-.67.46-.2.16-.38.34-.52.53-.14.19-.24.4-.28.65h4.04v.83h-5.14c.04-.47.12-.86.25-1.19.13-.33.29-.62.49-.86.2-.24.42-.46.68-.64.25-.18.52-.36.79-.52.33-.21.62-.4.88-.57.25-.17.46-.35.63-.53.17-.18.29-.37.38-.58.09-.21.13-.45.13-.72,0-.21-.04-.41-.12-.58s-.19-.32-.33-.45c-.14-.13-.3-.22-.48-.29s-.38-.1-.59-.1c-.27,0-.51.06-.71.17-.2.11-.36.26-.48.45-.13.19-.22.39-.27.63-.06.23-.08.47-.07.71h-.94c-.02-.4.02-.77.12-1.11Z"/><path class="cls-8" d="m357.24,263.29c.1-.34.26-.63.48-.88s.49-.44.82-.58c.33-.14.7-.21,1.11-.21.34,0,.66.05.96.15.3.1.56.24.78.43.22.19.4.42.53.71.13.28.2.61.2.98,0,.35-.05.66-.16.92-.11.27-.25.51-.43.72-.18.21-.38.4-.61.57-.23.17-.47.33-.71.49-.24.15-.49.29-.73.44s-.47.3-.67.46c-.2.16-.38.34-.52.53-.14.19-.24.4-.28.65h4.04v.83h-5.14c.04-.47.12-.86.25-1.19s.29-.62.49-.86.42-.46.68-.64.51-.36.79-.52c.33-.21.63-.4.88-.57.25-.17.46-.35.63-.53.17-.18.29-.37.38-.58.08-.21.13-.45.13-.72,0-.21-.04-.41-.12-.58-.08-.17-.19-.32-.33-.45-.14-.13-.3-.22-.48-.29-.19-.07-.38-.1-.59-.1-.27,0-.51.06-.71.17-.2.11-.36.26-.48.45-.13.19-.22.39-.27.63-.05.23-.08.47-.07.71h-.94c-.02-.4.02-.77.12-1.11Z"/><path class="cls-8" d="m363.29,264.72c.02-.31.05-.61.11-.91.06-.3.14-.58.26-.84s.26-.5.46-.7c.19-.2.43-.36.73-.48.29-.12.64-.18,1.05-.18s.76.06,1.05.18c.29.12.54.28.73.48.19.2.34.43.46.7s.2.55.25.84c.06.3.1.6.11.91s.02.61.02.9,0,.59-.02.9-.05.61-.11.91c-.06.3-.14.58-.25.84s-.26.49-.46.69c-.19.2-.43.36-.72.47-.29.11-.64.17-1.05.17s-.76-.06-1.05-.17c-.29-.12-.54-.27-.73-.47-.19-.2-.34-.43-.46-.69s-.2-.54-.26-.84c-.06-.3-.1-.6-.11-.91-.01-.31-.02-.61-.02-.9s0-.59.02-.9Zm1.01,1.88c.02.37.08.71.18,1.03.1.32.26.59.48.82.22.22.53.33.93.33s.71-.11.93-.33.38-.49.48-.82c.1-.32.16-.67.18-1.03.02-.37.03-.7.03-.99,0-.19,0-.41,0-.64,0-.23-.02-.47-.05-.7-.03-.23-.08-.46-.14-.68-.06-.22-.16-.42-.28-.58-.12-.17-.28-.3-.46-.41-.19-.1-.41-.16-.68-.16s-.49.05-.68.16-.34.24-.46.41c-.12.17-.21.36-.28.58-.06.22-.11.45-.14.68-.03.23-.05.47-.06.7,0,.23,0,.45,0,.64,0,.3,0,.63.03.99Z"/></g><g class="cls-20"><path class="cls-8" d="m415.61,269.49v-5.64h-2.04v-.75c.27,0,.53-.02.78-.06.25-.04.48-.12.68-.23.2-.11.38-.26.52-.46.14-.19.24-.44.29-.73h.72v7.87h-.94Z"/><path class="cls-8" d="m423.3,263.96c-.35.54-.66,1.12-.93,1.73-.27.61-.49,1.25-.66,1.9-.17.65-.27,1.28-.31,1.9h-1.05c.04-.67.15-1.32.33-1.95.17-.63.4-1.24.67-1.82.27-.58.59-1.13.95-1.65.36-.52.75-1,1.16-1.43h-4.13v-.89h5.09v.81c-.4.39-.77.86-1.12,1.4Z"/><path class="cls-8" d="m429.13,262.77c-.23-.21-.53-.32-.91-.32-.4,0-.72.1-.97.29-.24.2-.43.44-.57.74-.14.3-.23.62-.28.97s-.08.67-.09.98l.02.02c.22-.36.5-.62.83-.79s.71-.24,1.14-.24c.38,0,.72.06,1.02.19s.55.31.75.54c.2.23.36.5.47.81s.17.65.17,1.01c0,.29-.04.59-.13.9s-.24.59-.44.85c-.2.26-.47.47-.81.63-.34.17-.75.25-1.25.25-.58,0-1.05-.12-1.41-.36-.36-.24-.63-.54-.82-.91s-.32-.78-.38-1.22c-.06-.44-.09-.87-.09-1.29,0-.54.05-1.06.14-1.57s.25-.96.47-1.35c.22-.39.52-.71.89-.94.37-.24.84-.36,1.4-.36.65,0,1.17.17,1.55.52.38.34.61.84.67,1.49h-.94c-.04-.36-.18-.64-.41-.86Zm-1.71,2.62c-.2.09-.37.22-.51.38s-.25.35-.32.57c-.07.22-.11.45-.11.69s.04.47.11.69.18.4.32.55c.14.16.31.28.51.37.2.09.43.14.69.14s.49-.05.68-.14.36-.22.49-.38c.13-.16.23-.35.3-.56s.11-.43.11-.66c0-.24-.03-.47-.09-.69-.06-.22-.16-.41-.29-.57-.13-.16-.3-.29-.5-.38-.2-.1-.43-.14-.7-.14s-.5.05-.7.14Z"/><path class="cls-8" d="m436.83,266.81v.83h-1.07v1.84h-.89v-1.84h-3.45v-.91l3.58-5.12h.75v5.2h1.07Zm-1.95-3.85h-.02l-2.62,3.85h2.64v-3.85Z"/><path class="cls-8" d="m437.77,264.72c.01-.31.05-.61.11-.91.06-.3.14-.58.25-.84s.26-.5.46-.7c.19-.2.43-.36.73-.48.29-.12.64-.18,1.05-.18s.76.06,1.05.18c.29.12.53.28.73.48.19.2.34.43.46.7.11.27.2.55.26.84.06.3.1.6.11.91s.02.61.02.9,0,.59-.02.9-.05.61-.11.91c-.06.3-.14.58-.26.84-.11.26-.26.49-.46.69-.19.2-.43.36-.72.47-.29.11-.64.17-1.05.17s-.76-.06-1.05-.17c-.29-.12-.53-.27-.73-.47-.19-.2-.34-.43-.46-.69s-.2-.54-.25-.84c-.06-.3-.1-.6-.11-.91s-.02-.61-.02-.9,0-.59.02-.9Zm1,1.88c.02.37.08.71.18,1.03.1.32.26.59.48.82s.53.33.93.33.71-.11.93-.33c.22-.22.38-.49.48-.82.1-.32.16-.67.18-1.03.02-.37.03-.7.03-.99,0-.19,0-.41,0-.64,0-.23-.02-.47-.05-.7-.03-.23-.08-.46-.14-.68-.06-.22-.16-.42-.28-.58-.12-.17-.28-.3-.46-.41-.19-.1-.41-.16-.68-.16s-.49.05-.68.16c-.18.1-.34.24-.46.41-.12.17-.21.36-.28.58-.06.22-.11.45-.14.68-.03.23-.05.47-.06.7,0,.23,0,.45,0,.64,0,.3,0,.63.03.99Z"/></g><g class="cls-19"><path class="cls-8" d="m487.69,263.29c.1-.34.26-.63.48-.88.22-.25.49-.44.82-.58.33-.14.7-.21,1.11-.21.34,0,.66.05.96.15.3.1.56.24.78.43s.4.42.53.71c.13.28.19.61.19.98,0,.35-.05.66-.16.92-.11.27-.25.51-.43.72-.18.21-.38.4-.61.57s-.47.33-.71.49c-.24.15-.49.29-.73.44-.25.14-.47.3-.67.46-.2.16-.38.34-.52.53-.14.19-.24.4-.28.65h4.04v.83h-5.14c.04-.47.12-.86.25-1.19.13-.33.29-.62.49-.86s.43-.46.68-.64c.25-.18.51-.36.79-.52.33-.21.63-.4.88-.57.25-.17.46-.35.63-.53.17-.18.29-.37.38-.58.08-.21.13-.45.13-.72,0-.21-.04-.41-.12-.58-.08-.17-.19-.32-.33-.45-.14-.13-.3-.22-.48-.29-.19-.07-.38-.1-.59-.1-.27,0-.51.06-.71.17-.2.11-.36.26-.48.45-.13.19-.22.39-.27.63-.06.23-.08.47-.07.71h-.94c-.02-.4.02-.77.12-1.11Z"/><path class="cls-8" d="m496.26,269.49v-5.64h-2.04v-.75c.27,0,.53-.02.78-.06.25-.04.48-.12.68-.23.2-.11.38-.26.52-.46.14-.19.24-.44.29-.73h.72v7.87h-.94Z"/><path class="cls-8" d="m500.04,263.29c.1-.34.26-.63.48-.88.22-.25.49-.44.82-.58.33-.14.7-.21,1.11-.21.34,0,.66.05.96.15.3.1.56.24.78.43.22.19.4.42.53.71.13.28.19.61.19.98,0,.35-.05.66-.16.92-.11.27-.25.51-.43.72-.18.21-.38.4-.61.57-.23.17-.47.33-.71.49-.24.15-.49.29-.73.44s-.47.3-.67.46c-.2.16-.38.34-.52.53-.14.19-.24.4-.28.65h4.04v.83h-5.14c.04-.47.12-.86.25-1.19.13-.33.29-.62.49-.86.2-.24.42-.46.68-.64.25-.18.51-.36.79-.52.33-.21.62-.4.88-.57.25-.17.46-.35.63-.53.17-.18.29-.37.38-.58.08-.21.13-.45.13-.72,0-.21-.04-.41-.12-.58-.08-.17-.19-.32-.33-.45-.14-.13-.3-.22-.48-.29-.18-.07-.38-.1-.59-.1-.27,0-.51.06-.71.17-.2.11-.36.26-.48.45-.13.19-.22.39-.27.63-.05.23-.08.47-.07.71h-.94c-.02-.4.02-.77.12-1.11Z"/><path class="cls-8" d="m511.31,266.81v.83h-1.07v1.84h-.89v-1.84h-3.45v-.91l3.58-5.12h.75v5.2h1.07Zm-1.95-3.85h-.02l-2.62,3.85h2.64v-3.85Z"/><path class="cls-8" d="m512.26,264.72c.01-.31.05-.61.11-.91.06-.3.14-.58.25-.84s.26-.5.46-.7c.19-.2.43-.36.73-.48.29-.12.64-.18,1.05-.18s.76.06,1.05.18c.29.12.53.28.73.48.19.2.34.43.46.7.11.27.2.55.26.84.06.3.1.6.11.91s.02.61.02.9,0,.59-.02.9-.05.61-.11.91c-.06.3-.14.58-.26.84-.11.26-.26.49-.46.69-.19.2-.43.36-.72.47-.29.11-.64.17-1.05.17s-.76-.06-1.05-.17c-.29-.12-.53-.27-.73-.47-.19-.2-.34-.43-.46-.69s-.2-.54-.25-.84c-.06-.3-.1-.6-.11-.91s-.02-.61-.02-.9,0-.59.02-.9Zm1,1.88c.02.37.08.71.18,1.03.1.32.26.59.48.82s.53.33.93.33.71-.11.93-.33c.22-.22.38-.49.48-.82.1-.32.16-.67.18-1.03.02-.37.03-.7.03-.99,0-.19,0-.41,0-.64,0-.23-.02-.47-.05-.7-.03-.23-.08-.46-.14-.68-.06-.22-.16-.42-.28-.58-.12-.17-.28-.3-.46-.41-.19-.1-.41-.16-.68-.16s-.49.05-.68.16c-.18.1-.34.24-.46.41-.12.17-.21.36-.28.58-.06.22-.11.45-.14.68-.03.23-.05.47-.06.7,0,.23,0,.45,0,.64,0,.3,0,.63.03.99Z"/></g><g class="cls-27"><g class="cls-18"><g class="cls-22"><polyline class="cls-1" points="55.6 42.08 57.67 138.42 59.74 182.96 61.81 199.87 63.88 206.86 65.95 212.77 68.01 215.79 70.08 222.06 72.15 221.48 74.22 227.02 76.29 220.86 78.36 222.18 80.43 225.03 82.5 222.36 84.57 230.24 86.64 228.24 88.7 225.09 90.77 223.58 92.84 222.65 94.91 226.14 96.98 230.12 99.05 229.97 101.12 228.63 103.19 224.82 105.26 227.48 107.33 226.29 109.4 226.51 111.46 235.41 113.53 230.13 115.6 228.33 117.67 230.09 119.74 232.84 121.81 232.7 123.88 228.54 125.95 229.88 128.02 231.59 130.09 229.3 132.15 229.79 134.22 232.53 136.29 229.05 138.36 232.33 140.43 226.58 142.5 225.01 144.57 232.81 146.64 224.96 148.71 235.05 150.78 226.62 152.85 232.67 154.91 233.15 156.98 228.53 159.05 233.18 161.12 229.5 163.19 233.04 165.26 207.99 167.33 214.63 169.4 220.05 171.47 216.13 173.54 216.44 175.6 218.46 177.67 220.72 179.74 215.58 181.81 215.51 183.88 220.63 185.95 218.44 188.02 215.85 190.09 222.34 192.16 221.42 194.23 215.22 196.29 222.58 198.36 216.23 200.43 227.69 202.5 222.44 204.57 217.29 206.64 226.06 208.71 225.98 210.78 230.78 212.85 226.16 214.92 231.73 216.99 230.02 219.05 233.12 221.12 229.02 223.19 228.12 225.26 233.1 227.33 234.09 229.4 233.37 231.47 230.9 233.54 234.26 235.61 231.7 237.68 234.54 239.74 230.77 241.81 229.07 243.88 232.39 245.95 230.83 248.02 230.67 250.09 230.87 252.16 229.2 254.23 231.52 256.3 231.48 258.37 235.37 260.44 232.08 262.5 229.41 264.57 232.04 266.64 230.81 268.71 231.53 270.78 230.04 272.85 232.72 274.92 233.96 276.99 230.15 279.06 235.3 281.13 235.98 283.19 227.9 285.26 228.85 287.33 234.54 289.4 231.4 291.47 229.08 293.54 232.19 295.61 230.77 297.68 233.41 299.75 232.57 301.82 235.3 303.88 230.65 305.95 234 308.02 231.92 310.09 232.74 312.16 232.16 314.23 232.02 316.3 222.26 318.37 221.64 320.44 219.25 322.51 227.91 324.58 221.67 326.64 219.29 328.71 224.25 330.78 220.63 332.85 226.94 334.92 217.88 336.99 223.05 339.06 226.33 341.13 224.4 343.2 222.54 345.27 223.74 347.33 219.76 349.4 221.74 351.47 221.04 353.54 223.32 355.61 229.53 357.68 232.16 359.75 232.39 361.82 236.25 363.89 232.62 365.96 236.49 368.03 231.28 370.09 234.3 372.16 230.01 374.23 233.61 376.3 233.96 378.37 229.73 380.44 234.37 382.51 232.14 384.58 233.43 386.65 235.05 388.72 234.62 390.78 235.23 392.85 235.23 394.92 229.1 396.99 233.82 399.06 232.58 401.13 230.15 403.2 234.86 405.27 234.98 407.34 230.43 409.41 231.77 411.47 233.26 413.54 234.59 415.61 234.07 417.68 236 419.75 234.8 421.82 233.16 423.89 230.64 425.96 235.92 428.03 232.97 430.1 231.24 432.17 227.9 434.23 234.65 436.3 232.83 438.37 236.32 440.44 233.8 442.51 234.15 444.58 231.59 446.65 234.36 448.72 229.67 450.79 237.56 452.86 235.88 454.92 234.59 456.99 240.01 459.06 233.07 461.13 237.78 463.2 232.46 465.27 233.67 467.34 220.63 469.41 225.01 471.48 219.8 473.55 222.86 475.62 216.87 477.68 219.3 479.75 221.09 481.82 220.76 483.89 212.87 485.96 221.59 488.03 222.71 490.1 227.96 492.17 212.26 494.24 220.5 496.31 222.45 498.37 225.4 500.44 226.1 502.51 222.9 504.58 221.77 506.65 223.9"/></g></g></g><g class="cls-24"><polyline class="cls-4" points="506.65 222.84 504.58 222.34 502.51 224.5 500.44 225.75 498.37 223.93 496.31 221.48 494.24 216.38 492.17 220.11 490.1 225.34 488.03 222.15 485.96 217.23 483.89 216.82 481.82 220.92 479.75 220.19 477.68 218.08 475.62 219.87 473.55 221.33 471.48 222.4 469.41 222.82 467.34 227.15 465.27 233.07 463.2 235.12 461.13 235.43 459.06 236.54 456.99 237.3 454.92 235.23 452.86 236.72 450.79 233.62 448.72 232.01 446.65 232.97 444.58 232.87 442.51 233.98 440.44 235.06 438.37 234.58 436.3 233.74 434.23 231.27 432.17 229.57 430.1 232.1 428.03 234.45 425.96 233.28 423.89 231.9 421.82 233.98 419.75 235.4 417.68 235.04 415.61 234.33 413.54 233.93 411.47 232.51 409.41 231.1 407.34 232.7 405.27 234.92 403.2 232.5 401.13 231.36 399.06 233.2 396.99 231.46 394.92 232.16 392.85 235.23 390.78 234.93 388.72 234.84 386.65 234.24 384.58 232.79 382.51 233.25 380.44 232.05 378.37 231.85 376.3 233.78 374.23 231.81 372.16 232.16 370.09 232.79 368.03 233.89 365.96 234.56 363.89 234.44 361.82 234.32 359.75 232.28 357.68 230.85 355.61 226.42 353.54 222.18 351.47 221.39 349.4 220.75 347.33 221.75 345.27 223.14 343.2 223.47 341.13 225.36 339.06 224.69 336.99 220.46 334.92 222.41 332.85 223.79 330.78 222.44 328.71 221.77 326.64 220.48 324.58 224.79 322.51 223.58 320.44 220.44 318.37 221.95 316.3 227.14 314.23 232.09 312.16 232.45 310.09 232.33 308.02 232.96 305.95 232.32 303.88 232.98 301.82 233.94 299.75 232.99 297.68 232.09 295.61 231.48 293.54 230.63 291.47 230.24 289.4 232.97 287.33 231.7 285.26 228.38 283.19 231.94 281.13 235.64 279.06 232.72 276.99 232.06 274.92 233.34 272.85 231.38 270.78 230.78 268.71 231.17 266.64 231.42 264.57 230.72 262.5 230.74 260.44 233.72 258.37 233.42 256.3 231.5 254.23 230.36 252.16 230.03 250.09 230.77 248.02 230.75 245.95 231.61 243.88 230.73 241.81 229.92 239.74 232.66 237.68 233.12 235.61 232.98 233.54 232.58 231.47 232.14 229.4 233.73 227.33 233.59 225.26 230.61 223.19 228.57 221.12 231.07 219.05 231.57 216.99 230.88 214.92 228.95 212.85 228.47 210.78 228.38 208.71 226.02 206.64 221.68 204.57 219.86 202.5 225.07 200.43 221.96 198.36 219.4 196.29 218.9 194.23 218.32 192.16 221.88 190.09 219.09 188.02 217.14 185.95 219.53 183.88 218.07 181.81 215.54 179.74 218.15 177.67 219.59 175.6 217.45 173.54 216.29 171.47 218.09 169.4 217.34 167.33 211.31 165.26 220.52 163.19 231.27 161.12 231.34 159.05 230.85 156.98 230.84 154.91 232.91 152.85 229.65 150.78 230.84 148.71 230 146.64 228.89 144.57 228.91 142.5 225.8 140.43 229.46 138.36 230.69 136.29 230.79 134.22 231.16 132.15 229.55 130.09 230.44 128.02 230.73 125.95 229.21 123.88 230.62 121.81 232.77 119.74 231.46 117.67 229.21 115.6 229.23 113.53 232.77 111.46 230.96 109.4 226.4 107.33 226.88 105.26 226.15 103.19 226.72 101.12 229.3 99.05 230.05 96.98 228.13 94.91 224.4 92.84 223.12 90.77 224.33 88.7 226.66 86.64 229.24 84.57 226.3 82.5 223.7 80.43 223.61 78.36 221.52 76.29 223.94 74.22 224.25 72.15 221.77 70.08 218.93 68.01 214.28 65.95 209.81 63.88 203.36 61.81 191.41 59.74 160.69 57.67 90.25"/></g><g class="cls-27"><g class="cls-23"><g class="cls-26"><line class="cls-6" x1="425" y1="15.88" x2="435" y2="15.88"/></g></g></g><path class="cls-8" d="m442.18,12.63v-.89h6.34v.89h-2.64v7.04h-1.05v-7.04h-2.64Z"/><path class="cls-8" d="m449.08,13.93v1.21h.02c.23-.47.51-.81.84-1.03.33-.22.75-.33,1.27-.31v1c-.38,0-.7.05-.97.16-.27.1-.48.26-.64.46-.16.2-.28.44-.36.73-.07.29-.11.61-.11.98v2.55h-.94v-5.74h.89Z"/><path class="cls-8" d="m457.01,19.65c-.16.1-.39.14-.68.14-.24,0-.44-.07-.58-.21-.14-.14-.22-.36-.22-.67-.26.31-.56.54-.91.67-.34.14-.72.21-1.12.21-.26,0-.5-.03-.74-.09-.23-.06-.43-.15-.6-.28-.17-.13-.31-.29-.41-.49-.1-.2-.15-.45-.15-.74,0-.33.06-.59.17-.8s.26-.38.44-.5c.18-.13.39-.23.62-.29.23-.07.47-.12.72-.17.26-.05.5-.09.74-.12.23-.03.44-.06.62-.11s.32-.12.42-.21.16-.23.16-.41c0-.21-.04-.37-.12-.5s-.18-.22-.3-.29-.26-.11-.41-.13c-.15-.02-.3-.03-.45-.03-.4,0-.73.08-1,.23-.27.15-.41.44-.43.86h-.94c.01-.36.09-.66.22-.9s.31-.44.53-.59c.22-.15.47-.26.76-.33.29-.07.59-.1.92-.1.26,0,.52.02.77.06s.49.11.69.23c.21.12.37.28.5.48s.19.48.19.81v2.95c0,.22.01.38.04.49.03.1.11.16.26.16.08,0,.18-.02.29-.04v.73Zm-1.53-2.94c-.12.09-.27.15-.47.19-.19.04-.39.07-.61.1s-.42.06-.64.09c-.21.03-.41.09-.58.16-.17.07-.31.18-.42.32-.11.14-.16.32-.16.56,0,.15.03.29.09.39.06.11.14.19.24.26.1.07.22.11.35.14.13.03.27.04.42.04.31,0,.58-.04.8-.13.22-.08.4-.19.54-.32.14-.13.24-.27.31-.42.07-.15.1-.29.1-.43v-.96Z"/><path class="cls-8" d="m457.94,12.9v-1.15h.94v1.15h-.94Zm.94,1.03v5.74h-.94v-5.74h.94Z"/><path class="cls-8" d="m461.24,13.93v.91h.02c.39-.7,1.01-1.04,1.87-1.04.38,0,.69.05.94.16.25.1.46.25.61.43.16.18.26.4.33.66.06.25.09.54.09.85v3.77h-.94v-3.88c0-.36-.1-.64-.31-.84-.21-.21-.49-.31-.86-.31-.29,0-.54.04-.75.13s-.39.21-.53.38c-.14.16-.25.35-.32.57-.07.22-.11.46-.11.72v3.24h-.94v-5.74h.89Z"/><path class="cls-8" d="m466.58,12.9v-1.15h.94v1.15h-.94Zm.94,1.03v5.74h-.94v-5.74h.94Z"/><path class="cls-8" d="m469.87,13.93v.91h.02c.39-.7,1.01-1.04,1.87-1.04.38,0,.69.05.94.16.25.1.46.25.61.43.16.18.26.4.33.66.06.25.09.54.09.85v3.77h-.94v-3.88c0-.36-.1-.64-.31-.84-.21-.21-.49-.31-.86-.31-.29,0-.54.04-.75.13s-.39.21-.53.38c-.14.16-.25.35-.32.57-.07.22-.11.46-.11.72v3.24h-.94v-5.74h.89Z"/><path class="cls-8" d="m479.46,21.29c-.43.47-1.1.7-2.02.7-.27,0-.54-.03-.82-.09-.28-.06-.53-.16-.75-.29-.23-.13-.41-.31-.56-.52-.15-.21-.23-.48-.24-.79h.94c0,.17.06.31.16.43.1.12.22.21.37.29.14.07.3.13.47.16.17.03.33.05.49.05.31,0,.57-.05.79-.16s.39-.26.53-.44c.14-.19.24-.42.3-.68s.09-.56.09-.88v-.38h-.02c-.16.35-.41.62-.74.78-.33.17-.68.25-1.05.25-.43,0-.8-.08-1.12-.23s-.58-.36-.8-.63c-.21-.26-.38-.57-.48-.92s-.16-.72-.16-1.12c0-.34.04-.69.13-1.05.09-.36.24-.68.44-.98.21-.29.48-.53.82-.72.34-.19.76-.28,1.25-.28.36,0,.7.08,1,.24s.54.4.71.72h.01v-.82h.89v5.25c0,.94-.21,1.64-.64,2.11Zm-1.2-2.58c.22-.13.39-.3.53-.51.13-.21.23-.45.29-.72.06-.27.09-.53.09-.8,0-.25-.03-.5-.09-.74-.06-.24-.15-.46-.28-.66-.13-.2-.3-.35-.51-.47-.21-.12-.46-.18-.75-.18s-.56.06-.78.17c-.21.11-.39.27-.53.46s-.24.41-.3.67c-.06.25-.09.51-.09.79,0,.26.03.52.08.78.05.26.14.49.27.71s.29.38.5.51c.21.13.47.19.78.19s.58-.07.79-.19Z"/><path class="cls-8" d="m485.82,11.74v7.04h4.2v.89h-5.25v-7.93h1.05Z"/><path class="cls-8" d="m490.65,15.62c.12-.37.3-.68.53-.96.24-.27.53-.48.88-.64s.75-.23,1.2-.23.86.08,1.21.23c.34.16.63.37.87.64.24.27.41.59.53.96.12.37.18.76.18,1.18s-.06.81-.18,1.18c-.12.36-.3.68-.53.95-.24.27-.53.48-.87.63-.34.15-.75.23-1.21.23s-.85-.08-1.2-.23-.64-.36-.88-.63c-.24-.27-.42-.59-.53-.95-.12-.36-.18-.75-.18-1.18s.06-.82.18-1.18Zm.96,2.11c.09.27.22.5.38.68.16.18.35.32.57.42.22.1.45.14.69.14s.48-.05.69-.14c.22-.1.41-.23.57-.42s.29-.41.38-.68c.09-.27.14-.58.14-.93s-.05-.66-.14-.93c-.09-.27-.22-.5-.38-.68-.16-.18-.35-.33-.57-.42-.22-.1-.45-.14-.69-.14s-.48.05-.69.14c-.22.1-.41.24-.57.42-.16.19-.29.41-.38.68-.09.27-.14.58-.14.93s.05.66.14.93Z"/><path class="cls-8" d="m497.88,18.39c.09.14.21.26.35.34.14.08.31.15.49.18.18.04.37.06.56.06.15,0,.3-.01.47-.03s.31-.06.45-.12c.14-.06.25-.15.34-.26.09-.12.13-.26.13-.44,0-.24-.09-.43-.28-.56-.18-.12-.42-.23-.69-.3-.28-.08-.58-.15-.9-.21-.33-.06-.63-.15-.91-.27-.28-.11-.51-.28-.69-.48-.19-.21-.28-.5-.28-.87,0-.29.06-.54.19-.74.13-.21.3-.38.5-.5.2-.13.43-.23.69-.29.25-.06.51-.09.76-.09.33,0,.63.03.9.08.27.06.52.15.73.29.21.14.38.32.5.55.12.23.2.52.22.87h-.94c-.01-.19-.06-.34-.14-.46s-.18-.22-.31-.29c-.13-.07-.26-.13-.42-.16-.15-.03-.31-.05-.46-.05-.14,0-.28.01-.43.03-.14.02-.28.06-.39.12s-.21.13-.29.22c-.07.09-.11.21-.11.36,0,.16.06.3.17.41.11.11.26.2.44.27s.38.13.6.18c.22.05.44.1.67.15.24.05.47.11.69.19s.43.17.6.29.31.28.42.46c.11.18.16.41.16.69,0,.35-.07.64-.22.87s-.33.42-.57.56-.5.24-.79.29-.58.08-.87.08c-.32,0-.62-.03-.91-.1-.29-.07-.54-.18-.77-.33-.22-.15-.4-.35-.53-.6s-.21-.55-.22-.91h.94c0,.21.06.38.14.53Z"/><path class="cls-8" d="m503.43,18.39c.09.14.21.26.35.34s.31.15.49.18.37.06.56.06c.15,0,.3-.01.47-.03.16-.02.31-.06.45-.12s.25-.15.34-.26c.09-.12.13-.26.13-.44,0-.24-.09-.43-.28-.56-.19-.12-.42-.23-.69-.3-.28-.08-.58-.15-.9-.21s-.63-.15-.9-.27c-.28-.11-.51-.28-.69-.48-.18-.21-.28-.5-.28-.87,0-.29.06-.54.19-.74.13-.21.3-.38.5-.5.2-.13.43-.23.69-.29.26-.06.51-.09.76-.09.33,0,.62.03.9.08.27.06.52.15.73.29s.38.32.5.55c.13.23.2.52.22.87h-.94c-.01-.19-.06-.34-.14-.46-.08-.12-.19-.22-.31-.29-.13-.07-.26-.13-.42-.16s-.3-.05-.46-.05c-.14,0-.28.01-.43.03-.14.02-.28.06-.39.12s-.21.13-.29.22c-.07.09-.11.21-.11.36,0,.16.06.3.17.41.12.11.26.2.44.27s.38.13.6.18c.22.05.44.1.67.15.24.05.47.11.69.19s.43.17.6.29.31.28.42.46.16.41.16.69c0,.35-.07.64-.22.87-.14.23-.33.42-.57.56-.23.14-.5.24-.79.29-.29.06-.58.08-.87.08-.32,0-.62-.03-.91-.1-.29-.07-.54-.18-.77-.33-.22-.15-.4-.35-.53-.6-.13-.25-.21-.55-.22-.91h.94c0,.21.06.38.14.53Z"/></g></svg>