<?xml version="1.0" encoding="UTF-8"?><svg id="Layer_2" xmlns="http://www.w3.org/2000/svg" xmlns:xlink="http://www.w3.org/1999/xlink" viewBox="0 0 550.3 293.86"><defs><style>.cls-1{stroke-width:8px;}.cls-1,.cls-2,.cls-3,.cls-4,.cls-5,.cls-6{fill:none;}.cls-1,.cls-5,.cls-6{stroke:#868e96;}.cls-7{clip-path:url(#clippath);}.cls-2,.cls-8{stroke-width:0px;}.cls-3{stroke:#fff;stroke-linecap:square;}.cls-4{stroke:#f1f3f6;stroke-width:2px;}.cls-9{clip-path:url(#clippath-1);}.cls-10{clip-path:url(#clippath-4);}.cls-11{clip-path:url(#clippath-3);}.cls-12{clip-path:url(#clippath-2);}.cls-13{clip-path:url(#clippath-7);}.cls-14{clip-path:url(#clippath-8);}.cls-15{clip-path:url(#clippath-6);}.cls-16{clip-path:url(#clippath-5);}.cls-17{clip-path:url(#clippath-9);}.cls-5{stroke-width:.5px;}.cls-18{clip-path:url(#clippath-14);}.cls-19{clip-path:url(#clippath-13);}.cls-20{clip-path:url(#clippath-12);}.cls-21{clip-path:url(#clippath-10);}.cls-22{clip-path:url(#clippath-15);}.cls-23{clip-path:url(#clippath-17);}.cls-24{clip-path:url(#clippath-16);}.cls-25{clip-path:url(#clippath-11);}.cls-26{clip-path:url(#clippath-18);}.cls-6{stroke-width:1.92px;}.cls-27{isolation:isolate;}.cls-8{fill:#fff;}</style><clipPath id="clippath"><rect class="cls-2" x="0" y="7.34" width="19.03" height="246.85"/></clipPath><clipPath id="clippath-1"><rect class="cls-2" x="18.03" y="246.85" width="55.46" height="14.69"/></clipPath><clipPath id="clippath-2"><rect class="cls-2" x="18.03" y="185.14" width="55.46" height="14.69"/></clipPath><clipPath id="clippath-3"><rect class="cls-2" x="18.03" y="123.43" width="55.46" height="14.69"/></clipPath><clipPath id="clippath-4"><rect class="cls-2" x="18.03" y="61.71" width="55.46" height="14.69"/></clipPath><clipPath id="clippath-5"><rect class="cls-2" x="18.03" width="55.46" height="14.69"/></clipPath><clipPath id="clippath-6"><rect class="cls-2" x="86.46" y="271.85" width="451.05" height="19.03"/></clipPath><clipPath id="clippath-7"><rect class="cls-2" x="81.87" y="258.16" width="9.17" height="14.69"/></clipPath><clipPath id="clippath-8"><rect class="cls-2" x="147.1" y="258.16" width="27.69" height="14.69"/></clipPath><clipPath id="clippath-9"><rect class="cls-2" x="221.59" y="258.16" width="27.69" height="14.69"/></clipPath><clipPath id="clippath-10"><rect class="cls-2" x="292.99" y="258.16" width="33.86" height="14.69"/></clipPath><clipPath id="clippath-11"><rect class="cls-2" x="367.47" y="258.16" width="33.86" height="14.69"/></clipPath><clipPath id="clippath-12"><rect class="cls-2" x="441.96" y="258.16" width="33.86" height="14.69"/></clipPath><clipPath id="clippath-13"><rect class="cls-2" x="516.44" y="258.16" width="33.86" height="14.69"/></clipPath><clipPath id="clippath-14"><rect class="cls-2" x="81" y="1.88" width="462" height="258"/></clipPath><clipPath id="clippath-15"><rect class="cls-2" x="81.66" y="2.54" width="460.65" height="256.45"/></clipPath><clipPath id="clippath-16"><rect class="cls-2" x="84.46" y="5.34" width="455.05" height="250.85"/></clipPath><clipPath id="clippath-17"><rect class="cls-2" x="452" y="11.88" width="10" height="8"/></clipPath><clipPath id="clippath-18"><rect class="cls-2" x="452" y="10.88" width="10" height="10"/></clipPath></defs><g id="Layer_1-2"><line class="cls-5" x1="86" y1="192.38" x2="538" y2="192.38"/><line class="cls-5" x1="86" y1="130.38" x2="538" y2="130.38"/><line class="cls-5" x1="86" y1="69.38" x2="538" y2="69.38"/><line class="cls-5" x1="86" y1="7.38" x2="538" y2="7.38"/><path class="cls-3" d="m85.5,7.38h-1m1,62h-1m1,61h-1m1,62h-1m1,62h-1"/><g class="cls-7"><path class="cls-8" d="m10.32,141.35l-7.93,2.79v-1.13l6.87-2.26v-.02l-6.87-2.29v-1.1l7.93,2.82v1.2Z"/><path class="cls-8" d="m10.3,132.17c.1.16.14.39.14.68,0,.24-.07.44-.21.58-.14.14-.36.22-.67.22.31.26.54.56.67.9.14.34.21.72.21,1.12,0,.26-.03.51-.09.74-.06.23-.15.44-.28.6-.13.17-.29.31-.49.41-.2.1-.45.15-.74.15-.33,0-.59-.06-.8-.17-.21-.11-.38-.26-.5-.44-.13-.18-.23-.39-.29-.62-.07-.23-.12-.47-.17-.72-.05-.26-.09-.5-.12-.74-.03-.23-.06-.44-.11-.62s-.12-.32-.21-.42c-.09-.1-.23-.16-.41-.16-.21,0-.37.04-.5.12-.13.08-.22.18-.29.3s-.11.26-.13.41c-.02.15-.03.3-.03.45,0,.4.08.73.23,1,.15.27.44.41.86.43v.94c-.36-.01-.66-.09-.9-.22-.24-.13-.44-.31-.59-.53s-.26-.48-.33-.76c-.07-.28-.1-.59-.1-.92,0-.26.02-.52.06-.77.04-.26.11-.49.23-.69.12-.21.28-.37.48-.5s.48-.19.81-.19h2.95c.22,0,.38-.01.49-.04s.16-.11.16-.26c0-.08-.02-.18-.04-.29h.73Zm-2.94,1.53c.09.12.15.27.19.47.04.19.07.39.1.6s.06.42.09.64c.03.21.09.41.16.58.07.17.18.31.32.42.14.11.32.16.56.16.15,0,.29-.03.39-.09.11-.06.19-.14.26-.24.07-.1.11-.22.14-.35.03-.13.04-.27.04-.42,0-.31-.04-.58-.13-.8-.08-.22-.19-.4-.32-.54-.13-.14-.27-.24-.42-.31-.15-.07-.29-.1-.43-.1h-.96Z"/><path class="cls-8" d="m2.4,130.29h7.93v.94H2.4v-.94Z"/><path class="cls-8" d="m10.32,124.96h-.91v.02c.36.2.62.46.78.77.17.31.25.68.25,1.1,0,.38-.05.69-.15.94-.1.25-.24.46-.43.61-.18.16-.41.26-.66.33-.26.06-.54.09-.85.09h-3.77v-.94h3.88c.36,0,.64-.1.84-.31.21-.21.31-.49.31-.85,0-.29-.04-.54-.13-.75-.09-.21-.21-.39-.38-.53s-.35-.25-.57-.32c-.22-.07-.46-.11-.72-.11h-3.24v-.94h5.74v.89Z"/><path class="cls-8" d="m9.96,118.59c.33.43.49.97.49,1.62,0,.46-.07.86-.22,1.19-.15.34-.36.62-.62.85s-.58.4-.95.52-.77.18-1.21.19c-.44,0-.84-.07-1.2-.2-.36-.13-.68-.32-.94-.56-.27-.24-.47-.52-.62-.85-.15-.33-.22-.69-.22-1.08,0-.51.11-.93.32-1.27.21-.34.48-.61.8-.81.33-.2.68-.34,1.07-.42s.75-.11,1.1-.09v4.3c.25,0,.49-.02.72-.09.23-.07.43-.17.6-.32s.31-.34.42-.57c.1-.23.16-.5.16-.81,0-.4-.09-.73-.28-.98-.19-.26-.47-.42-.84-.51v-.93c.64.13,1.13.4,1.45.83Zm-3.69.23c-.2.08-.37.2-.52.34-.14.14-.26.31-.34.51-.08.2-.13.41-.13.65s.04.46.13.66c.09.2.2.36.35.5.15.14.32.25.52.33.2.08.41.13.63.14v-3.3c-.22.02-.43.06-.63.15Z"/></g><g class="cls-9"><path class="cls-8" d="m20.02,253.41c.01-.31.05-.61.11-.91.06-.3.14-.58.25-.84.11-.27.26-.5.46-.7.19-.2.44-.36.73-.48.29-.12.64-.18,1.05-.18s.76.06,1.05.18c.29.12.53.28.73.48.19.2.34.43.46.7s.2.55.26.84c.06.3.1.6.11.91s.02.61.02.9,0,.59-.02.9-.05.61-.11.91c-.06.3-.14.58-.26.84s-.26.49-.46.69c-.19.2-.43.36-.72.47-.29.11-.64.17-1.05.17s-.76-.06-1.05-.17c-.29-.12-.53-.27-.73-.47-.19-.2-.34-.43-.46-.69-.11-.26-.2-.54-.25-.84-.06-.3-.1-.6-.11-.91s-.02-.61-.02-.9,0-.59.02-.9Zm1,1.88c.02.37.08.71.18,1.03.1.32.26.59.48.82.22.22.53.33.93.33s.71-.11.93-.33c.22-.22.38-.49.48-.82.1-.32.16-.67.18-1.03.02-.37.03-.7.03-.99,0-.19,0-.41,0-.64,0-.23-.02-.47-.06-.7-.03-.23-.08-.46-.14-.68-.06-.22-.16-.42-.28-.58-.12-.17-.28-.3-.46-.41s-.41-.16-.68-.16-.49.05-.68.16-.34.24-.46.41c-.12.17-.21.36-.28.58-.06.22-.11.45-.14.68-.03.23-.05.47-.06.7,0,.23,0,.45,0,.64,0,.3,0,.63.03.99Z"/><path class="cls-8" d="m27.86,256.94v1.23h-1.23v-1.23h1.23Z"/><path class="cls-8" d="m29.28,253.41c.01-.31.05-.61.11-.91.06-.3.14-.58.25-.84.11-.27.26-.5.46-.7.19-.2.44-.36.73-.48.29-.12.64-.18,1.05-.18s.76.06,1.05.18c.29.12.53.28.73.48.19.2.34.43.46.7s.2.55.26.84c.06.3.1.6.11.91s.02.61.02.9,0,.59-.02.9-.05.61-.11.91c-.06.3-.14.58-.26.84s-.26.49-.46.69c-.19.2-.43.36-.72.47-.29.11-.64.17-1.05.17s-.76-.06-1.05-.17c-.29-.12-.53-.27-.73-.47-.19-.2-.34-.43-.46-.69-.11-.26-.2-.54-.25-.84-.06-.3-.1-.6-.11-.91s-.02-.61-.02-.9,0-.59.02-.9Zm1,1.88c.02.37.08.71.18,1.03.1.32.26.59.48.82.22.22.53.33.93.33s.71-.11.93-.33c.22-.22.38-.49.48-.82.1-.32.16-.67.18-1.03.02-.37.03-.7.03-.99,0-.19,0-.41,0-.64,0-.23-.02-.47-.06-.7-.03-.23-.08-.46-.14-.68-.06-.22-.16-.42-.28-.58-.12-.17-.28-.3-.46-.41s-.41-.16-.68-.16-.49.05-.68.16-.34.24-.46.41c-.12.17-.21.36-.28.58-.06.22-.11.45-.14.68-.03.23-.05.47-.06.7,0,.23,0,.45,0,.64,0,.3,0,.63.03.99Z"/><path class="cls-8" d="m35.45,253.41c.01-.31.05-.61.11-.91.06-.3.14-.58.25-.84.11-.27.26-.5.46-.7.19-.2.44-.36.73-.48.29-.12.64-.18,1.05-.18s.76.06,1.05.18c.29.12.53.28.73.48.19.2.34.43.46.7s.2.55.26.84c.06.3.1.6.11.91s.02.61.02.9,0,.59-.02.9-.05.61-.11.91c-.06.3-.14.58-.26.84s-.26.49-.46.69c-.19.2-.43.36-.72.47-.29.11-.64.17-1.05.17s-.76-.06-1.05-.17c-.29-.12-.53-.27-.73-.47-.19-.2-.34-.43-.46-.69-.11-.26-.2-.54-.25-.84-.06-.3-.1-.6-.11-.91s-.02-.61-.02-.9,0-.59.02-.9Zm1,1.88c.02.37.08.71.18,1.03.1.32.26.59.48.82.22.22.53.33.93.33s.71-.11.93-.33c.22-.22.38-.49.48-.82.1-.32.16-.67.18-1.03.02-.37.03-.7.03-.99,0-.19,0-.41,0-.64,0-.23-.02-.47-.06-.7-.03-.23-.08-.46-.14-.68-.06-.22-.16-.42-.28-.58-.12-.17-.28-.3-.46-.41s-.41-.16-.68-.16-.49.05-.68.16-.34.24-.46.41c-.12.17-.21.36-.28.58-.06.22-.11.45-.14.68-.03.23-.05.47-.06.7,0,.23,0,.45,0,.64,0,.3,0,.63.03.99Z"/><path class="cls-8" d="m41.62,253.41c.01-.31.05-.61.11-.91.06-.3.14-.58.25-.84.11-.27.26-.5.46-.7.19-.2.44-.36.73-.48.29-.12.64-.18,1.05-.18s.76.06,1.05.18c.29.12.53.28.73.48.19.2.34.43.46.7s.2.55.26.84c.06.3.1.6.11.91s.02.61.02.9,0,.59-.02.9-.05.61-.11.91c-.06.3-.14.58-.26.84s-.26.49-.46.69c-.19.2-.43.36-.72.47-.29.11-.64.17-1.05.17s-.76-.06-1.05-.17c-.29-.12-.53-.27-.73-.47-.19-.2-.34-.43-.46-.69-.11-.26-.2-.54-.25-.84-.06-.3-.1-.6-.11-.91s-.02-.61-.02-.9,0-.59.02-.9Zm1,1.88c.02.37.08.71.18,1.03.1.32.26.59.48.82.22.22.53.33.93.33s.71-.11.93-.33c.22-.22.38-.49.48-.82.1-.32.16-.67.18-1.03.02-.37.03-.7.03-.99,0-.19,0-.41,0-.64,0-.23-.02-.47-.06-.7-.03-.23-.08-.46-.14-.68-.06-.22-.16-.42-.28-.58-.12-.17-.28-.3-.46-.41s-.41-.16-.68-.16-.49.05-.68.16-.34.24-.46.41c-.12.17-.21.36-.28.58-.06.22-.11.45-.14.68-.03.23-.05.47-.06.7,0,.23,0,.45,0,.64,0,.3,0,.63.03.99Z"/><path class="cls-8" d="m47.79,253.41c.01-.31.05-.61.11-.91.06-.3.14-.58.25-.84.11-.27.26-.5.46-.7.19-.2.44-.36.73-.48.29-.12.64-.18,1.05-.18s.76.06,1.05.18c.29.12.53.28.73.48.19.2.34.43.46.7s.2.55.26.84c.06.3.1.6.11.91s.02.61.02.9,0,.59-.02.9-.05.61-.11.91c-.06.3-.14.58-.26.84s-.26.49-.46.69c-.19.2-.43.36-.72.47-.29.11-.64.17-1.05.17s-.76-.06-1.05-.17c-.29-.12-.53-.27-.73-.47-.19-.2-.34-.43-.46-.69-.11-.26-.2-.54-.25-.84-.06-.3-.1-.6-.11-.91s-.02-.61-.02-.9,0-.59.02-.9Zm1,1.88c.02.37.08.71.18,1.03.1.32.26.59.48.82.22.22.53.33.93.33s.71-.11.93-.33c.22-.22.38-.49.48-.82.1-.32.16-.67.18-1.03.02-.37.03-.7.03-.99,0-.19,0-.41,0-.64,0-.23-.02-.47-.06-.7-.03-.23-.08-.46-.14-.68-.06-.22-.16-.42-.28-.58-.12-.17-.28-.3-.46-.41s-.41-.16-.68-.16-.49.05-.68.16-.34.24-.46.41c-.12.17-.21.36-.28.58-.06.22-.11.45-.14.68-.03.23-.05.47-.06.7,0,.23,0,.45,0,.64,0,.3,0,.63.03.99Z"/><path class="cls-8" d="m53.97,253.41c.01-.31.05-.61.11-.91.06-.3.14-.58.25-.84.11-.27.26-.5.46-.7.19-.2.44-.36.73-.48.29-.12.64-.18,1.05-.18s.76.06,1.05.18c.29.12.53.28.73.48.19.2.34.43.46.7s.2.55.26.84c.06.3.1.6.11.91s.02.61.02.9,0,.59-.02.9-.05.61-.11.91c-.06.3-.14.58-.26.84s-.26.49-.46.69c-.19.2-.43.36-.72.47-.29.11-.64.17-1.05.17s-.76-.06-1.05-.17c-.29-.12-.53-.27-.73-.47-.19-.2-.34-.43-.46-.69-.11-.26-.2-.54-.25-.84-.06-.3-.1-.6-.11-.91s-.02-.61-.02-.9,0-.59.02-.9Zm1,1.88c.02.37.08.71.18,1.03.1.32.26.59.48.82.22.22.53.33.93.33s.71-.11.93-.33c.22-.22.38-.49.48-.82.1-.32.16-.67.18-1.03.02-.37.03-.7.03-.99,0-.19,0-.41,0-.64,0-.23-.02-.47-.06-.7-.03-.23-.08-.46-.14-.68-.06-.22-.16-.42-.28-.58-.12-.17-.28-.3-.46-.41s-.41-.16-.68-.16-.49.05-.68.16-.34.24-.46.41c-.12.17-.21.36-.28.58-.06.22-.11.45-.14.68-.03.23-.05.47-.06.7,0,.23,0,.45,0,.64,0,.3,0,.63.03.99Z"/><path class="cls-8" d="m60.14,253.41c.01-.31.05-.61.11-.91.06-.3.14-.58.25-.84.11-.27.26-.5.46-.7.19-.2.44-.36.73-.48.29-.12.64-.18,1.05-.18s.76.06,1.05.18c.29.12.53.28.73.48.19.2.34.43.46.7s.2.55.26.84c.06.3.1.6.11.91s.02.61.02.9,0,.59-.02.9-.05.61-.11.91c-.06.3-.14.58-.26.84s-.26.49-.46.69c-.19.2-.43.36-.72.47-.29.11-.64.17-1.05.17s-.76-.06-1.05-.17c-.29-.12-.53-.27-.73-.47-.19-.2-.34-.43-.46-.69-.11-.26-.2-.54-.25-.84-.06-.3-.1-.6-.11-.91s-.02-.61-.02-.9,0-.59.02-.9Zm1,1.88c.02.37.08.71.18,1.03.1.32.26.59.48.82.22.22.53.33.93.33s.71-.11.93-.33c.22-.22.38-.49.48-.82.1-.32.16-.67.18-1.03.02-.37.03-.7.03-.99,0-.19,0-.41,0-.64,0-.23-.02-.47-.06-.7-.03-.23-.08-.46-.14-.68-.06-.22-.16-.42-.28-.58-.12-.17-.28-.3-.46-.41s-.41-.16-.68-.16-.49.05-.68.16-.34.24-.46.41c-.12.17-.21.36-.28.58-.06.22-.11.45-.14.68-.03.23-.05.47-.06.7,0,.23,0,.45,0,.64,0,.3,0,.63.03.99Z"/><path class="cls-8" d="m66.31,253.41c.01-.31.05-.61.11-.91.06-.3.14-.58.25-.84.11-.27.26-.5.46-.7.19-.2.44-.36.73-.48.29-.12.64-.18,1.05-.18s.76.06,1.05.18c.29.12.53.28.73.48.19.2.34.43.46.7s.2.55.26.84c.06.3.1.6.11.91s.02.61.02.9,0,.59-.02.9-.05.61-.11.91c-.06.3-.14.58-.26.84s-.26.49-.46.69c-.19.2-.43.36-.72.47-.29.11-.64.17-1.05.17s-.76-.06-1.05-.17c-.29-.12-.53-.27-.73-.47-.19-.2-.34-.43-.46-.69-.11-.26-.2-.54-.25-.84-.06-.3-.1-.6-.11-.91s-.02-.61-.02-.9,0-.59.02-.9Zm1,1.88c.02.37.08.71.18,1.03.1.32.26.59.48.82.22.22.53.33.93.33s.71-.11.93-.33c.22-.22.38-.49.48-.82.1-.32.16-.67.18-1.03.02-.37.03-.7.03-.99,0-.19,0-.41,0-.64,0-.23-.02-.47-.06-.7-.03-.23-.08-.46-.14-.68-.06-.22-.16-.42-.28-.58-.12-.17-.28-.3-.46-.41s-.41-.16-.68-.16-.49.05-.68.16-.34.24-.46.41c-.12.17-.21.36-.28.58-.06.22-.11.45-.14.68-.03.23-.05.47-.06.7,0,.23,0,.45,0,.64,0,.3,0,.63.03.99Z"/></g><g class="cls-12"><path class="cls-8" d="m20.02,191.7c.01-.31.05-.61.11-.91.06-.3.14-.58.25-.84.11-.27.26-.5.46-.7.19-.2.44-.36.73-.48.29-.12.64-.18,1.05-.18s.76.06,1.05.18c.29.12.53.28.73.48.19.2.34.43.46.7s.2.55.26.84c.06.3.1.6.11.91s.02.61.02.9,0,.59-.02.9-.05.61-.11.91c-.06.3-.14.58-.26.84s-.26.49-.46.69c-.19.2-.43.36-.72.47-.29.11-.64.17-1.05.17s-.76-.06-1.05-.17c-.29-.12-.53-.27-.73-.47-.19-.2-.34-.43-.46-.69-.11-.26-.2-.54-.25-.84-.06-.3-.1-.6-.11-.91s-.02-.61-.02-.9,0-.59.02-.9Zm1,1.88c.02.37.08.71.18,1.03.1.32.26.59.48.82.22.22.53.33.93.33s.71-.11.93-.33c.22-.22.38-.49.48-.82.1-.32.16-.67.18-1.03.02-.37.03-.7.03-.99,0-.19,0-.41,0-.64,0-.23-.02-.47-.06-.7-.03-.23-.08-.46-.14-.68-.06-.22-.16-.42-.28-.58-.12-.17-.28-.3-.46-.41s-.41-.16-.68-.16-.49.05-.68.16-.34.24-.46.41c-.12.17-.21.36-.28.58-.06.22-.11.45-.14.68-.03.23-.05.47-.06.7,0,.23,0,.45,0,.64,0,.3,0,.63.03.99Z"/><path class="cls-8" d="m27.86,195.23v1.23h-1.23v-1.23h1.23Z"/><path class="cls-8" d="m29.28,191.7c.01-.31.05-.61.11-.91.06-.3.14-.58.25-.84.11-.27.26-.5.46-.7.19-.2.44-.36.73-.48.29-.12.64-.18,1.05-.18s.76.06,1.05.18c.29.12.53.28.73.48.19.2.34.43.46.7s.2.55.26.84c.06.3.1.6.11.91s.02.61.02.9,0,.59-.02.9-.05.61-.11.91c-.06.3-.14.58-.26.84s-.26.49-.46.69c-.19.2-.43.36-.72.47-.29.11-.64.17-1.05.17s-.76-.06-1.05-.17c-.29-.12-.53-.27-.73-.47-.19-.2-.34-.43-.46-.69-.11-.26-.2-.54-.25-.84-.06-.3-.1-.6-.11-.91s-.02-.61-.02-.9,0-.59.02-.9Zm1,1.88c.02.37.08.71.18,1.03.1.32.26.59.48.82.22.22.53.33.93.33s.71-.11.93-.33c.22-.22.38-.49.48-.82.1-.32.16-.67.18-1.03.02-.37.03-.7.03-.99,0-.19,0-.41,0-.64,0-.23-.02-.47-.06-.7-.03-.23-.08-.46-.14-.68-.06-.22-.16-.42-.28-.58-.12-.17-.28-.3-.46-.41s-.41-.16-.68-.16-.49.05-.68.16-.34.24-.46.41c-.12.17-.21.36-.28.58-.06.22-.11.45-.14.68-.03.23-.05.47-.06.7,0,.23,0,.45,0,.64,0,.3,0,.63.03.99Z"/><path class="cls-8" d="m35.45,191.7c.01-.31.05-.61.11-.91.06-.3.14-.58.25-.84.11-.27.26-.5.46-.7.19-.2.44-.36.73-.48.29-.12.64-.18,1.05-.18s.76.06,1.05.18c.29.12.53.28.73.48.19.2.34.43.46.7s.2.55.26.84c.06.3.1.6.11.91s.02.61.02.9,0,.59-.02.9-.05.61-.11.91c-.06.3-.14.58-.26.84s-.26.49-.46.69c-.19.2-.43.36-.72.47-.29.11-.64.17-1.05.17s-.76-.06-1.05-.17c-.29-.12-.53-.27-.73-.47-.19-.2-.34-.43-.46-.69-.11-.26-.2-.54-.25-.84-.06-.3-.1-.6-.11-.91s-.02-.61-.02-.9,0-.59.02-.9Zm1,1.88c.02.37.08.71.18,1.03.1.32.26.59.48.82.22.22.53.33.93.33s.71-.11.93-.33c.22-.22.38-.49.48-.82.1-.32.16-.67.18-1.03.02-.37.03-.7.03-.99,0-.19,0-.41,0-.64,0-.23-.02-.47-.06-.7-.03-.23-.08-.46-.14-.68-.06-.22-.16-.42-.28-.58-.12-.17-.28-.3-.46-.41s-.41-.16-.68-.16-.49.05-.68.16-.34.24-.46.41c-.12.17-.21.36-.28.58-.06.22-.11.45-.14.68-.03.23-.05.47-.06.7,0,.23,0,.45,0,.64,0,.3,0,.63.03.99Z"/><path class="cls-8" d="m41.62,191.7c.01-.31.05-.61.11-.91.06-.3.14-.58.25-.84.11-.27.26-.5.46-.7.19-.2.44-.36.73-.48.29-.12.64-.18,1.05-.18s.76.06,1.05.18c.29.12.53.28.73.48.19.2.34.43.46.7s.2.55.26.84c.06.3.1.6.11.91s.02.61.02.9,0,.59-.02.9-.05.61-.11.91c-.06.3-.14.58-.26.84s-.26.49-.46.69c-.19.2-.43.36-.72.47-.29.11-.64.17-1.05.17s-.76-.06-1.05-.17c-.29-.12-.53-.27-.73-.47-.19-.2-.34-.43-.46-.69-.11-.26-.2-.54-.25-.84-.06-.3-.1-.6-.11-.91s-.02-.61-.02-.9,0-.59.02-.9Zm1,1.88c.02.37.08.71.18,1.03.1.32.26.59.48.82.22.22.53.33.93.33s.71-.11.93-.33c.22-.22.38-.49.48-.82.1-.32.16-.67.18-1.03.02-.37.03-.7.03-.99,0-.19,0-.41,0-.64,0-.23-.02-.47-.06-.7-.03-.23-.08-.46-.14-.68-.06-.22-.16-.42-.28-.58-.12-.17-.28-.3-.46-.41s-.41-.16-.68-.16-.49.05-.68.16-.34.24-.46.41c-.12.17-.21.36-.28.58-.06.22-.11.45-.14.68-.03.23-.05.47-.06.7,0,.23,0,.45,0,.64,0,.3,0,.63.03.99Z"/><path class="cls-8" d="m47.79,191.7c.01-.31.05-.61.11-.91.06-.3.14-.58.25-.84.11-.27.26-.5.46-.7.19-.2.44-.36.73-.48.29-.12.64-.18,1.05-.18s.76.06,1.05.18c.29.12.53.28.73.48.19.2.34.43.46.7s.2.55.26.84c.06.3.1.6.11.91s.02.61.02.9,0,.59-.02.9-.05.61-.11.91c-.06.3-.14.58-.26.84s-.26.49-.46.69c-.19.2-.43.36-.72.47-.29.11-.64.17-1.05.17s-.76-.06-1.05-.17c-.29-.12-.53-.27-.73-.47-.19-.2-.34-.43-.46-.69-.11-.26-.2-.54-.25-.84-.06-.3-.1-.6-.11-.91s-.02-.61-.02-.9,0-.59.02-.9Zm1,1.88c.02.37.08.71.18,1.03.1.32.26.59.48.82.22.22.53.33.93.33s.71-.11.93-.33c.22-.22.38-.49.48-.82.1-.32.16-.67.18-1.03.02-.37.03-.7.03-.99,0-.19,0-.41,0-.64,0-.23-.02-.47-.06-.7-.03-.23-.08-.46-.14-.68-.06-.22-.16-.42-.28-.58-.12-.17-.28-.3-.46-.41s-.41-.16-.68-.16-.49.05-.68.16-.34.24-.46.41c-.12.17-.21.36-.28.58-.06.22-.11.45-.14.68-.03.23-.05.47-.06.7,0,.23,0,.45,0,.64,0,.3,0,.63.03.99Z"/><path class="cls-8" d="m53.97,191.7c.01-.31.05-.61.11-.91.06-.3.14-.58.25-.84.11-.27.26-.5.46-.7.19-.2.44-.36.73-.48.29-.12.64-.18,1.05-.18s.76.06,1.05.18c.29.12.53.28.73.48.19.2.34.43.46.7s.2.55.26.84c.06.3.1.6.11.91s.02.61.02.9,0,.59-.02.9-.05.61-.11.91c-.06.3-.14.58-.26.84s-.26.49-.46.69c-.19.2-.43.36-.72.47-.29.11-.64.17-1.05.17s-.76-.06-1.05-.17c-.29-.12-.53-.27-.73-.47-.19-.2-.34-.43-.46-.69-.11-.26-.2-.54-.25-.84-.06-.3-.1-.6-.11-.91s-.02-.61-.02-.9,0-.59.02-.9Zm1,1.88c.02.37.08.71.18,1.03.1.32.26.59.48.82.22.22.53.33.93.33s.71-.11.93-.33c.22-.22.38-.49.48-.82.1-.32.16-.67.18-1.03.02-.37.03-.7.03-.99,0-.19,0-.41,0-.64,0-.23-.02-.47-.06-.7-.03-.23-.08-.46-.14-.68-.06-.22-.16-.42-.28-.58-.12-.17-.28-.3-.46-.41s-.41-.16-.68-.16-.49.05-.68.16-.34.24-.46.41c-.12.17-.21.36-.28.58-.06.22-.11.45-.14.68-.03.23-.05.47-.06.7,0,.23,0,.45,0,.64,0,.3,0,.63.03.99Z"/><path class="cls-8" d="m60.26,190.27c.1-.34.26-.63.48-.88s.49-.44.82-.58.7-.21,1.11-.21c.34,0,.66.05.96.15.3.1.56.24.78.43.22.19.4.42.53.71s.19.61.19.98c0,.35-.05.66-.16.92-.11.27-.25.51-.43.72-.18.21-.38.4-.61.57-.23.17-.47.33-.71.49-.24.15-.49.29-.73.44-.24.14-.47.3-.67.46-.2.16-.38.34-.52.53-.14.19-.24.4-.28.65h4.04v.83h-5.14c.04-.47.12-.86.25-1.19s.29-.62.49-.86c.2-.24.43-.46.68-.64s.51-.36.79-.52c.33-.21.63-.4.88-.57.25-.17.46-.35.63-.53.17-.18.29-.37.38-.58.08-.21.13-.45.13-.72,0-.21-.04-.41-.12-.58s-.19-.32-.33-.45c-.14-.13-.3-.22-.48-.29s-.38-.1-.59-.1c-.27,0-.51.06-.71.17-.2.11-.36.26-.48.45-.13.19-.22.39-.27.63-.06.23-.08.47-.07.71h-.94c-.02-.4.02-.77.12-1.11Z"/><path class="cls-8" d="m67.86,189.56l-.42,2.26.02.02c.17-.19.39-.33.66-.43s.54-.14.8-.14c.35,0,.68.06.99.17.31.11.58.28.81.51.23.23.41.51.54.84.13.34.2.73.2,1.18,0,.33-.06.66-.17.97-.12.32-.29.59-.52.84-.23.24-.52.44-.86.58-.34.14-.75.22-1.2.22-.34,0-.66-.05-.96-.15-.3-.1-.56-.24-.79-.43-.23-.19-.41-.42-.54-.7-.13-.28-.2-.6-.21-.96h.94c.01.2.06.39.15.56.08.17.2.33.34.46.14.13.31.23.51.3.2.07.41.11.65.11.22,0,.43-.04.64-.12.2-.08.38-.19.53-.35.15-.16.27-.35.36-.58.09-.23.13-.5.13-.82,0-.26-.04-.5-.13-.72-.09-.22-.21-.41-.36-.57s-.34-.28-.56-.37-.46-.13-.73-.13c-.31,0-.59.07-.83.21-.24.14-.45.32-.64.54l-.81-.04.73-4.08h3.88v.83h-3.17Z"/></g><g class="cls-11"><path class="cls-8" d="m20.02,129.99c.01-.31.05-.61.11-.91.06-.3.14-.58.25-.84.11-.27.26-.5.46-.7.19-.2.44-.36.73-.48.29-.12.64-.18,1.05-.18s.76.06,1.05.18c.29.12.53.28.73.48.19.2.34.43.46.7s.2.55.26.84c.06.3.1.6.11.91s.02.61.02.9,0,.59-.02.9-.05.61-.11.91c-.06.3-.14.58-.26.84s-.26.49-.46.69c-.19.2-.43.36-.72.47-.29.11-.64.17-1.05.17s-.76-.06-1.05-.17c-.29-.12-.53-.27-.73-.47-.19-.2-.34-.43-.46-.69-.11-.26-.2-.54-.25-.84-.06-.3-.1-.6-.11-.91s-.02-.61-.02-.9,0-.59.02-.9Zm1,1.88c.02.37.08.71.18,1.03.1.32.26.59.48.82.22.22.53.33.93.33s.71-.11.93-.33c.22-.22.38-.49.48-.82.1-.32.16-.67.18-1.03.02-.37.03-.7.03-.99,0-.19,0-.41,0-.64,0-.23-.02-.47-.06-.7-.03-.23-.08-.46-.14-.68-.06-.22-.16-.42-.28-.58-.12-.17-.28-.3-.46-.41s-.41-.16-.68-.16-.49.05-.68.16-.34.24-.46.41c-.12.17-.21.36-.28.58-.06.22-.11.45-.14.68-.03.23-.05.47-.06.7,0,.23,0,.45,0,.64,0,.3,0,.63.03.99Z"/><path class="cls-8" d="m27.86,133.52v1.23h-1.23v-1.23h1.23Z"/><path class="cls-8" d="m29.28,129.99c.01-.31.05-.61.11-.91.06-.3.14-.58.25-.84.11-.27.26-.5.46-.7.19-.2.44-.36.73-.48.29-.12.64-.18,1.05-.18s.76.06,1.05.18c.29.12.53.28.73.48.19.2.34.43.46.7s.2.55.26.84c.06.3.1.6.11.91s.02.61.02.9,0,.59-.02.9-.05.61-.11.91c-.06.3-.14.58-.26.84s-.26.49-.46.69c-.19.2-.43.36-.72.47-.29.11-.64.17-1.05.17s-.76-.06-1.05-.17c-.29-.12-.53-.27-.73-.47-.19-.2-.34-.43-.46-.69-.11-.26-.2-.54-.25-.84-.06-.3-.1-.6-.11-.91s-.02-.61-.02-.9,0-.59.02-.9Zm1,1.88c.02.37.08.71.18,1.03.1.32.26.59.48.82.22.22.53.33.93.33s.71-.11.93-.33c.22-.22.38-.49.48-.82.1-.32.16-.67.18-1.03.02-.37.03-.7.03-.99,0-.19,0-.41,0-.64,0-.23-.02-.47-.06-.7-.03-.23-.08-.46-.14-.68-.06-.22-.16-.42-.28-.58-.12-.17-.28-.3-.46-.41s-.41-.16-.68-.16-.49.05-.68.16-.34.24-.46.41c-.12.17-.21.36-.28.58-.06.22-.11.45-.14.68-.03.23-.05.47-.06.7,0,.23,0,.45,0,.64,0,.3,0,.63.03.99Z"/><path class="cls-8" d="m35.45,129.99c.01-.31.05-.61.11-.91.06-.3.14-.58.25-.84.11-.27.26-.5.46-.7.19-.2.44-.36.73-.48.29-.12.64-.18,1.05-.18s.76.06,1.05.18c.29.12.53.28.73.48.19.2.34.43.46.7s.2.55.26.84c.06.3.1.6.11.91s.02.61.02.9,0,.59-.02.9-.05.61-.11.91c-.06.3-.14.58-.26.84s-.26.49-.46.69c-.19.2-.43.36-.72.47-.29.11-.64.17-1.05.17s-.76-.06-1.05-.17c-.29-.12-.53-.27-.73-.47-.19-.2-.34-.43-.46-.69-.11-.26-.2-.54-.25-.84-.06-.3-.1-.6-.11-.91s-.02-.61-.02-.9,0-.59.02-.9Zm1,1.88c.02.37.08.71.18,1.03.1.32.26.59.48.82.22.22.53.33.93.33s.71-.11.93-.33c.22-.22.38-.49.48-.82.1-.32.16-.67.18-1.03.02-.37.03-.7.03-.99,0-.19,0-.41,0-.64,0-.23-.02-.47-.06-.7-.03-.23-.08-.46-.14-.68-.06-.22-.16-.42-.28-.58-.12-.17-.28-.3-.46-.41s-.41-.16-.68-.16-.49.05-.68.16-.34.24-.46.41c-.12.17-.21.36-.28.58-.06.22-.11.45-.14.68-.03.23-.05.47-.06.7,0,.23,0,.45,0,.64,0,.3,0,.63.03.99Z"/><path class="cls-8" d="m41.62,129.99c.01-.31.05-.61.11-.91.06-.3.14-.58.25-.84.11-.27.26-.5.46-.7.19-.2.44-.36.73-.48.29-.12.64-.18,1.05-.18s.76.06,1.05.18c.29.12.53.28.73.48.19.2.34.43.46.7s.2.55.26.84c.06.3.1.6.11.91s.02.61.02.9,0,.59-.02.9-.05.61-.11.91c-.06.3-.14.58-.26.84s-.26.49-.46.69c-.19.2-.43.36-.72.47-.29.11-.64.17-1.05.17s-.76-.06-1.05-.17c-.29-.12-.53-.27-.73-.47-.19-.2-.34-.43-.46-.69-.11-.26-.2-.54-.25-.84-.06-.3-.1-.6-.11-.91s-.02-.61-.02-.9,0-.59.02-.9Zm1,1.88c.02.37.08.71.18,1.03.1.32.26.59.48.82.22.22.53.33.93.33s.71-.11.93-.33c.22-.22.38-.49.48-.82.1-.32.16-.67.18-1.03.02-.37.03-.7.03-.99,0-.19,0-.41,0-.64,0-.23-.02-.47-.06-.7-.03-.23-.08-.46-.14-.68-.06-.22-.16-.42-.28-.58-.12-.17-.28-.3-.46-.41s-.41-.16-.68-.16-.49.05-.68.16-.34.24-.46.41c-.12.17-.21.36-.28.58-.06.22-.11.45-.14.68-.03.23-.05.47-.06.7,0,.23,0,.45,0,.64,0,.3,0,.63.03.99Z"/><path class="cls-8" d="m47.79,129.99c.01-.31.05-.61.11-.91.06-.3.14-.58.25-.84.11-.27.26-.5.46-.7.19-.2.44-.36.73-.48.29-.12.64-.18,1.05-.18s.76.06,1.05.18c.29.12.53.28.73.48.19.2.34.43.46.7s.2.55.26.84c.06.3.1.6.11.91s.02.61.02.9,0,.59-.02.9-.05.61-.11.91c-.06.3-.14.58-.26.84s-.26.49-.46.69c-.19.2-.43.36-.72.47-.29.11-.64.17-1.05.17s-.76-.06-1.05-.17c-.29-.12-.53-.27-.73-.47-.19-.2-.34-.43-.46-.69-.11-.26-.2-.54-.25-.84-.06-.3-.1-.6-.11-.91s-.02-.61-.02-.9,0-.59.02-.9Zm1,1.88c.02.37.08.71.18,1.03.1.32.26.59.48.82.22.22.53.33.93.33s.71-.11.93-.33c.22-.22.38-.49.48-.82.1-.32.16-.67.18-1.03.02-.37.03-.7.03-.99,0-.19,0-.41,0-.64,0-.23-.02-.47-.06-.7-.03-.23-.08-.46-.14-.68-.06-.22-.16-.42-.28-.58-.12-.17-.28-.3-.46-.41s-.41-.16-.68-.16-.49.05-.68.16-.34.24-.46.41c-.12.17-.21.36-.28.58-.06.22-.11.45-.14.68-.03.23-.05.47-.06.7,0,.23,0,.45,0,.64,0,.3,0,.63.03.99Z"/><path class="cls-8" d="m53.97,129.99c.01-.31.05-.61.11-.91.06-.3.14-.58.25-.84.11-.27.26-.5.46-.7.19-.2.44-.36.73-.48.29-.12.64-.18,1.05-.18s.76.06,1.05.18c.29.12.53.28.73.48.19.2.34.43.46.7s.2.55.26.84c.06.3.1.6.11.91s.02.61.02.9,0,.59-.02.9-.05.61-.11.91c-.06.3-.14.58-.26.84s-.26.49-.46.69c-.19.2-.43.36-.72.47-.29.11-.64.17-1.05.17s-.76-.06-1.05-.17c-.29-.12-.53-.27-.73-.47-.19-.2-.34-.43-.46-.69-.11-.26-.2-.54-.25-.84-.06-.3-.1-.6-.11-.91s-.02-.61-.02-.9,0-.59.02-.9Zm1,1.88c.02.37.08.71.18,1.03.1.32.26.59.48.82.22.22.53.33.93.33s.71-.11.93-.33c.22-.22.38-.49.48-.82.1-.32.16-.67.18-1.03.02-.37.03-.7.03-.99,0-.19,0-.41,0-.64,0-.23-.02-.47-.06-.7-.03-.23-.08-.46-.14-.68-.06-.22-.16-.42-.28-.58-.12-.17-.28-.3-.46-.41s-.41-.16-.68-.16-.49.05-.68.16-.34.24-.46.41c-.12.17-.21.36-.28.58-.06.22-.11.45-.14.68-.03.23-.05.47-.06.7,0,.23,0,.45,0,.64,0,.3,0,.63.03.99Z"/><path class="cls-8" d="m61.69,127.85l-.42,2.26.02.02c.17-.19.39-.33.66-.43s.54-.14.8-.14c.35,0,.68.06.99.17.31.11.58.28.81.51.23.23.41.51.54.84.13.34.2.73.2,1.18,0,.33-.06.66-.17.97-.12.32-.29.59-.52.84-.23.24-.52.44-.86.58-.34.14-.75.22-1.2.22-.34,0-.66-.05-.96-.15-.3-.1-.56-.24-.79-.43-.23-.19-.41-.42-.54-.7-.13-.28-.2-.6-.21-.96h.94c.01.2.06.39.15.56.08.17.2.33.34.46.14.13.31.23.51.3.2.07.41.11.65.11.22,0,.43-.04.64-.12.2-.08.38-.19.53-.35.15-.16.27-.35.36-.58.09-.23.13-.5.13-.82,0-.26-.04-.5-.13-.72-.09-.22-.21-.41-.36-.57s-.34-.28-.56-.37-.46-.13-.73-.13c-.31,0-.59.07-.83.21-.24.14-.45.32-.64.54l-.81-.04.73-4.08h3.88v.83h-3.17Z"/><path class="cls-8" d="m66.31,129.99c.01-.31.05-.61.11-.91.06-.3.14-.58.25-.84.11-.27.26-.5.46-.7.19-.2.44-.36.73-.48.29-.12.64-.18,1.05-.18s.76.06,1.05.18c.29.12.53.28.73.48.19.2.34.43.46.7s.2.55.26.84c.06.3.1.6.11.91s.02.61.02.9,0,.59-.02.9-.05.61-.11.91c-.06.3-.14.58-.26.84s-.26.49-.46.69c-.19.2-.43.36-.72.47-.29.11-.64.17-1.05.17s-.76-.06-1.05-.17c-.29-.12-.53-.27-.73-.47-.19-.2-.34-.43-.46-.69-.11-.26-.2-.54-.25-.84-.06-.3-.1-.6-.11-.91s-.02-.61-.02-.9,0-.59.02-.9Zm1,1.88c.02.37.08.71.18,1.03.1.32.26.59.48.82.22.22.53.33.93.33s.71-.11.93-.33c.22-.22.38-.49.48-.82.1-.32.16-.67.18-1.03.02-.37.03-.7.03-.99,0-.19,0-.41,0-.64,0-.23-.02-.47-.06-.7-.03-.23-.08-.46-.14-.68-.06-.22-.16-.42-.28-.58-.12-.17-.28-.3-.46-.41s-.41-.16-.68-.16-.49.05-.68.16-.34.24-.46.41c-.12.17-.21.36-.28.58-.06.22-.11.45-.14.68-.03.23-.05.47-.06.7,0,.23,0,.45,0,.64,0,.3,0,.63.03.99Z"/></g><g class="cls-10"><path class="cls-8" d="m20.02,68.28c.01-.31.05-.61.11-.91.06-.3.14-.58.25-.84.11-.27.26-.5.46-.7.19-.2.44-.36.73-.48.29-.12.64-.18,1.05-.18s.76.06,1.05.18c.29.12.53.28.73.48.19.2.34.43.46.7s.2.55.26.84c.06.3.1.6.11.91s.02.61.02.9,0,.59-.02.9-.05.61-.11.91c-.06.3-.14.58-.26.84s-.26.49-.46.69c-.19.2-.43.36-.72.47-.29.11-.64.17-1.05.17s-.76-.06-1.05-.17c-.29-.12-.53-.27-.73-.47-.19-.2-.34-.43-.46-.69-.11-.26-.2-.54-.25-.84-.06-.3-.1-.6-.11-.91s-.02-.61-.02-.9,0-.59.02-.9Zm1,1.88c.02.37.08.71.18,1.03.1.32.26.59.48.82.22.22.53.33.93.33s.71-.11.93-.33c.22-.22.38-.49.48-.82.1-.32.16-.67.18-1.03.02-.37.03-.7.03-.99,0-.19,0-.41,0-.64,0-.23-.02-.47-.06-.7-.03-.23-.08-.46-.14-.68-.06-.22-.16-.42-.28-.58-.12-.17-.28-.3-.46-.41s-.41-.16-.68-.16-.49.05-.68.16-.34.24-.46.41c-.12.17-.21.36-.28.58-.06.22-.11.45-.14.68-.03.23-.05.47-.06.7,0,.23,0,.45,0,.64,0,.3,0,.63.03.99Z"/><path class="cls-8" d="m27.86,71.81v1.23h-1.23v-1.23h1.23Z"/><path class="cls-8" d="m29.28,68.28c.01-.31.05-.61.11-.91.06-.3.14-.58.25-.84.11-.27.26-.5.46-.7.19-.2.44-.36.73-.48.29-.12.64-.18,1.05-.18s.76.06,1.05.18c.29.12.53.28.73.48.19.2.34.43.46.7s.2.55.26.84c.06.3.1.6.11.91s.02.61.02.9,0,.59-.02.9-.05.61-.11.91c-.06.3-.14.58-.26.84s-.26.49-.46.69c-.19.2-.43.36-.72.47-.29.11-.64.17-1.05.17s-.76-.06-1.05-.17c-.29-.12-.53-.27-.73-.47-.19-.2-.34-.43-.46-.69-.11-.26-.2-.54-.25-.84-.06-.3-.1-.6-.11-.91s-.02-.61-.02-.9,0-.59.02-.9Zm1,1.88c.02.37.08.71.18,1.03.1.32.26.59.48.82.22.22.53.33.93.33s.71-.11.93-.33c.22-.22.38-.49.48-.82.1-.32.16-.67.18-1.03.02-.37.03-.7.03-.99,0-.19,0-.41,0-.64,0-.23-.02-.47-.06-.7-.03-.23-.08-.46-.14-.68-.06-.22-.16-.42-.28-.58-.12-.17-.28-.3-.46-.41s-.41-.16-.68-.16-.49.05-.68.16-.34.24-.46.41c-.12.17-.21.36-.28.58-.06.22-.11.45-.14.68-.03.23-.05.47-.06.7,0,.23,0,.45,0,.64,0,.3,0,.63.03.99Z"/><path class="cls-8" d="m35.45,68.28c.01-.31.05-.61.11-.91.06-.3.14-.58.25-.84.11-.27.26-.5.46-.7.19-.2.44-.36.73-.48.29-.12.64-.18,1.05-.18s.76.06,1.05.18c.29.12.53.28.73.48.19.2.34.43.46.7s.2.55.26.84c.06.3.1.6.11.91s.02.61.02.9,0,.59-.02.9-.05.61-.11.91c-.06.3-.14.58-.26.84s-.26.49-.46.69c-.19.2-.43.36-.72.47-.29.11-.64.17-1.05.17s-.76-.06-1.05-.17c-.29-.12-.53-.27-.73-.47-.19-.2-.34-.43-.46-.69-.11-.26-.2-.54-.25-.84-.06-.3-.1-.6-.11-.91s-.02-.61-.02-.9,0-.59.02-.9Zm1,1.88c.02.37.08.71.18,1.03.1.32.26.59.48.82.22.22.53.33.93.33s.71-.11.93-.33c.22-.22.38-.49.48-.82.1-.32.16-.67.18-1.03.02-.37.03-.7.03-.99,0-.19,0-.41,0-.64,0-.23-.02-.47-.06-.7-.03-.23-.08-.46-.14-.68-.06-.22-.16-.42-.28-.58-.12-.17-.28-.3-.46-.41s-.41-.16-.68-.16-.49.05-.68.16-.34.24-.46.41c-.12.17-.21.36-.28.58-.06.22-.11.45-.14.68-.03.23-.05.47-.06.7,0,.23,0,.45,0,.64,0,.3,0,.63.03.99Z"/><path class="cls-8" d="m41.62,68.28c.01-.31.05-.61.11-.91.06-.3.14-.58.25-.84.11-.27.26-.5.46-.7.19-.2.44-.36.73-.48.29-.12.64-.18,1.05-.18s.76.06,1.05.18c.29.12.53.28.73.48.19.2.34.43.46.7s.2.55.26.84c.06.3.1.6.11.91s.02.61.02.9,0,.59-.02.9-.05.61-.11.91c-.06.3-.14.58-.26.84s-.26.49-.46.69c-.19.2-.43.36-.72.47-.29.11-.64.17-1.05.17s-.76-.06-1.05-.17c-.29-.12-.53-.27-.73-.47-.19-.2-.34-.43-.46-.69-.11-.26-.2-.54-.25-.84-.06-.3-.1-.6-.11-.91s-.02-.61-.02-.9,0-.59.02-.9Zm1,1.88c.02.37.08.71.18,1.03.1.32.26.59.48.82.22.22.53.33.93.33s.71-.11.93-.33c.22-.22.38-.49.48-.82.1-.32.16-.67.18-1.03.02-.37.03-.7.03-.99,0-.19,0-.41,0-.64,0-.23-.02-.47-.06-.7-.03-.23-.08-.46-.14-.68-.06-.22-.16-.42-.28-.58-.12-.17-.28-.3-.46-.41s-.41-.16-.68-.16-.49.05-.68.16-.34.24-.46.41c-.12.17-.21.36-.28.58-.06.22-.11.45-.14.68-.03.23-.05.47-.06.7,0,.23,0,.45,0,.64,0,.3,0,.63.03.99Z"/><path class="cls-8" d="m47.79,68.28c.01-.31.05-.61.11-.91.06-.3.14-.58.25-.84.11-.27.26-.5.46-.7.19-.2.44-.36.73-.48.29-.12.64-.18,1.05-.18s.76.06,1.05.18c.29.12.53.28.73.48.19.2.34.43.46.7s.2.55.26.84c.06.3.1.6.11.91s.02.61.02.9,0,.59-.02.9-.05.61-.11.91c-.06.3-.14.58-.26.84s-.26.49-.46.69c-.19.2-.43.36-.72.47-.29.11-.64.17-1.05.17s-.76-.06-1.05-.17c-.29-.12-.53-.27-.73-.47-.19-.2-.34-.43-.46-.69-.11-.26-.2-.54-.25-.84-.06-.3-.1-.6-.11-.91s-.02-.61-.02-.9,0-.59.02-.9Zm1,1.88c.02.37.08.71.18,1.03.1.32.26.59.48.82.22.22.53.33.93.33s.71-.11.93-.33c.22-.22.38-.49.48-.82.1-.32.16-.67.18-1.03.02-.37.03-.7.03-.99,0-.19,0-.41,0-.64,0-.23-.02-.47-.06-.7-.03-.23-.08-.46-.14-.68-.06-.22-.16-.42-.28-.58-.12-.17-.28-.3-.46-.41s-.41-.16-.68-.16-.49.05-.68.16-.34.24-.46.41c-.12.17-.21.36-.28.58-.06.22-.11.45-.14.68-.03.23-.05.47-.06.7,0,.23,0,.45,0,.64,0,.3,0,.63.03.99Z"/><path class="cls-8" d="m53.97,68.28c.01-.31.05-.61.11-.91.06-.3.14-.58.25-.84.11-.27.26-.5.46-.7.19-.2.44-.36.73-.48.29-.12.64-.18,1.05-.18s.76.06,1.05.18c.29.12.53.28.73.48.19.2.34.43.46.7s.2.55.26.84c.06.3.1.6.11.91s.02.61.02.9,0,.59-.02.9-.05.61-.11.91c-.06.3-.14.58-.26.84s-.26.49-.46.69c-.19.2-.43.36-.72.47-.29.11-.64.17-1.05.17s-.76-.06-1.05-.17c-.29-.12-.53-.27-.73-.47-.19-.2-.34-.43-.46-.69-.11-.26-.2-.54-.25-.84-.06-.3-.1-.6-.11-.91s-.02-.61-.02-.9,0-.59.02-.9Zm1,1.88c.02.37.08.71.18,1.03.1.32.26.59.48.82.22.22.53.33.93.33s.71-.11.93-.33c.22-.22.38-.49.48-.82.1-.32.16-.67.18-1.03.02-.37.03-.7.03-.99,0-.19,0-.41,0-.64,0-.23-.02-.47-.06-.7-.03-.23-.08-.46-.14-.68-.06-.22-.16-.42-.28-.58-.12-.17-.28-.3-.46-.41s-.41-.16-.68-.16-.49.05-.68.16-.34.24-.46.41c-.12.17-.21.36-.28.58-.06.22-.11.45-.14.68-.03.23-.05.47-.06.7,0,.23,0,.45,0,.64,0,.3,0,.63.03.99Z"/><path class="cls-8" d="m64.18,67.51c-.35.54-.66,1.12-.93,1.73-.27.61-.49,1.25-.66,1.9-.17.65-.27,1.28-.31,1.9h-1.05c.04-.67.15-1.32.33-1.95.17-.63.4-1.24.67-1.82s.59-1.13.95-1.65c.36-.52.75-1,1.16-1.43h-4.13v-.89h5.09v.81c-.4.39-.77.86-1.12,1.4Z"/><path class="cls-8" d="m67.86,66.13l-.42,2.26.02.02c.17-.19.39-.33.66-.43s.54-.14.8-.14c.35,0,.68.06.99.17.31.11.58.28.81.51.23.23.41.51.54.84.13.34.2.73.2,1.18,0,.33-.06.66-.17.97-.12.32-.29.59-.52.84-.23.24-.52.44-.86.58-.34.14-.75.22-1.2.22-.34,0-.66-.05-.96-.15-.3-.1-.56-.24-.79-.43-.23-.19-.41-.42-.54-.7-.13-.28-.2-.6-.21-.96h.94c.01.2.06.39.15.56.08.17.2.33.34.46.14.13.31.23.51.3.2.07.41.11.65.11.22,0,.43-.04.64-.12.2-.08.38-.19.53-.35.15-.16.27-.35.36-.58.09-.23.13-.5.13-.82,0-.26-.04-.5-.13-.72-.09-.22-.21-.41-.36-.57s-.34-.28-.56-.37-.46-.13-.73-.13c-.31,0-.59.07-.83.21-.24.14-.45.32-.64.54l-.81-.04.73-4.08h3.88v.83h-3.17Z"/></g><g class="cls-16"><path class="cls-8" d="m20.02,6.56c.01-.31.05-.61.11-.91.06-.3.14-.58.25-.84.11-.27.26-.5.46-.7.19-.2.44-.36.73-.48.29-.12.64-.18,1.05-.18s.76.06,1.05.18c.29.12.53.28.73.48.19.2.34.43.46.7s.2.55.26.84c.06.3.1.6.11.91s.02.61.02.9,0,.59-.02.9-.05.61-.11.91c-.06.3-.14.58-.26.84s-.26.49-.46.69c-.19.2-.43.36-.72.47-.29.11-.64.17-1.05.17s-.76-.06-1.05-.17c-.29-.12-.53-.27-.73-.47-.19-.2-.34-.43-.46-.69-.11-.26-.2-.54-.25-.84-.06-.3-.1-.6-.11-.91s-.02-.61-.02-.9,0-.59.02-.9Zm1,1.88c.02.37.08.71.18,1.03.1.32.26.59.48.82.22.22.53.33.93.33s.71-.11.93-.33c.22-.22.38-.49.48-.82.1-.32.16-.67.18-1.03.02-.37.03-.7.03-.99,0-.19,0-.41,0-.64,0-.23-.02-.47-.06-.7-.03-.23-.08-.46-.14-.68-.06-.22-.16-.42-.28-.58-.12-.17-.28-.3-.46-.41s-.41-.16-.68-.16-.49.05-.68.16-.34.24-.46.41c-.12.17-.21.36-.28.58-.06.22-.11.45-.14.68-.03.23-.05.47-.06.7,0,.23,0,.45,0,.64,0,.3,0,.63.03.99Z"/><path class="cls-8" d="m27.86,10.09v1.23h-1.23v-1.23h1.23Z"/><path class="cls-8" d="m29.28,6.56c.01-.31.05-.61.11-.91.06-.3.14-.58.25-.84.11-.27.26-.5.46-.7.19-.2.44-.36.73-.48.29-.12.64-.18,1.05-.18s.76.06,1.05.18c.29.12.53.28.73.48.19.2.34.43.46.7s.2.55.26.84c.06.3.1.6.11.91s.02.61.02.9,0,.59-.02.9-.05.61-.11.91c-.06.3-.14.58-.26.84s-.26.49-.46.69c-.19.2-.43.36-.72.47-.29.11-.64.17-1.05.17s-.76-.06-1.05-.17c-.29-.12-.53-.27-.73-.47-.19-.2-.34-.43-.46-.69-.11-.26-.2-.54-.25-.84-.06-.3-.1-.6-.11-.91s-.02-.61-.02-.9,0-.59.02-.9Zm1,1.88c.02.37.08.71.18,1.03.1.32.26.59.48.82.22.22.53.33.93.33s.71-.11.93-.33c.22-.22.38-.49.48-.82.1-.32.16-.67.18-1.03.02-.37.03-.7.03-.99,0-.19,0-.41,0-.64,0-.23-.02-.47-.06-.7-.03-.23-.08-.46-.14-.68-.06-.22-.16-.42-.28-.58-.12-.17-.28-.3-.46-.41s-.41-.16-.68-.16-.49.05-.68.16-.34.24-.46.41c-.12.17-.21.36-.28.58-.06.22-.11.45-.14.68-.03.23-.05.47-.06.7,0,.23,0,.45,0,.64,0,.3,0,.63.03.99Z"/><path class="cls-8" d="m35.45,6.56c.01-.31.05-.61.11-.91.06-.3.14-.58.25-.84.11-.27.26-.5.46-.7.19-.2.44-.36.73-.48.29-.12.64-.18,1.05-.18s.76.06,1.05.18c.29.12.53.28.73.48.19.2.34.43.46.7s.2.55.26.84c.06.3.1.6.11.91s.02.61.02.9,0,.59-.02.9-.05.61-.11.91c-.06.3-.14.58-.26.84s-.26.49-.46.69c-.19.2-.43.36-.72.47-.29.11-.64.17-1.05.17s-.76-.06-1.05-.17c-.29-.12-.53-.27-.73-.47-.19-.2-.34-.43-.46-.69-.11-.26-.2-.54-.25-.84-.06-.3-.1-.6-.11-.91s-.02-.61-.02-.9,0-.59.02-.9Zm1,1.88c.02.37.08.71.18,1.03.1.32.26.59.48.82.22.22.53.33.93.33s.71-.11.93-.33c.22-.22.38-.49.48-.82.1-.32.16-.67.18-1.03.02-.37.03-.7.03-.99,0-.19,0-.41,0-.64,0-.23-.02-.47-.06-.7-.03-.23-.08-.46-.14-.68-.06-.22-.16-.42-.28-.58-.12-.17-.28-.3-.46-.41s-.41-.16-.68-.16-.49.05-.68.16-.34.24-.46.41c-.12.17-.21.36-.28.58-.06.22-.11.45-.14.68-.03.23-.05.47-.06.7,0,.23,0,.45,0,.64,0,.3,0,.63.03.99Z"/><path class="cls-8" d="m41.62,6.56c.01-.31.05-.61.11-.91.06-.3.14-.58.25-.84.11-.27.26-.5.46-.7.19-.2.44-.36.73-.48.29-.12.64-.18,1.05-.18s.76.06,1.05.18c.29.12.53.28.73.48.19.2.34.43.46.7s.2.55.26.84c.06.3.1.6.11.91s.02.61.02.9,0,.59-.02.9-.05.61-.11.91c-.06.3-.14.58-.26.84s-.26.49-.46.69c-.19.2-.43.36-.72.47-.29.11-.64.17-1.05.17s-.76-.06-1.05-.17c-.29-.12-.53-.27-.73-.47-.19-.2-.34-.43-.46-.69-.11-.26-.2-.54-.25-.84-.06-.3-.1-.6-.11-.91s-.02-.61-.02-.9,0-.59.02-.9Zm1,1.88c.02.37.08.71.18,1.03.1.32.26.59.48.82.22.22.53.33.93.33s.71-.11.93-.33c.22-.22.38-.49.48-.82.1-.32.16-.67.18-1.03.02-.37.03-.7.03-.99,0-.19,0-.41,0-.64,0-.23-.02-.47-.06-.7-.03-.23-.08-.46-.14-.68-.06-.22-.16-.42-.28-.58-.12-.17-.28-.3-.46-.41s-.41-.16-.68-.16-.49.05-.68.16-.34.24-.46.41c-.12.17-.21.36-.28.58-.06.22-.11.45-.14.68-.03.23-.05.47-.06.7,0,.23,0,.45,0,.64,0,.3,0,.63.03.99Z"/><path class="cls-8" d="m47.79,6.56c.01-.31.05-.61.11-.91.06-.3.14-.58.25-.84.11-.27.26-.5.46-.7.19-.2.44-.36.73-.48.29-.12.64-.18,1.05-.18s.76.06,1.05.18c.29.12.53.28.73.48.19.2.34.43.46.7s.2.55.26.84c.06.3.1.6.11.91s.02.61.02.9,0,.59-.02.9-.05.61-.11.91c-.06.3-.14.58-.26.84s-.26.49-.46.69c-.19.2-.43.36-.72.47-.29.11-.64.17-1.05.17s-.76-.06-1.05-.17c-.29-.12-.53-.27-.73-.47-.19-.2-.34-.43-.46-.69-.11-.26-.2-.54-.25-.84-.06-.3-.1-.6-.11-.91s-.02-.61-.02-.9,0-.59.02-.9Zm1,1.88c.02.37.08.71.18,1.03.1.32.26.59.48.82.22.22.53.33.93.33s.71-.11.93-.33c.22-.22.38-.49.48-.82.1-.32.16-.67.18-1.03.02-.37.03-.7.03-.99,0-.19,0-.41,0-.64,0-.23-.02-.47-.06-.7-.03-.23-.08-.46-.14-.68-.06-.22-.16-.42-.28-.58-.12-.17-.28-.3-.46-.41s-.41-.16-.68-.16-.49.05-.68.16-.34.24-.46.41c-.12.17-.21.36-.28.58-.06.22-.11.45-.14.68-.03.23-.05.47-.06.7,0,.23,0,.45,0,.64,0,.3,0,.63.03.99Z"/><path class="cls-8" d="m56.49,11.32v-5.64h-2.04v-.75c.27,0,.53-.02.78-.06.25-.04.48-.12.68-.23.2-.11.38-.26.52-.46.14-.19.24-.44.29-.73h.72v7.87h-.94Z"/><path class="cls-8" d="m60.14,6.56c.01-.31.05-.61.11-.91.06-.3.14-.58.25-.84.11-.27.26-.5.46-.7.19-.2.44-.36.73-.48.29-.12.64-.18,1.05-.18s.76.06,1.05.18c.29.12.53.28.73.48.19.2.34.43.46.7s.2.55.26.84c.06.3.1.6.11.91s.02.61.02.9,0,.59-.02.9-.05.61-.11.91c-.06.3-.14.58-.26.84s-.26.49-.46.69c-.19.2-.43.36-.72.47-.29.11-.64.17-1.05.17s-.76-.06-1.05-.17c-.29-.12-.53-.27-.73-.47-.19-.2-.34-.43-.46-.69-.11-.26-.2-.54-.25-.84-.06-.3-.1-.6-.11-.91s-.02-.61-.02-.9,0-.59.02-.9Zm1,1.88c.02.37.08.71.18,1.03.1.32.26.59.48.82.22.22.53.33.93.33s.71-.11.93-.33c.22-.22.38-.49.48-.82.1-.32.16-.67.18-1.03.02-.37.03-.7.03-.99,0-.19,0-.41,0-.64,0-.23-.02-.47-.06-.7-.03-.23-.08-.46-.14-.68-.06-.22-.16-.42-.28-.58-.12-.17-.28-.3-.46-.41s-.41-.16-.68-.16-.49.05-.68.16-.34.24-.46.41c-.12.17-.21.36-.28.58-.06.22-.11.45-.14.68-.03.23-.05.47-.06.7,0,.23,0,.45,0,.64,0,.3,0,.63.03.99Z"/><path class="cls-8" d="m66.31,6.56c.01-.31.05-.61.11-.91.06-.3.14-.58.25-.84.11-.27.26-.5.46-.7.19-.2.44-.36.73-.48.29-.12.64-.18,1.05-.18s.76.06,1.05.18c.29.12.53.28.73.48.19.2.34.43.46.7s.2.55.26.84c.06.3.1.6.11.91s.02.61.02.9,0,.59-.02.9-.05.61-.11.91c-.06.3-.14.58-.26.84s-.26.49-.46.69c-.19.2-.43.36-.72.47-.29.11-.64.17-1.05.17s-.76-.06-1.05-.17c-.29-.12-.53-.27-.73-.47-.19-.2-.34-.43-.46-.69-.11-.26-.2-.54-.25-.84-.06-.3-.1-.6-.11-.91s-.02-.61-.02-.9,0-.59.02-.9Zm1,1.88c.02.37.08.71.18,1.03.1.32.26.59.48.82.22.22.53.33.93.33s.71-.11.93-.33c.22-.22.38-.49.48-.82.1-.32.16-.67.18-1.03.02-.37.03-.7.03-.99,0-.19,0-.41,0-.64,0-.23-.02-.47-.06-.7-.03-.23-.08-.46-.14-.68-.06-.22-.16-.42-.28-.58-.12-.17-.28-.3-.46-.41s-.41-.16-.68-.16-.49.05-.68.16-.34.24-.46.41c-.12.17-.21.36-.28.58-.06.22-.11.45-.14.68-.03.23-.05.47-.06.7,0,.23,0,.45,0,.64,0,.3,0,.63.03.99Z"/></g><line class="cls-3" x1="86.5" y1="254.38" x2="537.5" y2="254.38"/><g class="cls-15"><path class="cls-8" d="m290.93,280.59v7.93h-1.05v-7.93h1.05Z"/><path class="cls-8" d="m295,282.78v.83h-1.14v3.56c0,.11,0,.2.03.27.02.07.05.12.11.16s.12.06.22.07c.09.01.21.02.36.02h.43v.83h-.72c-.24,0-.45-.02-.63-.05s-.31-.09-.42-.18c-.11-.09-.19-.21-.24-.38s-.08-.38-.08-.64v-3.65h-.98v-.83h.98v-1.72h.94v1.72h1.14Z"/><path class="cls-8" d="m300.11,288.15c-.43.33-.97.49-1.62.49-.46,0-.86-.07-1.19-.22-.34-.15-.62-.36-.85-.62s-.4-.58-.52-.95-.18-.77-.19-1.21c0-.44.07-.84.2-1.2.13-.36.32-.68.56-.94.24-.27.52-.47.85-.62.33-.15.69-.22,1.08-.22.51,0,.93.11,1.27.32.34.21.61.48.81.8.2.33.34.68.42,1.07s.11.75.09,1.1h-4.3c0,.25.02.49.09.72.07.23.17.43.32.6s.34.31.57.42c.23.1.5.16.81.16.4,0,.73-.09.98-.28.26-.19.42-.47.51-.84h.93c-.13.64-.4,1.13-.83,1.45Zm-.23-3.69c-.08-.2-.2-.37-.34-.52-.14-.14-.31-.26-.51-.34-.2-.08-.41-.13-.65-.13s-.46.04-.66.13c-.2.09-.36.2-.5.35-.14.15-.25.32-.33.52-.08.2-.13.41-.14.63h3.3c-.02-.22-.06-.43-.15-.63Z"/><path class="cls-8" d="m302.86,282.78v1.21h.02c.23-.47.51-.81.84-1.03.33-.22.75-.33,1.27-.31v1c-.38,0-.7.05-.97.16-.27.1-.48.26-.64.46-.16.2-.28.44-.36.73-.07.29-.11.61-.11.98v2.55h-.94v-5.74h.89Z"/><path class="cls-8" d="m310.78,288.5c-.16.1-.39.14-.68.14-.24,0-.44-.07-.58-.21-.14-.14-.22-.36-.22-.67-.26.31-.56.54-.9.67-.34.14-.72.21-1.12.21-.26,0-.51-.03-.74-.09-.23-.06-.44-.15-.6-.28-.17-.13-.31-.29-.41-.49-.1-.2-.15-.45-.15-.74,0-.33.06-.59.17-.8.11-.21.26-.38.44-.5.18-.13.39-.23.62-.29.23-.07.47-.12.72-.17.26-.05.5-.09.74-.12.23-.03.44-.06.62-.11s.32-.12.42-.21c.1-.09.16-.23.16-.41,0-.21-.04-.37-.12-.5-.08-.13-.18-.22-.3-.29s-.26-.11-.41-.13c-.15-.02-.3-.03-.45-.03-.4,0-.73.08-1,.23-.27.15-.41.44-.43.86h-.94c.01-.36.09-.66.22-.9.13-.24.31-.44.53-.59s.48-.26.76-.33c.28-.07.59-.1.92-.1.26,0,.52.02.77.06.26.04.49.11.69.23.21.12.37.28.5.48s.19.48.19.81v2.95c0,.22.01.38.04.49s.11.16.26.16c.08,0,.18-.02.29-.04v.73Zm-1.53-2.94c-.12.09-.27.15-.47.19-.19.04-.39.07-.6.1s-.42.06-.64.09c-.21.03-.41.09-.58.16-.17.07-.31.18-.42.32-.11.14-.16.32-.16.56,0,.15.03.29.09.39.06.11.14.19.24.26.1.07.22.11.35.14.13.03.27.04.42.04.31,0,.58-.04.8-.13.22-.08.4-.19.54-.32.14-.13.24-.27.31-.42.07-.15.1-.29.1-.43v-.96Z"/><path class="cls-8" d="m314.11,282.78v.83h-1.14v3.56c0,.11,0,.2.03.27.02.07.05.12.11.16s.12.06.22.07c.09.01.21.02.36.02h.43v.83h-.72c-.24,0-.45-.02-.63-.05s-.31-.09-.42-.18c-.11-.09-.19-.21-.24-.38s-.08-.38-.08-.64v-3.65h-.98v-.83h.98v-1.72h.94v1.72h1.14Z"/><path class="cls-8" d="m315.21,281.75v-1.15h.94v1.15h-.94Zm.94,1.03v5.74h-.94v-5.74h.94Z"/><path class="cls-8" d="m317.49,284.47c.12-.37.3-.68.53-.96.24-.27.53-.48.88-.64s.75-.23,1.2-.23.86.08,1.2.23.63.37.87.64c.24.27.41.59.53.96.12.37.18.76.18,1.18s-.06.81-.18,1.18c-.12.36-.3.68-.53.95-.24.27-.53.48-.87.63s-.75.23-1.2.23-.85-.08-1.2-.23-.64-.36-.88-.63c-.24-.27-.41-.59-.53-.95-.12-.36-.18-.75-.18-1.18s.06-.82.18-1.18Zm.96,2.11c.09.27.22.5.38.68.16.18.35.32.57.42.22.1.45.14.69.14s.48-.05.69-.14c.22-.1.41-.23.57-.42.16-.18.29-.41.38-.68.09-.27.14-.58.14-.93s-.05-.66-.14-.93c-.09-.27-.22-.5-.38-.68-.16-.18-.35-.33-.57-.42-.22-.1-.45-.14-.69-.14s-.48.05-.69.14c-.22.1-.41.24-.57.42-.16.19-.29.41-.38.68-.09.27-.14.58-.14.93s.05.66.14.93Z"/><path class="cls-8" d="m324.88,282.78v.91h.02c.39-.7,1.01-1.04,1.86-1.04.38,0,.69.05.94.16.25.1.46.25.61.43.16.18.26.4.33.66.06.25.09.54.09.85v3.77h-.94v-3.88c0-.36-.1-.64-.31-.84-.21-.21-.49-.31-.85-.31-.29,0-.54.04-.75.13s-.39.21-.53.38c-.14.16-.25.35-.32.57-.07.22-.11.46-.11.72v3.24h-.94v-5.74h.89Z"/><path class="cls-8" d="m330.89,287.24c.09.14.21.26.35.34.14.08.31.15.49.18.18.04.37.06.56.06.15,0,.3-.01.47-.03.16-.02.31-.06.45-.12.14-.06.25-.15.34-.26.09-.12.13-.26.13-.44,0-.24-.09-.43-.28-.56-.19-.12-.42-.23-.69-.3-.28-.08-.58-.15-.9-.21-.33-.06-.63-.15-.9-.27-.28-.11-.51-.28-.69-.48s-.28-.5-.28-.87c0-.29.06-.54.19-.74.13-.21.3-.38.5-.5.2-.13.43-.23.69-.29.26-.06.51-.09.76-.09.33,0,.63.03.9.08.27.06.52.15.73.29.21.14.38.32.5.55.13.23.2.52.22.87h-.94c-.01-.19-.06-.34-.14-.46-.08-.12-.19-.22-.31-.29-.13-.07-.26-.13-.42-.16-.15-.03-.31-.05-.46-.05-.14,0-.28.01-.43.03-.14.02-.28.06-.39.12s-.21.13-.29.22c-.07.09-.11.21-.11.36,0,.16.06.3.17.41s.26.2.44.27.38.13.6.18c.22.05.44.1.67.15.24.05.47.11.69.19s.43.17.6.29.31.28.42.46c.11.18.16.41.16.69,0,.35-.07.64-.22.87-.14.23-.33.42-.57.56-.23.14-.5.24-.79.29-.29.06-.58.08-.87.08-.32,0-.62-.03-.91-.1s-.54-.18-.77-.33c-.22-.15-.4-.35-.53-.6-.13-.25-.21-.55-.22-.91h.94c0,.21.06.38.14.53Z"/></g><g class="cls-13"><path class="cls-8" d="m86.38,269.49v-5.64h-2.04v-.75c.27,0,.53-.02.78-.06.25-.04.48-.12.68-.23.2-.11.38-.26.52-.46.14-.19.24-.44.29-.73h.72v7.87h-.94Z"/></g><g class="cls-14"><path class="cls-8" d="m151.12,265h.31c.2,0,.39-.03.57-.08.18-.06.34-.14.48-.24s.25-.24.33-.41c.08-.16.12-.35.12-.56,0-.42-.13-.74-.4-.95-.27-.21-.6-.32-1-.32-.25,0-.47.05-.66.14-.19.09-.34.22-.47.37-.12.16-.21.34-.27.54-.06.21-.09.42-.09.65h-.94c.01-.38.08-.72.18-1.03s.26-.58.46-.8c.2-.22.45-.4.75-.52.3-.12.65-.19,1.04-.19.34,0,.66.04.95.13s.55.21.76.38c.21.17.38.39.51.66.12.27.18.58.18.94s-.1.67-.31.94-.47.48-.78.62v.02c.48.1.84.33,1.07.68.23.35.35.76.35,1.23,0,.39-.07.74-.22,1.04-.14.3-.34.55-.58.75-.24.2-.53.35-.86.45-.33.1-.68.15-1.05.15-.4,0-.76-.06-1.09-.17-.33-.11-.6-.28-.83-.49-.23-.22-.41-.49-.53-.8s-.18-.68-.17-1.09h.94c.01.51.16.93.44,1.25.28.32.69.48,1.23.48.23,0,.45-.04.65-.11s.39-.17.54-.3c.16-.13.28-.29.37-.48.09-.19.14-.4.14-.64s-.04-.46-.13-.65-.21-.35-.35-.48c-.15-.13-.32-.23-.53-.29-.2-.06-.42-.09-.66-.09-.2,0-.39.01-.57.03v-.8s.07.01.1.01Z"/><path class="cls-8" d="m158.96,262.77c-.23-.21-.53-.32-.91-.32-.4,0-.72.1-.97.29-.24.2-.43.44-.57.74-.14.3-.23.62-.28.97s-.08.67-.09.98l.02.02c.22-.36.5-.62.83-.79s.71-.24,1.14-.24c.38,0,.72.06,1.02.19.3.13.55.31.75.54s.36.5.47.81c.11.31.17.65.17,1.01,0,.29-.04.59-.13.9-.09.31-.24.59-.44.85-.2.26-.47.47-.81.63-.34.17-.75.25-1.25.25-.58,0-1.05-.12-1.41-.36-.36-.24-.63-.54-.82-.91s-.32-.78-.38-1.22-.09-.87-.09-1.29c0-.54.05-1.06.14-1.57.09-.51.25-.96.47-1.35.22-.39.52-.71.89-.94.37-.24.84-.36,1.4-.36.65,0,1.17.17,1.55.52.38.34.61.84.67,1.49h-.94c-.04-.36-.18-.64-.41-.86Zm-1.71,2.62c-.2.09-.37.22-.51.38-.14.16-.25.35-.32.57-.07.22-.11.45-.11.69s.04.47.11.69c.07.21.18.4.32.55.14.16.31.28.51.37.2.09.43.14.69.14s.49-.05.68-.14c.2-.09.36-.22.49-.38.13-.16.23-.35.31-.56s.11-.43.11-.66c0-.24-.03-.47-.09-.69-.06-.22-.16-.41-.29-.57s-.3-.29-.5-.38c-.2-.1-.43-.14-.7-.14s-.5.05-.7.14Z"/><path class="cls-8" d="m161.43,264.72c.01-.31.05-.61.11-.91.06-.3.14-.58.25-.84.11-.27.26-.5.46-.7.19-.2.44-.36.73-.48.29-.12.64-.18,1.05-.18s.76.06,1.05.18c.29.12.53.28.73.48.19.2.34.43.46.7s.2.55.26.84c.06.3.1.6.11.91s.02.61.02.9,0,.59-.02.9-.05.61-.11.91c-.06.3-.14.58-.26.84s-.26.49-.46.69c-.19.2-.43.36-.72.47-.29.11-.64.17-1.05.17s-.76-.06-1.05-.17c-.29-.12-.53-.27-.73-.47-.19-.2-.34-.43-.46-.69-.11-.26-.2-.54-.25-.84-.06-.3-.1-.6-.11-.91s-.02-.61-.02-.9,0-.59.02-.9Zm1,1.88c.02.37.08.71.18,1.03.1.32.26.59.48.82.22.22.53.33.93.33s.71-.11.93-.33c.22-.22.38-.49.48-.82.1-.32.16-.67.18-1.03.02-.37.03-.7.03-.99,0-.19,0-.41,0-.64,0-.23-.02-.47-.06-.7-.03-.23-.08-.46-.14-.68-.06-.22-.16-.42-.28-.58-.12-.17-.28-.3-.46-.41s-.41-.16-.68-.16-.49.05-.68.16-.34.24-.46.41c-.12.17-.21.36-.28.58-.06.22-.11.45-.14.68-.03.23-.05.47-.06.7,0,.23,0,.45,0,.64,0,.3,0,.63.03.99Z"/><path class="cls-8" d="m167.6,264.72c.01-.31.05-.61.11-.91.06-.3.14-.58.25-.84.11-.27.26-.5.46-.7.19-.2.44-.36.73-.48.29-.12.64-.18,1.05-.18s.76.06,1.05.18c.29.12.53.28.73.48.19.2.34.43.46.7s.2.55.26.84c.06.3.1.6.11.91s.02.61.02.9,0,.59-.02.9-.05.61-.11.91c-.06.3-.14.58-.26.84s-.26.49-.46.69c-.19.2-.43.36-.72.47-.29.11-.64.17-1.05.17s-.76-.06-1.05-.17c-.29-.12-.53-.27-.73-.47-.19-.2-.34-.43-.46-.69-.11-.26-.2-.54-.25-.84-.06-.3-.1-.6-.11-.91s-.02-.61-.02-.9,0-.59.02-.9Zm1,1.88c.02.37.08.71.18,1.03.1.32.26.59.48.82.22.22.53.33.93.33s.71-.11.93-.33c.22-.22.38-.49.48-.82.1-.32.16-.67.18-1.03.02-.37.03-.7.03-.99,0-.19,0-.41,0-.64,0-.23-.02-.47-.06-.7-.03-.23-.08-.46-.14-.68-.06-.22-.16-.42-.28-.58-.12-.17-.28-.3-.46-.41s-.41-.16-.68-.16-.49.05-.68.16-.34.24-.46.41c-.12.17-.21.36-.28.58-.06.22-.11.45-.14.68-.03.23-.05.47-.06.7,0,.23,0,.45,0,.64,0,.3,0,.63.03.99Z"/></g><g class="cls-17"><path class="cls-8" d="m227.61,263.96c-.35.54-.66,1.12-.93,1.73-.27.61-.49,1.25-.66,1.9-.17.65-.27,1.28-.31,1.9h-1.05c.04-.67.15-1.32.33-1.95.17-.63.4-1.24.67-1.82s.59-1.13.95-1.65c.36-.52.75-1,1.16-1.43h-4.13v-.89h5.09v.81c-.4.39-.77.86-1.12,1.4Z"/><path class="cls-8" d="m232.27,269.49v-5.64h-2.04v-.75c.27,0,.53-.02.78-.06.25-.04.48-.12.68-.23.2-.11.38-.26.52-.46.14-.19.24-.44.29-.73h.72v7.87h-.94Z"/><path class="cls-8" d="m236.04,263.29c.1-.34.26-.63.48-.88s.49-.44.82-.58.7-.21,1.11-.21c.34,0,.66.05.96.15.3.1.56.24.78.43.22.19.4.42.53.71s.19.61.19.98c0,.35-.05.66-.16.92-.11.27-.25.51-.43.72-.18.21-.38.4-.61.57-.23.17-.47.33-.71.49-.24.15-.49.29-.73.44-.24.14-.47.3-.67.46-.2.16-.38.34-.52.53-.14.19-.24.4-.28.65h4.04v.83h-5.14c.04-.47.12-.86.25-1.19s.29-.62.49-.86c.2-.24.43-.46.68-.64s.51-.36.79-.52c.33-.21.63-.4.88-.57.25-.17.46-.35.63-.53.17-.18.29-.37.38-.58.08-.21.13-.45.13-.72,0-.21-.04-.41-.12-.58s-.19-.32-.33-.45c-.14-.13-.3-.22-.48-.29s-.38-.1-.59-.1c-.27,0-.51.06-.71.17-.2.11-.36.26-.48.45-.13.19-.22.39-.27.63-.06.23-.08.47-.07.71h-.94c-.02-.4.02-.77.12-1.11Z"/><path class="cls-8" d="m242.09,264.72c.01-.31.05-.61.11-.91.06-.3.14-.58.25-.84.11-.27.26-.5.46-.7.19-.2.44-.36.73-.48.29-.12.64-.18,1.05-.18s.76.06,1.05.18c.29.12.53.28.73.48.19.2.34.43.46.7s.2.55.26.84c.06.3.1.6.11.91s.02.61.02.9,0,.59-.02.9-.05.61-.11.91c-.06.3-.14.58-.26.84s-.26.49-.46.69c-.19.2-.43.36-.72.47-.29.11-.64.17-1.05.17s-.76-.06-1.05-.17c-.29-.12-.53-.27-.73-.47-.19-.2-.34-.43-.46-.69-.11-.26-.2-.54-.25-.84-.06-.3-.1-.6-.11-.91s-.02-.61-.02-.9,0-.59.02-.9Zm1,1.88c.02.37.08.71.18,1.03.1.32.26.59.48.82.22.22.53.33.93.33s.71-.11.93-.33c.22-.22.38-.49.48-.82.1-.32.16-.67.18-1.03.02-.37.03-.7.03-.99,0-.19,0-.41,0-.64,0-.23-.02-.47-.06-.7-.03-.23-.08-.46-.14-.68-.06-.22-.16-.42-.28-.58-.12-.17-.28-.3-.46-.41s-.41-.16-.68-.16-.49.05-.68.16-.34.24-.46.41c-.12.17-.21.36-.28.58-.06.22-.11.45-.14.68-.03.23-.05.47-.06.7,0,.23,0,.45,0,.64,0,.3,0,.63.03.99Z"/></g><g class="cls-21"><path class="cls-8" d="m297.49,269.49v-5.64h-2.04v-.75c.27,0,.53-.02.78-.06.25-.04.48-.12.68-.23.2-.11.38-.26.52-.46.14-.19.24-.44.29-.73h.72v7.87h-.94Z"/><path class="cls-8" d="m301.15,264.72c.01-.31.05-.61.11-.91.06-.3.14-.58.25-.84.11-.27.26-.5.46-.7.19-.2.44-.36.73-.48.29-.12.64-.18,1.05-.18s.76.06,1.05.18c.29.12.53.28.73.48.19.2.34.43.46.7s.2.55.26.84c.06.3.1.6.11.91s.02.61.02.9,0,.59-.02.9-.05.61-.11.91c-.06.3-.14.58-.26.84s-.26.49-.46.69c-.19.2-.43.36-.72.47-.29.11-.64.17-1.05.17s-.76-.06-1.05-.17c-.29-.12-.53-.27-.73-.47-.19-.2-.34-.43-.46-.69-.11-.26-.2-.54-.25-.84-.06-.3-.1-.6-.11-.91s-.02-.61-.02-.9,0-.59.02-.9Zm1,1.88c.02.37.08.71.18,1.03.1.32.26.59.48.82.22.22.53.33.93.33s.71-.11.93-.33c.22-.22.38-.49.48-.82.1-.32.16-.67.18-1.03.02-.37.03-.7.03-.99,0-.19,0-.41,0-.64,0-.23-.02-.47-.06-.7-.03-.23-.08-.46-.14-.68-.06-.22-.16-.42-.28-.58-.12-.17-.28-.3-.46-.41s-.41-.16-.68-.16-.49.05-.68.16-.34.24-.46.41c-.12.17-.21.36-.28.58-.06.22-.11.45-.14.68-.03.23-.05.47-.06.7,0,.23,0,.45,0,.64,0,.3,0,.63.03.99Z"/><path class="cls-8" d="m311.01,262.77c-.23-.21-.53-.32-.91-.32-.4,0-.72.1-.97.29-.24.2-.43.44-.57.74-.14.3-.23.62-.28.97s-.08.67-.09.98l.02.02c.22-.36.5-.62.83-.79s.71-.24,1.14-.24c.38,0,.72.06,1.02.19.3.13.55.31.75.54s.36.5.47.81c.11.31.17.65.17,1.01,0,.29-.04.59-.13.9-.09.31-.24.59-.44.85-.2.26-.47.47-.81.63-.34.17-.75.25-1.25.25-.58,0-1.05-.12-1.41-.36-.36-.24-.63-.54-.82-.91s-.32-.78-.38-1.22-.09-.87-.09-1.29c0-.54.05-1.06.14-1.57.09-.51.25-.96.47-1.35.22-.39.52-.71.89-.94.37-.24.84-.36,1.4-.36.65,0,1.17.17,1.55.52.38.34.61.84.67,1.49h-.94c-.04-.36-.18-.64-.41-.86Zm-1.71,2.62c-.2.09-.37.22-.51.38-.14.16-.25.35-.32.57-.07.22-.11.45-.11.69s.04.47.11.69c.07.21.18.4.32.55.14.16.31.28.51.37.2.09.43.14.69.14s.49-.05.68-.14c.2-.09.36-.22.49-.38.13-.16.23-.35.31-.56s.11-.43.11-.66c0-.24-.03-.47-.09-.69-.06-.22-.16-.41-.29-.57s-.3-.29-.5-.38c-.2-.1-.43-.14-.7-.14s-.5.05-.7.14Z"/><path class="cls-8" d="m313.61,263.29c.1-.34.26-.63.48-.88s.49-.44.82-.58.7-.21,1.11-.21c.34,0,.66.05.96.15.3.1.56.24.78.43.22.19.4.42.53.71s.19.61.19.98c0,.35-.05.66-.16.92-.11.27-.25.51-.43.72-.18.21-.38.4-.61.57-.23.17-.47.33-.71.49-.24.15-.49.29-.73.44-.24.14-.47.3-.67.46-.2.16-.38.34-.52.53-.14.19-.24.4-.28.65h4.04v.83h-5.14c.04-.47.12-.86.25-1.19s.29-.62.49-.86c.2-.24.43-.46.68-.64s.51-.36.79-.52c.33-.21.63-.4.88-.57.25-.17.46-.35.63-.53.17-.18.29-.37.38-.58.08-.21.13-.45.13-.72,0-.21-.04-.41-.12-.58s-.19-.32-.33-.45c-.14-.13-.3-.22-.48-.29s-.38-.1-.59-.1c-.27,0-.51.06-.71.17-.2.11-.36.26-.48.45-.13.19-.22.39-.27.63-.06.23-.08.47-.07.71h-.94c-.02-.4.02-.77.12-1.11Z"/><path class="cls-8" d="m319.66,264.72c.01-.31.05-.61.11-.91.06-.3.14-.58.25-.84.11-.27.26-.5.46-.7.19-.2.44-.36.73-.48.29-.12.64-.18,1.05-.18s.76.06,1.05.18c.29.12.53.28.73.48.19.2.34.43.46.7s.2.55.26.84c.06.3.1.6.11.91s.02.61.02.9,0,.59-.02.9-.05.61-.11.91c-.06.3-.14.58-.26.84s-.26.49-.46.69c-.19.2-.43.36-.72.47-.29.11-.64.17-1.05.17s-.76-.06-1.05-.17c-.29-.12-.53-.27-.73-.47-.19-.2-.34-.43-.46-.69-.11-.26-.2-.54-.25-.84-.06-.3-.1-.6-.11-.91s-.02-.61-.02-.9,0-.59.02-.9Zm1,1.88c.02.37.08.71.18,1.03.1.32.26.59.48.82.22.22.53.33.93.33s.71-.11.93-.33c.22-.22.38-.49.48-.82.1-.32.16-.67.18-1.03.02-.37.03-.7.03-.99,0-.19,0-.41,0-.64,0-.23-.02-.47-.06-.7-.03-.23-.08-.46-.14-.68-.06-.22-.16-.42-.28-.58-.12-.17-.28-.3-.46-.41s-.41-.16-.68-.16-.49.05-.68.16-.34.24-.46.41c-.12.17-.21.36-.28.58-.06.22-.11.45-.14.68-.03.23-.05.47-.06.7,0,.23,0,.45,0,.64,0,.3,0,.63.03.99Z"/></g><g class="cls-25"><path class="cls-8" d="m371.98,269.49v-5.64h-2.04v-.75c.27,0,.53-.02.78-.06.25-.04.48-.12.68-.23.2-.11.38-.26.52-.46.14-.19.24-.44.29-.73h.72v7.87h-.94Z"/><path class="cls-8" d="m380.86,266.81v.83h-1.07v1.84h-.89v-1.84h-3.45v-.91l3.58-5.12h.75v5.2h1.07Zm-1.95-3.85h-.02l-2.62,3.85h2.64v-3.85Z"/><path class="cls-8" d="m381.92,263.29c.1-.34.26-.63.48-.88.22-.25.49-.44.82-.58.33-.14.7-.21,1.11-.21.34,0,.66.05.96.15.3.1.56.24.78.43s.4.42.53.71c.13.28.19.61.19.98,0,.35-.05.66-.16.92-.11.27-.25.51-.43.72-.18.21-.38.4-.61.57s-.47.33-.71.49c-.24.15-.49.29-.73.44-.25.14-.47.3-.67.46-.2.16-.38.34-.52.53-.14.19-.24.4-.28.65h4.04v.83h-5.14c.04-.47.12-.86.25-1.19.13-.33.29-.62.49-.86s.43-.46.68-.64c.25-.18.51-.36.79-.52.33-.21.63-.4.88-.57.25-.17.46-.35.63-.53.17-.18.29-.37.38-.58.08-.21.13-.45.13-.72,0-.21-.04-.41-.12-.58-.08-.17-.19-.32-.33-.45-.14-.13-.3-.22-.48-.29-.19-.07-.38-.1-.59-.1-.27,0-.51.06-.71.17-.2.11-.36.26-.48.45-.13.19-.22.39-.27.63-.06.23-.08.47-.07.71h-.94c-.02-.4.02-.77.12-1.11Z"/><path class="cls-8" d="m388.1,263.29c.1-.34.26-.63.48-.88.22-.25.49-.44.82-.58.33-.14.7-.21,1.11-.21.34,0,.66.05.96.15.3.1.56.24.78.43.22.19.4.42.53.71.13.28.19.61.19.98,0,.35-.05.66-.16.92-.11.27-.25.51-.43.72-.18.21-.38.4-.61.57-.23.17-.47.33-.71.49-.24.15-.49.29-.73.44s-.47.3-.67.46c-.2.16-.38.34-.52.53-.14.19-.24.4-.28.65h4.04v.83h-5.14c.04-.47.12-.86.25-1.19.13-.33.29-.62.49-.86.2-.24.42-.46.68-.64.25-.18.51-.36.79-.52.33-.21.62-.4.88-.57.25-.17.46-.35.63-.53.17-.18.29-.37.38-.58.08-.21.13-.45.13-.72,0-.21-.04-.41-.12-.58-.08-.17-.19-.32-.33-.45-.14-.13-.3-.22-.48-.29-.18-.07-.38-.1-.59-.1-.27,0-.51.06-.71.17-.2.11-.36.26-.48.45-.13.19-.22.39-.27.63-.05.23-.08.47-.07.71h-.94c-.02-.4.02-.77.12-1.11Z"/><path class="cls-8" d="m394.15,264.72c.01-.31.05-.61.11-.91s.14-.58.25-.84c.11-.27.26-.5.46-.7.19-.2.44-.36.73-.48s.64-.18,1.05-.18.76.06,1.05.18.54.28.73.48c.19.2.34.43.46.7.11.27.2.55.25.84s.1.6.11.91.02.61.02.9,0,.59-.02.9-.05.61-.11.91-.14.58-.25.84c-.11.26-.26.49-.46.69-.19.2-.43.36-.72.47-.29.11-.64.17-1.05.17s-.76-.06-1.05-.17c-.29-.12-.54-.27-.73-.47-.19-.2-.34-.43-.46-.69-.11-.26-.2-.54-.25-.84s-.1-.6-.11-.91-.02-.61-.02-.9,0-.59.02-.9Zm1,1.88c.02.37.08.71.18,1.03.1.32.26.59.48.82.22.22.53.33.93.33s.71-.11.93-.33.38-.49.48-.82c.1-.32.16-.67.18-1.03.02-.37.03-.7.03-.99,0-.19,0-.41,0-.64,0-.23-.02-.47-.06-.7-.03-.23-.08-.46-.14-.68-.06-.22-.16-.42-.28-.58-.12-.17-.28-.3-.46-.41-.18-.1-.41-.16-.68-.16s-.49.05-.68.16c-.19.1-.34.24-.46.41-.12.17-.21.36-.28.58-.06.22-.11.45-.14.68-.03.23-.05.47-.06.7,0,.23,0,.45,0,.64,0,.3,0,.63.03.99Z"/></g><g class="cls-20"><path class="cls-8" d="m446.46,269.49v-5.64h-2.04v-.75c.27,0,.53-.02.78-.06.25-.04.48-.12.68-.23.2-.11.38-.26.52-.46.14-.19.24-.44.29-.73h.72v7.87h-.94Z"/><path class="cls-8" d="m454.16,263.96c-.35.54-.66,1.12-.93,1.73s-.49,1.25-.66,1.9c-.17.65-.27,1.28-.31,1.9h-1.05c.04-.67.15-1.32.33-1.95s.4-1.24.67-1.82c.27-.58.59-1.13.95-1.65.36-.52.75-1,1.16-1.43h-4.13v-.89h5.09v.81c-.4.39-.77.86-1.12,1.4Z"/><path class="cls-8" d="m459.98,262.77c-.23-.21-.53-.32-.91-.32-.4,0-.72.1-.97.29s-.43.44-.57.74c-.14.3-.23.62-.28.97s-.08.67-.09.98l.02.02c.22-.36.5-.62.83-.79s.71-.24,1.14-.24c.38,0,.72.06,1.02.19.3.13.55.31.75.54.2.23.36.5.47.81.11.31.17.65.17,1.01,0,.29-.04.59-.13.9-.09.31-.24.59-.44.85-.2.26-.47.47-.81.63-.34.17-.75.25-1.25.25-.58,0-1.05-.12-1.41-.36-.36-.24-.63-.54-.82-.91s-.32-.78-.38-1.22c-.06-.44-.09-.87-.09-1.29,0-.54.05-1.06.14-1.57.09-.51.25-.96.47-1.35.22-.39.52-.71.89-.94.37-.24.84-.36,1.4-.36.65,0,1.17.17,1.55.52.38.34.61.84.67,1.49h-.94c-.04-.36-.18-.64-.41-.86Zm-1.71,2.62c-.2.09-.37.22-.51.38-.14.16-.25.35-.32.57-.07.22-.11.45-.11.69s.04.47.11.69c.07.21.18.4.32.55s.31.28.51.37.43.14.69.14.49-.05.68-.14c.2-.09.36-.22.49-.38.13-.16.24-.35.31-.56s.11-.43.11-.66c0-.24-.03-.47-.09-.69-.06-.22-.16-.41-.29-.57-.13-.16-.3-.29-.5-.38-.2-.1-.43-.14-.7-.14s-.5.05-.7.14Z"/><path class="cls-8" d="m467.69,266.81v.83h-1.07v1.84h-.89v-1.84h-3.45v-.91l3.58-5.12h.75v5.2h1.07Zm-1.95-3.85h-.02l-2.62,3.85h2.64v-3.85Z"/><path class="cls-8" d="m468.63,264.72c.01-.31.05-.61.11-.91s.14-.58.25-.84c.11-.27.26-.5.46-.7.19-.2.44-.36.73-.48s.64-.18,1.05-.18.76.06,1.05.18.54.28.73.48c.19.2.34.43.46.7.11.27.2.55.25.84s.1.6.11.91.02.61.02.9,0,.59-.02.9-.05.61-.11.91-.14.58-.25.84c-.11.26-.26.49-.46.69-.19.2-.43.36-.72.47-.29.11-.64.17-1.05.17s-.76-.06-1.05-.17c-.29-.12-.54-.27-.73-.47-.19-.2-.34-.43-.46-.69-.11-.26-.2-.54-.25-.84s-.1-.6-.11-.91-.02-.61-.02-.9,0-.59.02-.9Zm1,1.88c.02.37.08.71.18,1.03.1.32.26.59.48.82.22.22.53.33.93.33s.71-.11.93-.33.38-.49.48-.82c.1-.32.16-.67.18-1.03.02-.37.03-.7.03-.99,0-.19,0-.41,0-.64,0-.23-.02-.47-.06-.7-.03-.23-.08-.46-.14-.68-.06-.22-.16-.42-.28-.58-.12-.17-.28-.3-.46-.41-.18-.1-.41-.16-.68-.16s-.49.05-.68.16c-.19.1-.34.24-.46.41-.12.17-.21.36-.28.58-.06.22-.11.45-.14.68-.03.23-.05.47-.06.7,0,.23,0,.45,0,.64,0,.3,0,.63.03.99Z"/></g><g class="cls-19"><path class="cls-8" d="m518.55,263.29c.1-.34.26-.63.48-.88.22-.25.49-.44.82-.58.33-.14.7-.21,1.11-.21.34,0,.66.05.96.15.3.1.56.24.78.43.22.19.4.42.53.71.13.28.19.61.19.98,0,.35-.05.66-.16.92-.11.27-.25.51-.43.72-.18.21-.38.4-.61.57-.23.17-.47.33-.71.49-.24.15-.49.29-.73.44s-.47.3-.67.46c-.2.16-.38.34-.52.53-.14.19-.24.4-.28.65h4.04v.83h-5.14c.04-.47.12-.86.25-1.19.13-.33.29-.62.49-.86.2-.24.42-.46.68-.64.25-.18.51-.36.79-.52.33-.21.62-.4.88-.57.25-.17.46-.35.63-.53.17-.18.29-.37.38-.58.08-.21.13-.45.13-.72,0-.21-.04-.41-.12-.58-.08-.17-.19-.32-.33-.45-.14-.13-.3-.22-.48-.29-.18-.07-.38-.1-.59-.1-.27,0-.51.06-.71.17-.2.11-.36.26-.48.45-.13.19-.22.39-.27.63-.05.23-.08.47-.07.71h-.94c-.02-.4.02-.77.12-1.11Z"/><path class="cls-8" d="m527.12,269.49v-5.64h-2.04v-.75c.27,0,.53-.02.78-.06.25-.04.48-.12.68-.23.2-.11.38-.26.52-.46.14-.19.24-.44.29-.73h.72v7.87h-.94Z"/><path class="cls-8" d="m530.9,263.29c.1-.34.26-.63.48-.88.22-.25.49-.44.82-.58.33-.14.7-.21,1.11-.21.34,0,.66.05.96.15.3.1.56.24.78.43s.4.42.53.71c.13.28.19.61.19.98,0,.35-.05.66-.16.92-.11.27-.25.51-.43.72-.18.21-.38.4-.61.57s-.47.33-.71.49c-.24.15-.49.29-.73.44-.25.14-.47.3-.67.46-.2.16-.38.34-.52.53-.14.19-.24.4-.28.65h4.04v.83h-5.14c.04-.47.12-.86.25-1.19.13-.33.29-.62.49-.86s.43-.46.68-.64c.25-.18.51-.36.79-.52.33-.21.63-.4.88-.57.25-.17.46-.35.63-.53.17-.18.29-.37.38-.58.08-.21.13-.45.13-.72,0-.21-.04-.41-.12-.58-.08-.17-.19-.32-.33-.45-.14-.13-.3-.22-.48-.29-.19-.07-.38-.1-.59-.1-.27,0-.51.06-.71.17-.2.11-.36.26-.48.45-.13.19-.22.39-.27.63-.06.23-.08.47-.07.71h-.94c-.02-.4.02-.77.12-1.11Z"/><path class="cls-8" d="m542.17,266.81v.83h-1.07v1.84h-.89v-1.84h-3.45v-.91l3.58-5.12h.75v5.2h1.07Zm-1.95-3.85h-.02l-2.62,3.85h2.64v-3.85Z"/><path class="cls-8" d="m543.12,264.72c.01-.31.05-.61.11-.91s.14-.58.25-.84c.11-.27.26-.5.46-.7.19-.2.44-.36.73-.48s.64-.18,1.05-.18.76.06,1.05.18.54.28.73.48c.19.2.34.43.46.7.11.27.2.55.25.84s.1.6.11.91.02.61.02.9,0,.59-.02.9-.05.61-.11.91-.14.58-.25.84c-.11.26-.26.49-.46.69-.19.2-.43.36-.72.47-.29.11-.64.17-1.05.17s-.76-.06-1.05-.17c-.29-.12-.54-.27-.73-.47-.19-.2-.34-.43-.46-.69-.11-.26-.2-.54-.25-.84s-.1-.6-.11-.91-.02-.61-.02-.9,0-.59.02-.9Zm1,1.88c.02.37.08.71.18,1.03.1.32.26.59.48.82.22.22.53.33.93.33s.71-.11.93-.33.38-.49.48-.82c.1-.32.16-.67.18-1.03.02-.37.03-.7.03-.99,0-.19,0-.41,0-.64,0-.23-.02-.47-.06-.7-.03-.23-.08-.46-.14-.68-.06-.22-.16-.42-.28-.58-.12-.17-.28-.3-.46-.41-.18-.1-.41-.16-.68-.16s-.49.05-.68.16c-.19.1-.34.24-.46.41-.12.17-.21.36-.28.58-.06.22-.11.45-.14.68-.03.23-.05.47-.06.7,0,.23,0,.45,0,.64,0,.3,0,.63.03.99Z"/></g><g class="cls-27"><g class="cls-18"><g class="cls-22"><polyline class="cls-1" points="86.46 254.2 88.53 241.85 90.6 229.51 92.67 217.17 94.73 204.83 96.8 192.48 98.87 180.14 100.94 167.8 103.01 155.46 105.08 143.11 107.15 130.77 109.22 118.43 111.29 106.09 113.36 93.74 115.42 81.4 117.49 69.06 119.56 56.71 121.63 44.37 123.7 32.03 125.77 19.69 127.84 7.34 129.91 7.34 131.98 7.34 134.05 7.34 136.12 7.34 138.18 7.34 140.25 7.34 142.32 7.34 144.39 7.34 146.46 9.81 148.53 9.81 150.6 9.81 152.67 9.81 154.74 9.81 156.81 9.81 158.87 9.81 160.94 12.28 163.01 12.28 165.08 12.28 167.15 12.28 169.22 14.75 171.29 14.75 173.36 14.75 175.43 14.75 177.5 17.22 179.56 17.22 181.63 17.22 183.7 19.69 185.77 19.69 187.84 19.69 189.91 22.16 191.98 22.16 194.05 24.62 196.12 24.62 198.19 24.62 200.26 27.09 202.32 27.09 204.39 29.56 206.46 29.56 208.53 32.03 210.6 32.03 212.67 34.5 214.74 34.5 216.81 36.97 218.88 36.97 220.95 39.44 223.01 39.44 225.08 41.9 227.15 41.9 229.22 44.37 231.29 46.84 233.36 46.84 235.43 46.84 237.5 46.84 239.57 49.31 241.64 49.31 243.71 51.78 245.77 54.25 247.84 54.25 249.91 56.71 251.98 59.18 254.05 59.18 256.12 61.65 258.19 64.12 260.26 64.12 262.33 66.59 264.4 69.06 266.46 69.06 268.53 71.53 270.6 73.99 272.67 76.46 274.74 76.46 276.81 78.93 278.88 81.4 280.95 83.87 283.02 83.87 285.09 86.34 287.16 88.81 289.22 91.27 291.29 91.27 293.36 93.74 295.43 96.21 297.5 98.68 299.57 98.68 301.64 101.15 303.71 103.62 305.78 106.09 307.85 108.55 309.91 108.55 311.98 111.02 314.05 113.49 316.12 115.96 318.19 118.43 320.26 118.43 322.33 120.9 324.4 123.36 326.47 125.83 328.54 128.3 330.6 130.77 332.67 130.77 334.74 133.24 336.81 135.71 338.88 138.18 340.95 140.64 343.02 140.64 345.09 143.11 347.16 145.58 349.23 148.05 351.3 150.52 353.36 150.52 355.43 152.99 357.5 155.46 359.57 157.92 361.64 160.39 363.71 160.39 365.78 162.86 367.85 165.33 369.92 167.8 371.99 167.8 374.05 170.27 376.12 172.73 378.19 175.2 380.26 177.67 382.33 177.67 384.4 180.14 386.47 180.14 388.54 180.14 390.61 182.61 392.68 185.08 394.75 185.08 396.81 187.55 398.88 190.01 400.95 192.48 403.02 192.48 405.09 194.95 407.16 197.42 409.23 197.42 411.3 199.89 413.37 202.36 415.44 202.36 417.5 204.83 419.57 207.29 421.64 207.29 423.71 209.76 425.78 209.76 427.85 212.23 429.92 214.7 431.99 214.7 434.06 217.17 436.13 217.17 438.19 219.64 440.26 222.11 442.33 222.11 444.4 224.57 446.47 224.57 448.54 227.04 450.61 227.04 452.68 229.51 454.75 229.51 456.82 231.98 458.89 231.98 460.95 234.45 463.02 234.45 465.09 234.45 467.16 236.92 469.23 236.92 471.3 239.38 473.37 239.38 475.44 239.38 477.51 241.85 479.58 241.85 481.64 244.32 483.71 244.32 485.78 244.32 487.85 244.32 489.92 246.79 491.99 246.79 494.06 246.79 496.13 249.26 498.2 249.26 500.27 249.26 502.34 249.26 504.4 249.26 506.47 251.73 508.54 251.73 510.61 251.73 512.68 251.73 514.75 251.73 516.82 251.73 518.89 254.2 520.96 254.2 523.03 254.2 525.09 254.2 527.16 254.2 529.23 254.2 531.3 254.2 533.37 254.2 535.44 254.2 537.51 254.2"/></g></g></g><g class="cls-24"><polyline class="cls-4" points="537.51 254.2 535.44 254.2 533.37 254.2 531.3 254.2 529.23 254.2 527.16 254.2 525.09 254.2 523.03 254.2 520.96 254.2 518.89 252.96 516.82 251.73 514.75 251.73 512.68 251.73 510.61 251.73 508.54 251.73 506.47 250.49 504.4 249.26 502.34 249.26 500.27 249.26 498.2 249.26 496.13 248.02 494.06 246.79 491.99 246.79 489.92 245.56 487.85 244.32 485.78 244.32 483.71 244.32 481.64 243.09 479.58 241.85 477.51 240.62 475.44 239.38 473.37 239.38 471.3 238.15 469.23 236.92 467.16 235.68 465.09 234.45 463.02 234.45 460.95 233.21 458.89 231.98 456.82 230.74 454.75 229.51 452.68 228.28 450.61 227.04 448.54 225.81 446.47 224.57 444.4 223.34 442.33 222.1 440.26 220.87 438.19 218.4 436.13 217.17 434.06 215.93 431.99 214.7 429.92 213.47 427.85 211 425.78 209.76 423.71 208.53 421.64 207.29 419.57 206.06 417.5 203.59 415.44 202.36 413.37 201.12 411.3 198.65 409.23 197.42 407.16 196.19 405.09 193.72 403.02 192.48 400.95 191.25 398.88 188.78 396.81 186.31 394.75 185.08 392.68 183.84 390.61 181.37 388.54 180.14 386.47 180.14 384.4 178.91 382.33 177.67 380.26 176.44 378.19 173.97 376.12 171.5 374.05 169.03 371.99 167.8 369.92 166.56 367.85 164.1 365.78 161.63 363.71 160.39 361.64 159.16 359.57 156.69 357.5 154.22 355.43 151.75 353.36 150.52 351.3 149.28 349.23 146.82 347.16 144.35 345.09 141.88 343.02 140.64 340.95 139.41 338.88 136.94 336.81 134.47 334.74 132 332.67 130.77 330.6 129.54 328.54 127.07 326.47 124.6 324.4 122.13 322.33 119.66 320.26 118.43 318.19 117.19 316.12 114.72 314.05 112.26 311.98 109.79 309.91 108.55 307.85 107.32 305.78 104.85 303.71 102.38 301.64 99.91 299.57 98.68 297.5 97.45 295.43 94.98 293.36 92.51 291.29 91.27 289.22 90.04 287.16 87.57 285.09 85.1 283.02 83.87 280.95 82.63 278.88 80.17 276.81 77.7 274.74 76.46 272.67 75.23 270.6 72.76 268.53 70.29 266.46 69.06 264.4 67.82 262.33 65.35 260.26 64.12 258.19 62.89 256.12 60.42 254.05 59.18 251.98 57.95 249.91 55.48 247.84 54.25 245.77 53.01 243.71 50.54 241.64 49.31 239.57 48.08 237.5 46.84 235.43 46.84 233.36 46.84 231.29 45.61 229.22 43.14 227.15 41.9 225.08 40.67 223.01 39.44 220.95 38.2 218.88 36.97 216.81 35.73 214.74 34.5 212.67 33.26 210.6 32.03 208.53 30.8 206.46 29.56 204.39 28.33 202.32 27.09 200.26 25.86 198.19 24.62 196.12 24.62 194.05 23.39 191.98 22.16 189.91 20.92 187.84 19.69 185.77 19.69 183.7 18.45 181.63 17.22 179.56 17.22 177.5 15.98 175.43 14.75 173.36 14.75 171.29 14.75 169.22 13.52 167.15 12.28 165.08 12.28 163.01 12.28 160.94 11.05 158.87 9.81 156.81 9.81 154.74 9.81 152.67 9.81 150.6 9.81 148.53 9.81 146.46 8.58 144.39 7.34 142.32 7.34 140.25 7.34 138.18 7.34 136.12 7.34 134.05 7.34 131.98 7.34 129.91 7.34 127.84 13.52 125.77 25.86 123.7 38.2 121.63 50.54 119.56 62.89 117.49 75.23 115.42 87.57 113.36 99.91 111.29 112.26 109.22 124.6 107.15 136.94 105.08 149.28 103.01 161.63 100.94 173.97 98.87 186.31 96.8 198.65 94.73 211 92.67 223.34 90.6 235.68 88.53 248.02"/></g><g class="cls-27"><g class="cls-23"><g class="cls-26"><line class="cls-6" x1="452" y1="15.88" x2="462" y2="15.88"/></g></g></g><path class="cls-8" d="m470.99,11.74v7.04h4.2v.89h-5.25v-7.93h1.05Z"/><path class="cls-8" d="m480.01,19.3c-.43.33-.97.49-1.62.49-.46,0-.86-.07-1.19-.22-.34-.15-.62-.36-.85-.62s-.4-.58-.52-.95c-.11-.37-.18-.77-.19-1.21,0-.44.07-.84.2-1.2.13-.36.32-.68.56-.94s.53-.47.85-.62c.33-.15.69-.22,1.08-.22.51,0,.93.11,1.27.32s.61.48.81.8c.2.33.34.68.42,1.07.08.38.11.75.09,1.1h-4.3c0,.25.02.49.09.72.07.23.17.43.32.6.15.17.34.31.57.42.23.1.5.16.81.16.4,0,.73-.09.98-.28.26-.19.42-.47.51-.84h.93c-.13.64-.4,1.13-.83,1.45Zm-.23-3.69c-.08-.2-.2-.37-.34-.52-.14-.14-.31-.26-.51-.34-.2-.08-.41-.13-.65-.13s-.46.04-.66.13c-.2.09-.36.2-.5.35-.14.15-.25.32-.33.52s-.13.41-.14.63h3.3c-.01-.22-.06-.43-.15-.63Z"/><path class="cls-8" d="m486.99,19.65c-.16.1-.39.14-.68.14-.24,0-.44-.07-.58-.21-.14-.14-.22-.36-.22-.67-.26.31-.56.54-.91.67-.34.14-.72.21-1.12.21-.26,0-.5-.03-.74-.09-.23-.06-.43-.15-.6-.28-.17-.13-.31-.29-.41-.49-.1-.2-.15-.45-.15-.74,0-.33.06-.59.17-.8s.26-.38.44-.5c.18-.13.39-.23.62-.29.23-.07.47-.12.72-.17.26-.05.5-.09.74-.12.23-.03.44-.06.62-.11s.32-.12.42-.21.16-.23.16-.41c0-.21-.04-.37-.12-.5s-.18-.22-.3-.29-.26-.11-.41-.13c-.15-.02-.3-.03-.45-.03-.4,0-.73.08-1,.23-.27.15-.41.44-.43.86h-.94c.01-.36.09-.66.22-.9s.31-.44.53-.59c.22-.15.47-.26.76-.33.29-.07.59-.1.92-.1.26,0,.52.02.77.06s.49.11.69.23c.21.12.37.28.5.48s.19.48.19.81v2.95c0,.22.01.38.04.49.03.1.11.16.26.16.08,0,.18-.02.29-.04v.73Zm-1.53-2.94c-.12.09-.27.15-.47.19-.19.04-.39.07-.61.1s-.42.06-.64.09c-.21.03-.41.09-.58.16-.17.07-.31.18-.42.32-.11.14-.16.32-.16.56,0,.15.03.29.09.39.06.11.14.19.24.26.1.07.22.11.35.14.13.03.27.04.42.04.31,0,.58-.04.8-.13.22-.08.4-.19.54-.32.14-.13.24-.27.31-.42.07-.15.1-.29.1-.43v-.96Z"/><path class="cls-8" d="m488.72,13.93v1.21h.02c.23-.47.51-.81.84-1.03.33-.22.75-.33,1.27-.31v1c-.38,0-.7.05-.97.16s-.48.26-.64.46c-.16.2-.28.44-.36.73s-.11.61-.11.98v2.55h-.94v-5.74h.89Z"/><path class="cls-8" d="m492.64,13.93v.91h.02c.39-.7,1.01-1.04,1.87-1.04.38,0,.69.05.94.16.25.1.46.25.61.43.16.18.26.4.33.66.06.25.09.54.09.85v3.77h-.94v-3.88c0-.36-.1-.64-.31-.84-.21-.21-.49-.31-.86-.31-.29,0-.54.04-.75.13s-.39.21-.53.38c-.14.16-.25.35-.32.57-.07.22-.11.46-.11.72v3.24h-.94v-5.74h.89Z"/><path class="cls-8" d="m497.98,12.9v-1.15h.94v1.15h-.94Zm.94,1.03v5.74h-.94v-5.74h.94Z"/><path class="cls-8" d="m501.28,13.93v.91h.02c.39-.7,1.01-1.04,1.87-1.04.38,0,.69.05.94.16.25.1.46.25.61.43.16.18.26.4.33.66.06.25.09.54.09.85v3.77h-.94v-3.88c0-.36-.1-.64-.31-.84-.21-.21-.49-.31-.86-.31-.29,0-.54.04-.75.13s-.39.21-.53.38c-.14.16-.25.35-.32.57-.07.22-.11.46-.11.72v3.24h-.94v-5.74h.89Z"/><path class="cls-8" d="m510.87,21.29c-.43.47-1.1.7-2.02.7-.27,0-.54-.03-.82-.09-.28-.06-.53-.16-.75-.29-.23-.13-.41-.31-.56-.52-.15-.21-.23-.48-.24-.79h.94c0,.17.06.31.16.43.1.12.22.21.37.29.14.07.3.13.47.16.17.03.33.05.49.05.31,0,.57-.05.79-.16s.39-.26.53-.44c.14-.19.24-.42.3-.68s.09-.56.09-.88v-.38h-.02c-.16.35-.41.62-.74.78-.33.17-.68.25-1.05.25-.43,0-.8-.08-1.12-.23s-.58-.36-.8-.63c-.21-.26-.38-.57-.48-.92s-.16-.72-.16-1.12c0-.34.04-.69.13-1.05.09-.36.24-.68.44-.98.21-.29.48-.53.82-.72.34-.19.76-.28,1.25-.28.36,0,.7.08,1,.24s.54.4.71.72h.01v-.82h.89v5.25c0,.94-.21,1.64-.64,2.11Zm-1.2-2.58c.22-.13.39-.3.53-.51.13-.21.23-.45.29-.72.06-.27.09-.53.09-.8,0-.25-.03-.5-.09-.74-.06-.24-.15-.46-.28-.66-.13-.2-.3-.35-.51-.47-.21-.12-.46-.18-.75-.18s-.56.06-.78.17c-.21.11-.39.27-.53.46s-.24.41-.3.67c-.06.25-.09.51-.09.79,0,.26.03.52.08.78.05.26.14.49.27.71s.29.38.5.51c.21.13.47.19.78.19s.58-.07.79-.19Z"/><path class="cls-8" d="m519.9,11.74c.75,0,1.34.19,1.77.56s.64.88.64,1.52c0,.48-.11.9-.33,1.27-.22.36-.57.61-1.05.74v.02c.23.04.42.12.56.22s.26.23.34.37.15.31.19.48c.04.18.07.36.09.56.01.19.03.39.03.59,0,.2.03.4.06.59s.07.38.13.55.14.33.25.46h-1.18c-.07-.08-.12-.19-.15-.33-.03-.14-.04-.3-.05-.47,0-.17-.01-.36-.02-.56,0-.2-.03-.4-.07-.59-.03-.19-.07-.38-.11-.55-.04-.17-.12-.33-.21-.46-.1-.13-.22-.23-.38-.31-.16-.08-.36-.12-.62-.12h-2.58v3.39h-1.05v-7.93h3.73Zm.22,3.6c.22-.04.42-.11.58-.22.17-.11.3-.25.4-.43.1-.18.15-.42.15-.71,0-.4-.11-.72-.33-.98-.22-.25-.58-.38-1.08-.38h-2.62v2.76h2.2c.24,0,.48-.02.7-.06Z"/><path class="cls-8" d="m528.71,19.65c-.16.1-.39.14-.68.14-.24,0-.44-.07-.58-.21-.14-.14-.22-.36-.22-.67-.26.31-.56.54-.91.67-.34.14-.72.21-1.12.21-.26,0-.5-.03-.74-.09-.23-.06-.43-.15-.6-.28-.17-.13-.31-.29-.41-.49-.1-.2-.15-.45-.15-.74,0-.33.06-.59.17-.8s.26-.38.44-.5c.18-.13.39-.23.62-.29.23-.07.47-.12.72-.17.26-.05.5-.09.74-.12.23-.03.44-.06.62-.11s.32-.12.42-.21.16-.23.16-.41c0-.21-.04-.37-.12-.5s-.18-.22-.3-.29-.26-.11-.41-.13c-.15-.02-.3-.03-.45-.03-.4,0-.73.08-1,.23-.27.15-.41.44-.43.86h-.94c.01-.36.09-.66.22-.9s.31-.44.53-.59c.22-.15.47-.26.76-.33.29-.07.59-.1.92-.1.26,0,.52.02.77.06s.49.11.69.23c.21.12.37.28.5.48s.19.48.19.81v2.95c0,.22.01.38.04.49.03.1.11.16.26.16.08,0,.18-.02.29-.04v.73Zm-1.53-2.94c-.12.09-.27.15-.47.19-.19.04-.39.07-.61.1s-.42.06-.64.09c-.21.03-.41.09-.58.16-.17.07-.31.18-.42.32-.11.14-.16.32-.16.56,0,.15.03.29.09.39.06.11.14.19.24.26.1.07.22.11.35.14.13.03.27.04.42.04.31,0,.58-.04.8-.13.22-.08.4-.19.54-.32.14-.13.24-.27.31-.42.07-.15.1-.29.1-.43v-.96Z"/><path class="cls-8" d="m532.04,13.93v.83h-1.14v3.56c0,.11,0,.2.03.27.02.07.05.12.11.16s.12.06.22.07c.09.01.21.02.36.02h.43v.83h-.72c-.24,0-.45-.02-.63-.05s-.32-.09-.42-.18c-.11-.09-.19-.21-.24-.38s-.08-.38-.08-.64v-3.65h-.98v-.83h.98v-1.72h.94v1.72h1.14Z"/><path class="cls-8" d="m537.14,19.3c-.43.33-.97.49-1.62.49-.46,0-.86-.07-1.19-.22-.34-.15-.62-.36-.85-.62s-.4-.58-.52-.95c-.11-.37-.18-.77-.19-1.21,0-.44.07-.84.2-1.2.13-.36.32-.68.56-.94s.53-.47.85-.62c.33-.15.69-.22,1.08-.22.51,0,.93.11,1.27.32s.61.48.81.8c.2.33.34.68.42,1.07.08.38.11.75.09,1.1h-4.3c0,.25.02.49.09.72.07.23.17.43.32.6.15.17.34.31.57.42.23.1.5.16.81.16.4,0,.73-.09.98-.28.26-.19.42-.47.51-.84h.93c-.13.64-.4,1.13-.83,1.45Zm-.23-3.69c-.08-.2-.2-.37-.34-.52-.14-.14-.31-.26-.51-.34-.2-.08-.41-.13-.65-.13s-.46.04-.66.13c-.2.09-.36.2-.5.35-.14.15-.25.32-.33.52s-.13.41-.14.63h3.3c-.01-.22-.06-.43-.15-.63Z"/></g></svg>