<?xml version="1.0" encoding="UTF-8"?><svg id="Layer_2" xmlns="http://www.w3.org/2000/svg" viewBox="0 0 868.32 190.23"><defs><style>.cls-1{stroke-width:.5px;}.cls-1,.cls-2,.cls-3,.cls-4{fill:none;stroke:#ced4db;}.cls-2{stroke-miterlimit:10;}.cls-4{stroke-width:1.5px;}.cls-5{fill:#484f56;}.cls-5,.cls-6,.cls-7,.cls-8,.cls-9,.cls-10,.cls-11{stroke-width:0px;}.cls-6{fill:#868e96;}.cls-7{fill:#43a047;}.cls-8{fill:#2296f2;}.cls-9{fill:#ced4db;}.cls-10{fill:#fff;}.cls-11{fill:#ebebeb;}</style></defs><g id="Layer_1-2"><path class="cls-6" d="m274.36,66.52h65.32c1.41,0,2.25,0,2.81.23.81.3,1.45.93,1.74,1.74.23.56.23,1.41.23,2.81v12.91c0,1.41,0,2.25-.23,2.81-.3.81-.93,1.45-1.74,1.74-.56.23-1.41.23-2.81.23h-65.32c-1.41,0-2.25,0-2.81-.23-.81-.29-1.45-.93-1.74-1.74-.23-.56-.23-1.41-.23-2.81v-12.91c0-1.41,0-2.25.23-2.81.3-.81.93-1.45,1.74-1.74.56-.23,1.41-.23,2.81-.23Z"/><path class="cls-8" d="m5.21,66.52h77.86c1.41,0,2.25,0,2.81.23.81.3,1.45.93,1.74,1.74.23.56.23,1.41.23,2.81v12.91c0,1.41,0,2.25-.23,2.81-.3.81-.93,1.45-1.74,1.74-.56.23-1.41.23-2.81.23H5.21c-1.41,0-2.25,0-2.81-.23-.81-.29-1.45-.93-1.74-1.74-.23-.56-.23-1.41-.23-2.81v-12.91c0-1.41,0-2.25.23-2.81.3-.81.93-1.45,1.74-1.74.56-.23,1.41-.23,2.81-.23Z"/><path class="cls-7" d="m93.79,66.52h25.35c1.41,0,2.25,0,2.81.23.81.3,1.45.93,1.74,1.74.23.56.23,1.41.23,2.81v12.91c0,1.41,0,2.25-.23,2.81-.29.81-.93,1.45-1.74,1.74-.56.23-1.41.23-2.81.23h-25.35c-1.41,0-2.25,0-2.81-.23-.81-.29-1.45-.93-1.74-1.74-.23-.56-.23-1.41-.23-2.81v-12.91c0-1.41,0-2.25.23-2.81.29-.81.93-1.45,1.74-1.74.56-.23,1.41-.23,2.81-.23Z"/><path class="cls-7" d="m238.16,66.52h25.35c1.41,0,2.25,0,2.81.23.81.3,1.45.93,1.74,1.74.23.56.23,1.41.23,2.81v12.91c0,1.41,0,2.25-.23,2.81-.29.81-.93,1.45-1.74,1.74-.56.23-1.41.23-2.81.23h-25.35c-1.41,0-2.25,0-2.81-.23-.81-.29-1.45-.93-1.74-1.74-.23-.56-.23-1.41-.23-2.81v-12.91c0-1.41,0-2.25.23-2.81.29-.81.93-1.45,1.74-1.74.56-.23,1.41-.23,2.81-.23Z"/><path class="cls-7" d="m350.53,66.52h2.25c1.41,0,2.25,0,2.81.23.81.3,1.45.93,1.74,1.74.23.56.23,1.41.23,2.81v12.91c0,1.41,0,2.25-.23,2.81-.3.81-.93,1.45-1.74,1.74-.56.23-1.41.23-2.81.23h-2.25c-1.41,0-2.25,0-2.81-.23-.81-.29-1.45-.93-1.74-1.74-.23-.56-.23-1.41-.23-2.81v-12.91c0-1.41,0-2.25.23-2.81.3-.81.93-1.45,1.74-1.74.56-.23,1.41-.23,2.81-.23Z"/><polyline class="cls-3" points="123.13 54.76 122.63 54.76 1.74 54.76 1.24 54.76"/><line class="cls-2" x1=".94" y1="51.76" x2=".94" y2="57.76"/><line class="cls-2" x1="123.43" y1="57.76" x2="123.43" y2="51.76"/><polyline class="cls-4" points="134.38 77.76 155.84 77.76 156.59 77.76"/><polygon class="cls-9" points="153.89 81.66 161.69 77.76 153.89 73.86 155.84 77.76 153.89 81.66"/><polyline class="cls-4" points="195.73 77.76 217.19 77.76 217.94 77.76"/><polygon class="cls-9" points="215.24 81.66 223.04 77.76 215.24 73.86 217.19 77.76 215.24 81.66"/><polyline class="cls-3" points="356.52 54.76 356.02 54.76 235.12 54.76 234.62 54.76"/><line class="cls-2" x1="234.32" y1="51.76" x2="234.32" y2="57.76"/><line class="cls-2" x1="356.82" y1="57.76" x2="356.82" y2="51.76"/><path class="cls-10" d="m176.72,82.68v-.42l.48-.03c.6-.03.88-.19.88-.48,0-.2-.15-.6-.36-.92l-1.72-2.75-.65.87c-1.27,1.72-1.6,2.24-1.6,2.6,0,.44.34.61,1.38.71v.42h-4.25v-.42c.85-.1,1.26-.32,1.77-.95l2.97-3.76-3.37-4.95c-.53-.76-.75-.93-1.36-.99v-.43h5.88v.43l-.53.03c-.61.03-.82.17-.82.53,0,.2.03.29.25.63l1.65,2.55.95-1.31c.8-1.11.99-1.43.99-1.8,0-.41-.22-.53-.87-.6l-.36-.03v-.43h4.25v.43c-1.27.12-1.72.42-3.2,2.48l-1.36,1.89,3.09,4.81c.8,1.24,1.07,1.44,1.65,1.46v.42h-5.78Z"/><path class="cls-10" d="m182.95,80.04h2.53v.22h-.16c-.15,0-.27.04-.35.11s-.12.17-.12.3c0,.14.04.3.12.49l1.25,2.96,1.25-3.08c.09-.22.13-.38.13-.5,0-.05-.02-.1-.05-.13-.04-.06-.1-.1-.16-.12s-.2-.03-.4-.03v-.22h1.75v.22c-.2.02-.34.06-.42.12-.14.12-.26.31-.37.59l-1.9,4.61h-.24l-1.92-4.53c-.09-.21-.17-.36-.25-.45s-.18-.17-.3-.23c-.07-.04-.2-.07-.39-.1v-.22Z"/><path class="cls-10" d="m34.56,43.12c-.52-1.12-1.04-2.32-1.55-3.6-.51-1.27-1-2.56-1.45-3.85s-.86-2.55-1.2-3.75h1.46c.29,1.05.63,2.16,1.01,3.32s.8,2.32,1.24,3.47c.44,1.15.88,2.24,1.33,3.26.44-1.02.89-2.1,1.33-3.26.44-1.15.86-2.31,1.25-3.47.39-1.16.73-2.27,1.01-3.32h1.42c-.35,1.21-.75,2.46-1.2,3.75-.45,1.3-.94,2.58-1.45,3.85-.51,1.27-1.03,2.47-1.56,3.6h-1.63Z"/><path class="cls-10" d="m42.85,33.49c-.27,0-.49-.08-.65-.25-.16-.17-.24-.38-.24-.64s.08-.47.24-.64c.16-.17.38-.25.65-.25s.49.08.65.25c.16.17.24.38.24.64s-.08.47-.24.64-.38.25-.65.25Zm-.63,9.63v-7.96h1.26v7.96h-1.26Z"/><path class="cls-10" d="m49,43.12v-9.92h-3.82v-1.28h8.98v1.28h-3.82v9.92h-1.34Z"/><path class="cls-10" d="m54.21,39.36v-1.22h5.22v1.22h-5.22Z"/><path class="cls-10" d="m61.65,43.12v-11.2h1.35v9.92h6.1v1.28h-7.46Z"/><path class="cls-10" d="m70.69,44.96l4.18-13.52h1.28l-4.18,13.52h-1.28Z"/><path class="cls-10" d="m80.7,43.12v-9.94l-2.54,2.39-.82-.89,2.94-2.77h1.73v11.2h-1.3Z"/><path class="cls-10" d="m84.84,40.4v-1.23l5.54-7.24h1.73v7.24h1.75v1.23h-1.75v2.73h-1.3v-2.73h-5.96Zm1.39-1.23h4.57v-5.97l-4.57,5.97Z"/><path class="cls-10" d="m257.34,43.12v-11.2h1.35v9.92h6.1v1.28h-7.46Z"/><path class="cls-10" d="m267.46,43.12v-11.2h1.35v9.92h6.1v1.28h-7.46Z"/><path class="cls-10" d="m279.34,43.28c-.84,0-1.49-.21-1.95-.63-.46-.42-.69-.99-.69-1.7s.26-1.26.77-1.72,1.34-.68,2.48-.68h2.32v-.17c0-1.49-.68-2.23-2.04-2.23-.55,0-1.02.1-1.4.3-.38.2-.68.49-.91.86l-.89-.67c.32-.53.75-.94,1.29-1.23.54-.29,1.17-.43,1.88-.43h.16c.96,0,1.73.28,2.3.84.56.56.85,1.38.85,2.47v4.83h-1.22v-1.48c-.3.52-.71.92-1.21,1.2-.5.29-1.08.43-1.74.43Zm.24-1.13c.68,0,1.25-.17,1.7-.5.45-.33.78-.79,1-1.36v-.74h-2.26c-.74,0-1.27.12-1.57.35s-.46.55-.46.96.13.72.4.94c.27.22.67.34,1.2.34Z"/><path class="cls-10" d="m286.31,43.12v-11.2h1.54l4.26,7.11,4.22-7.11h1.55v11.2h-1.3v-9.34l-3.9,6.54h-1.2l-3.9-6.5v9.3h-1.29Z"/><path class="cls-10" d="m300.23,43.12c.36-1.21.77-2.46,1.23-3.76.46-1.3.95-2.58,1.47-3.85.52-1.27,1.04-2.47,1.56-3.59h1.63c.53,1.13,1.05,2.32,1.57,3.59.52,1.27,1.01,2.55,1.47,3.85.46,1.3.87,2.55,1.22,3.76h-1.45c-.14-.51-.29-1.04-.46-1.58s-.35-1.09-.53-1.65h-5.33c-.19.56-.36,1.11-.53,1.65s-.32,1.07-.46,1.58h-1.4Zm2.82-4.48h4.46c-.35-.97-.71-1.93-1.09-2.89-.38-.95-.76-1.86-1.14-2.7-.37.85-.75,1.75-1.14,2.7-.38.96-.75,1.92-1.1,2.89Z"/><path class="cls-10" d="m316.79,43.12l4.74-9.95h-6.19v-1.25h7.6v1.14l-4.7,10.06h-1.45Z"/><path class="cls-10" d="m325.39,43.12v-11.2h4.6c1.22,0,2.14.25,2.76.76.63.5.94,1.21.94,2.13,0,.59-.14,1.1-.42,1.53-.28.43-.76.75-1.44.95.88.18,1.51.52,1.9,1.01.39.49.58,1.09.58,1.8,0,.95-.33,1.69-.99,2.22-.66.53-1.62.8-2.88.8h-5.06Zm4.52-9.97h-3.2v3.76h3.3c1.56,0,2.34-.63,2.34-1.89,0-.64-.2-1.11-.6-1.42-.4-.3-1.01-.46-1.84-.46Zm.46,4.98h-3.66v3.76h3.73c1.67,0,2.51-.63,2.51-1.88,0-.62-.19-1.09-.58-1.41-.39-.32-1.05-.47-2-.47Z"/><path class="cls-7" d="m2.98,120.86h5.18c.87,0,1.4,0,1.75.15.5.18.9.58,1.09,1.08.15.35.15.87.15,1.75v5.04c0,.87,0,1.4-.15,1.75-.18.5-.58.9-1.09,1.09-.35.15-.87.15-1.75.15H2.98c-.87,0-1.4,0-1.75-.15-.5-.18-.9-.58-1.09-1.09-.15-.35-.15-.87-.15-1.75v-5.04c0-.87,0-1.4.15-1.75.18-.5.58-.9,1.09-1.08.35-.15.87-.15,1.75-.15Z"/><path class="cls-10" d="m26.55,130.1v-6.86h-1.5v-1.1h1.5v-1c0-.94.24-1.66.72-2.16s1.14-.74,1.99-.74c.5,0,.94.06,1.32.17v1.13c-.22-.06-.42-.1-.6-.12s-.36-.03-.54-.03c-1.08,0-1.62.55-1.62,1.66v1.09h2.71v1.1h-2.71v6.86h-1.26Z"/><path class="cls-10" d="m32.69,120.47c-.27,0-.49-.08-.65-.25-.16-.17-.24-.38-.24-.64s.08-.47.24-.64c.16-.17.38-.25.65-.25s.49.08.65.25c.16.17.24.38.24.64s-.08.47-.24.64-.38.25-.65.25Zm-.63,9.63v-7.96h1.26v7.96h-1.26Z"/><path class="cls-10" d="m35.89,130.1v-7.96h1.26v1.51c.29-.52.67-.93,1.14-1.24.46-.3,1-.45,1.61-.45h.16c.9,0,1.6.3,2.1.9.5.6.74,1.46.74,2.57v4.66h-1.26v-4.48c0-.82-.15-1.44-.46-1.86-.3-.42-.78-.62-1.43-.62h-.15c-.59,0-1.1.19-1.52.58-.42.38-.73.87-.92,1.45v4.94h-1.26Z"/><path class="cls-10" d="m48.67,130.27c-.76,0-1.42-.17-1.99-.52s-1.01-.83-1.33-1.46-.48-1.35-.48-2.18.16-1.53.47-2.16c.31-.63.75-1.12,1.32-1.47.56-.36,1.21-.53,1.96-.53h.15c.7,0,1.32.17,1.84.52.52.35.93.84,1.21,1.48s.43,1.38.43,2.24v.43h-6.08c.08.76.35,1.37.8,1.82.45.45,1.04.67,1.76.67h.14c.43,0,.82-.09,1.19-.26.37-.17.67-.41.92-.7l.81.82c-.35.4-.78.71-1.29.94-.51.23-1.07.34-1.67.34h-.16Zm-.08-7.17c-.66,0-1.21.22-1.64.67-.43.45-.69,1.05-.78,1.81h4.8c-.04-.7-.25-1.29-.64-1.77s-.92-.71-1.6-.71h-.14Z"/><path class="cls-10" d="m53.61,126.34v-1.22h5.22v1.22h-5.22Z"/><path class="cls-10" d="m64.13,130.19c-.89,0-1.57-.22-2.05-.66-.48-.44-.72-1.15-.72-2.11v-4.18h-1.57v-1.1h1.57v-2.42h1.26v2.42h2.82v1.1h-2.82v4.01c0,.67.15,1.13.44,1.4s.71.4,1.24.4c.23,0,.45-.01.64-.04.19-.02.39-.06.6-.1v1.11c-.22.05-.45.1-.7.13s-.49.05-.72.05Z"/><path class="cls-10" d="m70.08,130.27c-.92,0-1.63-.3-2.11-.9-.49-.6-.73-1.46-.73-2.57v-4.66h1.26v4.48c0,.82.15,1.44.46,1.86s.78.63,1.43.63h.14c.59,0,1.1-.19,1.52-.58s.73-.87.93-1.45v-4.94h1.26v7.96h-1.26v-1.51c-.29.52-.67.93-1.14,1.24-.46.3-1,.45-1.61.45h-.16Z"/><path class="cls-10" d="m76.81,130.1v-7.96h1.26v1.51c.29-.52.67-.93,1.14-1.24.46-.3,1-.45,1.61-.45h.16c.9,0,1.6.3,2.1.9.5.6.74,1.46.74,2.57v4.66h-1.26v-4.48c0-.82-.15-1.44-.46-1.86-.3-.42-.78-.62-1.43-.62h-.15c-.59,0-1.1.19-1.52.58-.42.38-.73.87-.92,1.45v4.94h-1.26Z"/><path class="cls-10" d="m86.88,120.47c-.27,0-.49-.08-.65-.25-.16-.17-.24-.38-.24-.64s.08-.47.24-.64c.16-.17.38-.25.65-.25s.49.08.65.25c.16.17.24.38.24.64s-.08.47-.24.64-.38.25-.65.25Zm-.63,9.63v-7.96h1.26v7.96h-1.26Z"/><path class="cls-10" d="m90.07,130.1v-7.96h1.26v1.51c.29-.52.67-.93,1.14-1.24.46-.3,1-.45,1.61-.45h.16c.9,0,1.6.3,2.1.9.5.6.74,1.46.74,2.57v4.66h-1.26v-4.48c0-.82-.15-1.44-.46-1.86-.3-.42-.78-.62-1.43-.62h-.15c-.59,0-1.1.19-1.52.58-.42.38-.73.87-.92,1.45v4.94h-1.26Z"/><path class="cls-10" d="m102.31,127.67c-.41,0-.78-.05-1.13-.14-.26.28-.39.55-.39.79,0,.46.33.69.98.69h1.89c.95,0,1.67.17,2.14.52.47.35.7.85.7,1.51,0,.83-.38,1.47-1.14,1.92-.76.45-1.81.67-3.15.67-1.09,0-1.95-.17-2.59-.5-.64-.34-.96-.84-.96-1.5,0-.43.14-.81.42-1.12.28-.32.67-.59,1.16-.8-.34-.27-.5-.61-.5-1.04,0-.48.23-.97.68-1.45-.44-.26-.77-.59-.98-1.01-.22-.42-.33-.88-.33-1.38,0-.85.29-1.54.86-2.06.57-.53,1.35-.79,2.35-.79h.14c.74,0,1.37.15,1.9.46.3-.59.85-.88,1.63-.88.18,0,.38.02.61.06v1.05c-.14-.04-.27-.06-.38-.07-.11,0-.2-.01-.28-.01-.45,0-.78.11-.98.33.47.51.7,1.14.7,1.91,0,.84-.28,1.53-.85,2.06-.57.53-1.35.79-2.35.79h-.14Zm-2.42,3.72c0,.8.81,1.21,2.43,1.21.95,0,1.68-.13,2.18-.4.5-.27.75-.63.75-1.08,0-.69-.58-1.03-1.74-1.03h-2.22c-.43.12-.77.29-1.03.52s-.38.49-.38.79Zm2.42-4.76h.13c.63,0,1.12-.16,1.47-.49.34-.33.52-.77.52-1.32s-.17-.99-.52-1.32c-.34-.33-.83-.49-1.47-.49h-.13c-.63,0-1.12.16-1.46.49s-.52.77-.52,1.32.17.99.52,1.32.83.49,1.46.49Z"/><path class="cls-11" d="m29.53,185.44c-.89,0-1.57-.22-2.05-.66-.48-.44-.72-1.15-.72-2.11v-4.18h-1.57v-1.1h1.57v-2.42h1.26v2.42h2.82v1.1h-2.82v4.01c0,.67.15,1.13.44,1.4s.71.4,1.24.4c.23,0,.45-.01.64-.04.19-.02.39-.06.6-.1v1.11c-.22.05-.45.1-.7.13s-.49.05-.72.05Z"/><path class="cls-11" d="m32.76,185.35v-7.96h1.26v1.38c.25-.5.57-.89.96-1.16.39-.27.84-.4,1.35-.4.25,0,.48.02.7.07v1.26c-.12-.02-.25-.03-.4-.04-.14-.01-.28-.02-.41-.02-.58,0-1.05.18-1.41.53-.36.35-.62.83-.8,1.42v4.9h-1.26Z"/><path class="cls-11" d="m41.41,185.52c-.92,0-1.63-.3-2.11-.9-.49-.6-.73-1.46-.73-2.57v-4.66h1.26v4.48c0,.82.15,1.44.46,1.86s.78.63,1.43.63h.14c.59,0,1.1-.19,1.52-.58s.73-.87.93-1.45v-4.94h1.26v7.96h-1.26v-1.51c-.29.52-.67.93-1.14,1.24-.46.3-1,.45-1.61.45h-.16Z"/><path class="cls-11" d="m48.13,185.35v-7.96h1.26v1.51c.29-.52.67-.93,1.14-1.24.46-.3,1-.45,1.61-.45h.16c.9,0,1.6.3,2.1.9.5.6.74,1.46.74,2.57v4.66h-1.26v-4.48c0-.82-.15-1.44-.46-1.86-.3-.42-.78-.62-1.43-.62h-.15c-.59,0-1.1.19-1.52.58-.42.38-.73.87-.92,1.45v4.94h-1.26Z"/><path class="cls-11" d="m60.95,185.52c-.76,0-1.42-.17-2-.51-.58-.34-1.02-.82-1.35-1.44-.32-.62-.48-1.36-.48-2.2s.16-1.58.48-2.21c.32-.62.77-1.11,1.34-1.44s1.25-.51,2.01-.51h.16c.62,0,1.19.15,1.72.46.53.3.96.72,1.29,1.24l-.97.7c-.25-.38-.54-.68-.89-.89s-.74-.32-1.18-.32h-.15c-.77,0-1.38.27-1.82.81-.45.54-.67,1.27-.67,2.17s.22,1.62.67,2.16c.45.54,1.06.81,1.82.81h.15c.45,0,.85-.1,1.2-.29.35-.19.66-.45.92-.78l.92.75c-.34.46-.77.83-1.3,1.09-.52.26-1.09.4-1.71.4h-.16Z"/><path class="cls-11" d="m68.2,185.5c-.84,0-1.49-.21-1.95-.63-.46-.42-.69-.99-.69-1.7s.26-1.26.77-1.72,1.34-.68,2.48-.68h2.32v-.17c0-1.49-.68-2.23-2.04-2.23-.55,0-1.02.1-1.4.3-.38.2-.68.49-.91.86l-.89-.67c.32-.53.75-.94,1.29-1.23.54-.29,1.17-.43,1.88-.43h.16c.96,0,1.73.28,2.3.84.56.56.85,1.38.85,2.47v4.83h-1.22v-1.48c-.3.52-.71.92-1.21,1.2-.5.29-1.08.43-1.74.43Zm.24-1.13c.68,0,1.25-.17,1.7-.5.45-.33.78-.79,1-1.36v-.74h-2.26c-.74,0-1.27.12-1.57.35s-.46.55-.46.96.13.72.4.94c.27.22.67.34,1.2.34Z"/><path class="cls-11" d="m78.25,185.44c-.89,0-1.57-.22-2.05-.66-.48-.44-.72-1.15-.72-2.11v-4.18h-1.57v-1.1h1.57v-2.42h1.26v2.42h2.82v1.1h-2.82v4.01c0,.67.15,1.13.44,1.4s.71.4,1.24.4c.23,0,.45-.01.64-.04.19-.02.39-.06.6-.1v1.11c-.22.05-.45.1-.7.13s-.49.05-.72.05Z"/><path class="cls-11" d="m82.11,175.72c-.27,0-.49-.08-.65-.25-.16-.17-.24-.38-.24-.64s.08-.47.24-.64c.16-.17.38-.25.65-.25s.49.08.65.25c.16.17.24.38.24.64s-.08.47-.24.64-.38.25-.65.25Zm-.63,9.63v-7.96h1.26v7.96h-1.26Z"/><path class="cls-11" d="m85.3,185.35v-7.96h1.26v1.51c.29-.52.67-.93,1.14-1.24.46-.3,1-.45,1.61-.45h.16c.9,0,1.6.3,2.1.9.5.6.74,1.46.74,2.57v4.66h-1.26v-4.48c0-.82-.15-1.44-.46-1.86-.3-.42-.78-.62-1.43-.62h-.15c-.59,0-1.1.19-1.52.58-.42.38-.73.87-.92,1.45v4.94h-1.26Z"/><path class="cls-11" d="m97.54,182.92c-.41,0-.78-.05-1.13-.14-.26.28-.39.55-.39.79,0,.46.33.69.98.69h1.89c.95,0,1.67.17,2.14.52.47.35.7.85.7,1.51,0,.83-.38,1.47-1.14,1.92-.76.45-1.81.67-3.15.67-1.09,0-1.95-.17-2.59-.5-.64-.34-.96-.84-.96-1.5,0-.43.14-.81.42-1.12.28-.32.67-.59,1.16-.8-.34-.27-.5-.61-.5-1.04,0-.48.23-.97.68-1.45-.44-.26-.77-.59-.98-1.01-.22-.42-.33-.88-.33-1.38,0-.85.29-1.54.86-2.06.57-.53,1.35-.79,2.35-.79h.14c.74,0,1.37.15,1.9.46.3-.59.85-.88,1.63-.88.18,0,.38.02.61.06v1.05c-.14-.04-.27-.06-.38-.07-.11,0-.2-.01-.28-.01-.45,0-.78.11-.98.33.47.51.7,1.14.7,1.91,0,.84-.28,1.53-.85,2.06-.57.53-1.35.79-2.35.79h-.14Zm-2.42,3.72c0,.8.81,1.21,2.43,1.21.95,0,1.68-.13,2.18-.4.5-.27.75-.63.75-1.08,0-.69-.58-1.03-1.74-1.03h-2.22c-.43.12-.77.29-1.03.52s-.38.49-.38.79Zm2.42-4.76h.13c.63,0,1.12-.16,1.47-.49.34-.33.52-.77.52-1.32s-.17-.99-.52-1.32c-.34-.33-.83-.49-1.47-.49h-.13c-.63,0-1.12.16-1.46.49s-.52.77-.52,1.32.17.99.52,1.32.83.49,1.46.49Z"/><path class="cls-6" d="m2.98,176.11h5.18c.87,0,1.4,0,1.75.15.5.18.9.58,1.09,1.09.15.35.15.87.15,1.75v5.04c0,.87,0,1.4-.15,1.75-.18.5-.58.9-1.09,1.09-.35.15-.87.15-1.75.15H2.98c-.87,0-1.4,0-1.75-.15-.5-.18-.9-.58-1.09-1.09-.15-.35-.15-.87-.15-1.75v-5.04c0-.87,0-1.4.15-1.75.18-.5.58-.9,1.09-1.09.35-.15.87-.15,1.75-.15Z"/><path class="cls-10" d="m26.55,157.72v-6.86h-1.5v-1.1h1.5v-1c0-.95.24-1.66.72-2.16.48-.49,1.14-.74,1.99-.74.5,0,.94.06,1.32.17v1.13c-.22-.06-.42-.1-.6-.12s-.36-.03-.54-.03c-1.08,0-1.62.55-1.62,1.66v1.09h2.71v1.1h-2.71v6.86h-1.26Z"/><path class="cls-10" d="m32.06,157.72v-7.96h1.26v1.38c.25-.5.57-.89.96-1.16.39-.27.84-.4,1.35-.4.25,0,.48.02.7.07v1.27c-.12-.02-.25-.03-.4-.04-.14,0-.28-.02-.41-.02-.58,0-1.05.18-1.41.53-.36.36-.62.83-.8,1.42v4.9h-1.26Z"/><path class="cls-10" d="m41.25,157.9c-.76,0-1.42-.17-1.99-.52-.57-.35-1.01-.83-1.33-1.46-.32-.62-.48-1.35-.48-2.18s.16-1.53.47-2.16c.31-.63.75-1.12,1.32-1.47.56-.36,1.21-.53,1.96-.53h.15c.7,0,1.32.17,1.84.52.52.35.93.84,1.21,1.48s.43,1.38.43,2.24v.43h-6.08c.08.76.35,1.37.8,1.81.45.45,1.04.67,1.76.67h.14c.43,0,.82-.09,1.19-.26.37-.17.67-.4.92-.7l.81.82c-.35.4-.78.71-1.29.94-.51.23-1.07.34-1.67.34h-.16Zm-.08-7.17c-.66,0-1.21.22-1.64.67-.43.45-.69,1.05-.78,1.81h4.8c-.04-.7-.25-1.29-.64-1.77s-.92-.71-1.6-.71h-.14Z"/><path class="cls-10" d="m50.23,157.9c-.76,0-1.42-.17-1.99-.52-.57-.35-1.01-.83-1.33-1.46-.32-.62-.48-1.35-.48-2.18s.16-1.53.47-2.16c.31-.63.75-1.12,1.32-1.47.56-.36,1.21-.53,1.96-.53h.15c.7,0,1.32.17,1.84.52.52.35.93.84,1.21,1.48s.43,1.38.43,2.24v.43h-6.08c.08.76.35,1.37.8,1.81.45.45,1.04.67,1.76.67h.14c.43,0,.82-.09,1.19-.26.37-.17.67-.4.92-.7l.81.82c-.35.4-.78.71-1.29.94-.51.23-1.07.34-1.67.34h-.16Zm-.08-7.17c-.66,0-1.21.22-1.64.67-.43.45-.69,1.05-.78,1.81h4.8c-.04-.7-.25-1.29-.64-1.77s-.92-.71-1.6-.71h-.14Z"/><path class="cls-10" d="m55.39,157.72v-1.01l4.72-5.85h-4.56v-1.1h6.16v1.02l-4.73,5.84h4.81v1.1h-6.4Z"/><path class="cls-10" d="m64.5,148.09c-.27,0-.49-.08-.65-.25-.16-.17-.24-.38-.24-.64s.08-.47.24-.64c.16-.16.38-.25.65-.25s.49.08.65.25c.16.17.24.38.24.64s-.08.47-.24.64c-.16.16-.38.25-.65.25Zm-.63,9.63v-7.96h1.26v7.96h-1.26Z"/><path class="cls-10" d="m67.69,157.72v-7.96h1.26v1.51c.29-.52.67-.94,1.14-1.24.46-.3,1-.45,1.61-.45h.16c.9,0,1.6.3,2.1.9.5.6.74,1.46.74,2.57v4.66h-1.26v-4.48c0-.82-.15-1.44-.46-1.86-.3-.42-.78-.62-1.43-.62h-.15c-.59,0-1.1.19-1.52.58-.42.38-.73.87-.92,1.45v4.94h-1.26Z"/><path class="cls-10" d="m79.93,155.29c-.41,0-.78-.04-1.13-.14-.26.28-.39.55-.39.79,0,.46.33.69.98.69h1.89c.95,0,1.67.18,2.14.52.47.35.7.85.7,1.51,0,.83-.38,1.47-1.14,1.92-.76.45-1.81.67-3.15.67-1.09,0-1.95-.17-2.59-.5-.64-.34-.96-.84-.96-1.5,0-.43.14-.81.42-1.12.28-.32.67-.59,1.16-.8-.34-.27-.5-.61-.5-1.04,0-.48.23-.97.68-1.45-.44-.26-.77-.59-.98-1.01-.22-.42-.33-.88-.33-1.38,0-.85.29-1.54.86-2.06s1.35-.79,2.35-.79h.14c.74,0,1.37.15,1.9.46.3-.59.85-.88,1.63-.88.18,0,.38.02.61.06v1.05c-.14-.04-.27-.06-.38-.07-.11,0-.2-.01-.28-.01-.45,0-.78.11-.98.33.47.51.7,1.14.7,1.91,0,.84-.28,1.53-.85,2.06-.57.53-1.35.79-2.35.79h-.14Zm-2.42,3.72c0,.8.81,1.21,2.43,1.21.95,0,1.68-.13,2.18-.4.5-.27.75-.62.75-1.08,0-.69-.58-1.03-1.74-1.03h-2.22c-.43.12-.77.29-1.03.52s-.38.49-.38.79Zm2.42-4.76h.13c.63,0,1.12-.16,1.47-.49.34-.33.52-.77.52-1.32s-.17-.99-.52-1.32c-.34-.33-.83-.49-1.47-.49h-.13c-.63,0-1.12.16-1.46.49s-.52.77-.52,1.32.17.99.52,1.32.83.49,1.46.49Z"/><path class="cls-8" d="m2.98,148.49h5.18c.87,0,1.4,0,1.75.15.5.18.9.58,1.09,1.08.15.35.15.87.15,1.75v5.04c0,.87,0,1.4-.15,1.75-.18.5-.58.9-1.09,1.09-.35.15-.87.15-1.75.15H2.98c-.87,0-1.4,0-1.75-.15-.5-.18-.9-.58-1.09-1.09-.15-.35-.15-.87-.15-1.75v-5.04c0-.87,0-1.4.15-1.75.18-.5.58-.9,1.09-1.08.35-.15.87-.15,1.75-.15Z"/><path class="cls-10" d="m704.48,171.29v-6.43h-1.4v-1.03h1.4v-.94c0-.88.22-1.56.67-2.02.45-.46,1.07-.69,1.87-.69.47,0,.88.05,1.24.16v1.06c-.21-.05-.39-.09-.57-.11-.17-.02-.34-.03-.51-.03-1.01,0-1.52.52-1.52,1.56v1.02h2.54v1.03h-2.54v6.43h-1.18Z"/><path class="cls-10" d="m710.24,162.26c-.25,0-.46-.08-.61-.23-.15-.15-.22-.35-.22-.6s.08-.45.22-.6c.15-.15.35-.23.61-.23s.46.08.61.23c.15.16.23.36.23.6s-.08.45-.23.6c-.15.16-.35.23-.61.23Zm-.59,9.03v-7.46h1.18v7.46h-1.18Z"/><path class="cls-10" d="m713.24,171.29v-7.46h1.18v1.42c.28-.49.63-.88,1.07-1.16.43-.28.94-.42,1.51-.42h.15c.84,0,1.5.28,1.96.84s.7,1.37.7,2.41v4.37h-1.18v-4.2c0-.77-.14-1.35-.43-1.74-.29-.39-.73-.58-1.34-.58h-.14c-.55,0-1.03.18-1.42.54-.39.36-.68.81-.87,1.36v4.63h-1.18Z"/><path class="cls-10" d="m724.09,171.43c-.79,0-1.39-.2-1.83-.59-.43-.39-.65-.92-.65-1.59s.24-1.18.72-1.61c.48-.43,1.26-.64,2.33-.64h2.18v-.16c0-1.4-.64-2.09-1.91-2.09-.52,0-.96.09-1.31.29s-.64.46-.85.81l-.83-.63c.3-.5.7-.88,1.21-1.15.51-.27,1.09-.4,1.76-.4h.15c.9,0,1.62.26,2.15.78s.79,1.29.79,2.31v4.53h-1.15v-1.39c-.29.49-.66.86-1.13,1.13-.47.27-1.01.4-1.63.4Zm.23-1.06c.64,0,1.17-.16,1.59-.47s.73-.74.94-1.27v-.69h-2.12c-.69,0-1.19.11-1.47.33-.29.22-.43.52-.43.9s.12.67.38.88c.25.21.62.32,1.12.32Z"/><path class="cls-10" d="m730.28,171.29v-10.95h1.18v10.95h-1.18Z"/><path class="cls-10" d="m740.33,171.38c-.83,0-1.47-.21-1.92-.62-.45-.42-.67-1.08-.67-1.98v-3.92h-1.47v-1.03h1.47v-2.27h1.19v2.27h2.64v1.03h-2.64v3.76c0,.62.14,1.06.41,1.31.27.25.66.37,1.17.37.22,0,.42-.01.6-.03.18-.02.37-.05.56-.09v1.04c-.21.05-.42.09-.65.12-.23.03-.46.05-.68.05Z"/><path class="cls-10" d="m746.57,171.46c-.75,0-1.39-.17-1.94-.5s-.97-.79-1.26-1.38c-.3-.58-.45-1.25-.45-2.01s.15-1.43.45-2.02c.3-.58.72-1.04,1.26-1.38s1.19-.5,1.94-.5h.15c.75,0,1.39.17,1.94.5s.97.79,1.26,1.38c.3.58.45,1.26.45,2.02s-.15,1.42-.45,2.01c-.3.58-.72,1.04-1.26,1.38s-1.19.5-1.94.5h-.15Zm0-1.09h.14c.75,0,1.33-.25,1.77-.77.44-.51.65-1.19.65-2.03s-.22-1.53-.65-2.04c-.43-.51-1.02-.76-1.77-.76h-.14c-.75,0-1.33.25-1.77.76s-.65,1.19-.65,2.04.22,1.52.65,2.03c.43.51,1.02.77,1.77.77Z"/><path class="cls-10" d="m752.34,171.29v-10.95h1.18v6.79c.67-.54,1.32-1.1,1.94-1.65.62-.56,1.2-1.11,1.72-1.65h1.48c-.58.6-1.2,1.2-1.86,1.8-.66.6-1.34,1.18-2.03,1.73,1.45,1.17,2.86,2.48,4.23,3.93h-1.56c-.6-.62-1.24-1.26-1.92-1.89-.69-.64-1.35-1.22-2-1.74v3.63h-1.18Z"/><path class="cls-10" d="m763.09,171.46c-.71,0-1.33-.16-1.87-.49-.53-.33-.95-.78-1.25-1.37-.3-.58-.45-1.26-.45-2.04s.15-1.43.44-2.02c.29-.59.71-1.05,1.23-1.38.53-.33,1.14-.5,1.83-.5h.14c.66,0,1.24.16,1.72.49.49.33.87.79,1.14,1.38.27.6.4,1.3.4,2.1v.41h-5.7c.08.71.33,1.28.75,1.7.42.42.97.63,1.65.63h.13c.4,0,.77-.08,1.11-.24.34-.16.63-.38.87-.66l.76.77c-.33.38-.73.67-1.21.89-.48.21-1,.32-1.57.32h-.15Zm-.08-6.72c-.62,0-1.13.21-1.54.63-.41.42-.65.99-.73,1.69h4.5c-.04-.66-.23-1.21-.6-1.66-.36-.44-.86-.67-1.5-.67h-.13Z"/><path class="cls-10" d="m768.38,171.29v-7.46h1.18v1.42c.28-.49.63-.88,1.07-1.16.43-.28.94-.42,1.51-.42h.15c.85,0,1.5.28,1.96.84.47.56.7,1.37.7,2.41v4.37h-1.19v-4.2c0-.77-.14-1.35-.43-1.74-.29-.39-.73-.58-1.34-.58h-.14c-.55,0-1.03.18-1.42.54-.39.36-.68.81-.87,1.36v4.63h-1.18Z"/><path class="cls-10" d="m779.84,171.46c-1.49,0-2.57-.49-3.24-1.46l.83-.72c.53.76,1.33,1.14,2.41,1.14h.13c.55,0,.98-.1,1.29-.29.31-.19.46-.46.46-.81,0-.3-.1-.54-.31-.72-.21-.18-.56-.32-1.05-.42l-1.35-.28c-1.43-.29-2.15-.96-2.15-2,0-.67.27-1.21.8-1.62.53-.41,1.23-.61,2.1-.61h.15c1.27,0,2.22.46,2.85,1.39l-.82.67c-.25-.36-.54-.61-.88-.77s-.72-.24-1.16-.24h-.14c-.51,0-.93.1-1.25.29-.32.19-.48.46-.48.8,0,.26.1.48.29.63.19.16.52.28.97.38l1.48.31c.67.14,1.18.38,1.56.73.37.34.56.82.56,1.41,0,.66-.25,1.19-.76,1.59s-1.22.61-2.13.61h-.16Z"/><path class="cls-10" d="m789.77,171.29c-.45-1.2-.88-2.42-1.29-3.67-.41-1.25-.79-2.52-1.15-3.79h1.31c.27,1.08.57,2.17.89,3.25.32,1.08.66,2.15,1.01,3.21l1.82-6h1.3l1.84,6.02c.35-1.07.69-2.14,1.02-3.22.32-1.08.62-2.17.9-3.26h1.27c-.36,1.28-.74,2.54-1.14,3.79-.41,1.25-.84,2.48-1.29,3.67h-1.52l-1.72-5.69-1.73,5.69h-1.51Z"/><path class="cls-10" d="m799.02,173.01l3.92-12.67h1.2l-3.92,12.67h-1.2Z"/><path class="cls-10" d="m521.56,162.26c-.26,0-.46-.08-.61-.23-.15-.15-.23-.35-.23-.6s.08-.45.23-.6c.15-.15.35-.23.61-.23s.46.08.61.23c.15.16.22.36.22.6s-.08.45-.22.6c-.15.16-.35.23-.61.23Zm-.59,9.03v-7.46h1.18v7.46h-1.18Z"/><path class="cls-10" d="m524.55,171.29v-7.46h1.18v1.42c.28-.49.63-.88,1.07-1.16.43-.28.94-.42,1.51-.42h.15c.84,0,1.5.28,1.96.84.47.56.7,1.37.7,2.41v4.37h-1.19v-4.2c0-.77-.14-1.35-.43-1.74-.29-.39-.73-.58-1.34-.58h-.14c-.55,0-1.03.18-1.42.54-.39.36-.68.81-.87,1.36v4.63h-1.18Z"/><path class="cls-10" d="m533.99,162.26c-.25,0-.46-.08-.61-.23-.15-.15-.23-.35-.23-.6s.08-.45.23-.6c.15-.15.35-.23.61-.23s.46.08.61.23c.15.16.23.36.23.6s-.08.45-.23.6c-.15.16-.35.23-.61.23Zm-.59,9.03v-7.46h1.19v7.46h-1.19Z"/><path class="cls-10" d="m540.21,171.38c-.83,0-1.47-.21-1.92-.62-.45-.42-.68-1.08-.68-1.98v-3.92h-1.47v-1.03h1.47v-2.27h1.19v2.27h2.64v1.03h-2.64v3.76c0,.62.14,1.06.41,1.31.27.25.66.37,1.17.37.22,0,.42-.01.6-.03s.37-.05.56-.09v1.04c-.21.05-.42.09-.65.12s-.46.05-.67.05Z"/><path class="cls-10" d="m543.83,162.26c-.25,0-.46-.08-.61-.23-.15-.15-.23-.35-.23-.6s.08-.45.23-.6c.15-.15.35-.23.61-.23s.46.08.61.23c.15.16.23.36.23.6s-.08.45-.23.6c-.15.16-.35.23-.61.23Zm-.59,9.03v-7.46h1.19v7.46h-1.19Z"/><path class="cls-10" d="m548.83,171.43c-.79,0-1.39-.2-1.83-.59-.43-.39-.65-.92-.65-1.59s.24-1.18.72-1.61c.48-.43,1.26-.64,2.33-.64h2.17v-.16c0-1.4-.64-2.09-1.91-2.09-.52,0-.96.09-1.31.29s-.64.46-.85.81l-.83-.63c.3-.5.7-.88,1.21-1.15s1.09-.4,1.76-.4h.15c.91,0,1.62.26,2.15.78.53.52.8,1.29.8,2.31v4.53h-1.15v-1.39c-.29.49-.66.86-1.13,1.13-.47.27-1.02.4-1.63.4Zm.22-1.06c.64,0,1.17-.16,1.59-.47s.73-.74.94-1.27v-.69h-2.12c-.69,0-1.19.11-1.47.33-.29.22-.43.52-.43.9s.12.67.38.88c.25.21.62.32,1.12.32Z"/><path class="cls-10" d="m555.02,171.29v-10.95h1.18v10.95h-1.18Z"/><path class="cls-10" d="m565.07,171.38c-.83,0-1.47-.21-1.92-.62-.45-.42-.67-1.08-.67-1.98v-3.92h-1.47v-1.03h1.47v-2.27h1.18v2.27h2.64v1.03h-2.64v3.76c0,.62.14,1.06.41,1.31.27.25.66.37,1.17.37.22,0,.42-.01.6-.03s.37-.05.56-.09v1.04c-.21.05-.42.09-.65.12s-.46.05-.68.05Z"/><path class="cls-10" d="m571.31,171.46c-.75,0-1.39-.17-1.94-.5s-.97-.79-1.26-1.38c-.3-.58-.45-1.25-.45-2.01s.15-1.43.45-2.02c.3-.58.72-1.04,1.26-1.38s1.19-.5,1.94-.5h.15c.74,0,1.39.17,1.93.5s.97.79,1.26,1.38.45,1.26.45,2.02-.15,1.42-.45,2.01-.72,1.04-1.26,1.38-1.19.5-1.93.5h-.15Zm0-1.09h.13c.75,0,1.33-.25,1.77-.77.44-.51.65-1.19.65-2.03s-.22-1.53-.65-2.04c-.43-.51-1.02-.76-1.77-.76h-.13c-.75,0-1.34.25-1.77.76s-.65,1.19-.65,2.04.22,1.52.65,2.03c.43.51,1.02.77,1.77.77Z"/><path class="cls-10" d="m577.08,171.29v-10.95h1.18v6.79c.67-.54,1.32-1.1,1.94-1.65.62-.56,1.2-1.11,1.72-1.65h1.49c-.58.6-1.2,1.2-1.86,1.8-.66.6-1.34,1.18-2.03,1.73,1.46,1.17,2.87,2.48,4.23,3.93h-1.56c-.6-.62-1.24-1.26-1.92-1.89-.69-.64-1.35-1.22-2-1.74v3.63h-1.18Z"/><path class="cls-10" d="m587.83,171.46c-.71,0-1.33-.16-1.87-.49-.53-.33-.95-.78-1.25-1.37-.3-.58-.45-1.26-.45-2.04s.15-1.43.44-2.02c.29-.59.71-1.05,1.23-1.38.53-.33,1.14-.5,1.83-.5h.14c.66,0,1.23.16,1.72.49.49.33.87.79,1.14,1.38.27.6.4,1.3.4,2.1v.41h-5.7c.08.71.33,1.28.75,1.7.42.42.97.63,1.65.63h.13c.4,0,.77-.08,1.11-.24s.63-.38.87-.66l.76.77c-.32.38-.73.67-1.21.89s-1,.32-1.57.32h-.15Zm-.08-6.72c-.62,0-1.13.21-1.54.63-.4.42-.65.99-.73,1.69h4.5c-.04-.66-.23-1.21-.6-1.66-.36-.44-.86-.67-1.5-.67h-.14Z"/><path class="cls-10" d="m593.12,171.29v-7.46h1.18v1.42c.28-.49.63-.88,1.07-1.16.43-.28.94-.42,1.51-.42h.15c.84,0,1.5.28,1.96.84.47.56.7,1.37.7,2.41v4.37h-1.19v-4.2c0-.77-.14-1.35-.43-1.74-.29-.39-.73-.58-1.34-.58h-.14c-.55,0-1.03.18-1.42.54-.39.36-.68.81-.87,1.36v4.63h-1.18Z"/><path class="cls-10" d="m604.58,171.46c-1.49,0-2.57-.49-3.24-1.46l.83-.72c.53.76,1.33,1.14,2.41,1.14h.13c.55,0,.98-.1,1.29-.29.31-.19.46-.46.46-.81,0-.3-.1-.54-.31-.72-.21-.18-.56-.32-1.05-.42l-1.35-.28c-1.43-.29-2.14-.96-2.14-2,0-.67.27-1.21.8-1.62.53-.41,1.23-.61,2.1-.61h.15c1.27,0,2.22.46,2.85,1.39l-.82.67c-.25-.36-.54-.61-.88-.77s-.72-.24-1.16-.24h-.13c-.52,0-.93.1-1.25.29-.32.19-.48.46-.48.8,0,.26.1.48.29.63.19.16.52.28.97.38l1.48.31c.67.14,1.18.38,1.56.73s.56.82.56,1.41c0,.66-.25,1.19-.76,1.59-.51.41-1.22.61-2.13.61h-.16Z"/><path class="cls-10" d="m407.08,171.29v-7.46h1.18v1.3c.24-.47.54-.83.9-1.08.36-.25.79-.38,1.27-.38.23,0,.45.02.66.07v1.18c-.11-.01-.24-.03-.37-.04-.13-.01-.26-.02-.39-.02-.54,0-.99.17-1.32.5-.34.33-.59.78-.75,1.33v4.6h-1.18Z"/><path class="cls-10" d="m414.65,171.43c-.79,0-1.39-.2-1.83-.59-.43-.39-.65-.92-.65-1.59s.24-1.18.72-1.61c.48-.43,1.26-.64,2.33-.64h2.18v-.16c0-1.4-.64-2.09-1.91-2.09-.52,0-.96.09-1.31.29s-.64.46-.85.81l-.83-.63c.3-.5.7-.88,1.21-1.15s1.09-.4,1.76-.4h.15c.9,0,1.62.26,2.15.78.53.52.8,1.29.8,2.31v4.53h-1.15v-1.39c-.29.49-.66.86-1.13,1.13-.47.27-1.02.4-1.63.4Zm.23-1.06c.64,0,1.17-.16,1.59-.47s.73-.74.94-1.27v-.69h-2.12c-.69,0-1.19.11-1.47.33-.29.22-.43.52-.43.9s.12.67.38.88c.25.21.62.32,1.12.32Z"/><path class="cls-10" d="m420.84,171.29v-7.46h1.18v1.42c.28-.49.63-.88,1.07-1.16.43-.28.94-.42,1.51-.42h.15c.85,0,1.5.28,1.96.84.47.56.7,1.37.7,2.41v4.37h-1.19v-4.2c0-.77-.14-1.35-.43-1.74-.29-.39-.73-.58-1.34-.58h-.14c-.55,0-1.03.18-1.42.54-.39.36-.68.81-.87,1.36v4.63h-1.18Z"/><path class="cls-10" d="m429.69,171.29v-10.95h1.18v6.79c.67-.54,1.32-1.1,1.94-1.65.62-.56,1.2-1.11,1.72-1.65h1.49c-.58.6-1.2,1.2-1.86,1.8-.66.6-1.34,1.18-2.03,1.73,1.45,1.17,2.86,2.48,4.23,3.93h-1.56c-.59-.62-1.24-1.26-1.92-1.89-.69-.64-1.35-1.22-2-1.74v3.63h-1.18Z"/><path class="cls-10" d="m440.44,171.46c-.71,0-1.33-.16-1.87-.49s-.95-.78-1.25-1.37c-.3-.58-.45-1.26-.45-2.04s.15-1.43.44-2.02c.29-.59.71-1.05,1.23-1.38.53-.33,1.14-.5,1.83-.5h.14c.66,0,1.24.16,1.73.49.49.33.87.79,1.14,1.38.27.6.4,1.3.4,2.1v.41h-5.7c.08.71.33,1.28.75,1.7.42.42.97.63,1.65.63h.13c.4,0,.77-.08,1.11-.24.34-.16.63-.38.87-.66l.76.77c-.32.38-.73.67-1.21.89s-1,.32-1.57.32h-.15Zm-.08-6.72c-.62,0-1.13.21-1.54.63s-.65.99-.73,1.69h4.5c-.04-.66-.23-1.21-.6-1.66-.36-.44-.86-.67-1.5-.67h-.14Z"/><path class="cls-10" d="m448.58,171.46c-.66,0-1.24-.17-1.72-.5-.49-.33-.87-.79-1.14-1.37s-.41-1.26-.41-2.03.14-1.45.41-2.03.65-1.04,1.14-1.37c.49-.33,1.06-.5,1.72-.5h.15c.54,0,1.03.12,1.48.36s.82.59,1.09,1.07v-4.75h1.19v10.95h-1.19v-1.34c-.27.5-.63.88-1.08,1.13-.45.25-.95.38-1.5.38h-.15Zm.28-1.09h.14c.55,0,1.03-.16,1.42-.49.39-.33.69-.75.89-1.27v-2.09c-.2-.52-.5-.94-.89-1.27-.4-.33-.87-.49-1.42-.49h-.14c-.71,0-1.28.25-1.7.73-.42.49-.63,1.18-.63,2.07s.21,1.58.63,2.07c.42.49.98.73,1.7.73Z"/><path class="cls-10" d="m458.12,171.29v-10.95h1.18v10.95h-1.18Z"/><path class="cls-10" d="m464.92,171.46c-.75,0-1.39-.17-1.93-.5s-.97-.79-1.26-1.38c-.3-.58-.45-1.25-.45-2.01s.15-1.43.45-2.02c.3-.58.72-1.04,1.26-1.38s1.19-.5,1.93-.5h.15c.75,0,1.39.17,1.93.5s.97.79,1.26,1.38c.3.58.45,1.26.45,2.02s-.15,1.42-.45,2.01c-.3.58-.72,1.04-1.26,1.38s-1.19.5-1.93.5h-.15Zm0-1.09h.13c.75,0,1.33-.25,1.77-.77.43-.51.65-1.19.65-2.03s-.22-1.53-.65-2.04c-.44-.51-1.03-.76-1.77-.76h-.13c-.75,0-1.33.25-1.77.76-.43.51-.65,1.19-.65,2.04s.22,1.52.65,2.03c.44.51,1.03.77,1.77.77Z"/><path class="cls-10" d="m473.32,169.01c-.38,0-.73-.04-1.06-.13-.25.26-.37.51-.37.74,0,.43.31.65.92.65h1.77c.89,0,1.56.16,2,.49.44.33.66.8.66,1.41,0,.78-.36,1.38-1.07,1.8-.71.42-1.7.63-2.96.63-1.02,0-1.83-.16-2.43-.47-.6-.32-.9-.79-.9-1.41,0-.41.13-.76.39-1.05.26-.3.63-.55,1.09-.75-.32-.25-.47-.58-.47-.97,0-.46.21-.91.64-1.36-.41-.24-.72-.56-.92-.95s-.31-.82-.31-1.29c0-.79.27-1.44.8-1.93s1.27-.74,2.21-.74h.13c.69,0,1.28.15,1.78.44.29-.55.8-.83,1.53-.83.17,0,.36.02.57.06v.98c-.13-.04-.25-.06-.35-.06-.1,0-.19-.01-.26-.01-.42,0-.73.1-.92.31.44.47.66,1.07.66,1.79,0,.79-.26,1.43-.79,1.93s-1.26.74-2.21.74h-.13Zm-2.26,3.49c0,.76.76,1.13,2.28,1.13.9,0,1.58-.12,2.05-.38s.71-.59.71-1.01c0-.64-.54-.97-1.63-.97h-2.08c-.4.11-.73.27-.96.48-.24.21-.36.46-.36.74Zm2.27-4.46h.12c.59,0,1.05-.15,1.38-.46.32-.31.48-.72.48-1.23s-.16-.93-.48-1.23-.78-.46-1.38-.46h-.12c-.59,0-1.05.15-1.37.46s-.49.72-.49,1.23.16.93.49,1.23c.33.31.78.46,1.37.46Z"/><path class="cls-10" d="m479.46,162.26c-.25,0-.46-.08-.61-.23-.15-.15-.23-.35-.23-.6s.08-.45.23-.6c.15-.15.35-.23.61-.23s.46.08.61.23c.15.16.22.36.22.6s-.08.45-.22.6c-.15.16-.35.23-.61.23Zm-.59,9.03v-7.46h1.18v7.46h-1.18Z"/><path class="cls-10" d="m485.68,171.38c-.83,0-1.47-.21-1.92-.62s-.67-1.08-.67-1.98v-3.92h-1.47v-1.03h1.47v-2.27h1.18v2.27h2.64v1.03h-2.64v3.76c0,.62.14,1.06.41,1.31.27.25.66.37,1.17.37.22,0,.42-.01.6-.03.18-.02.37-.05.56-.09v1.04c-.21.05-.42.09-.65.12-.23.03-.46.05-.67.05Z"/><path class="cls-10" d="m491.33,171.46c-1.49,0-2.57-.49-3.24-1.46l.83-.72c.53.76,1.33,1.14,2.41,1.14h.13c.55,0,.98-.1,1.29-.29.31-.19.46-.46.46-.81,0-.3-.1-.54-.31-.72-.21-.18-.56-.32-1.05-.42l-1.35-.28c-1.43-.29-2.15-.96-2.15-2,0-.67.27-1.21.8-1.62.53-.41,1.23-.61,2.1-.61h.15c1.27,0,2.22.46,2.85,1.39l-.82.67c-.25-.36-.54-.61-.88-.77s-.72-.24-1.16-.24h-.14c-.51,0-.93.1-1.25.29-.32.19-.48.46-.48.8,0,.26.1.48.29.63.19.16.52.28.97.38l1.48.31c.67.14,1.18.38,1.56.73.37.34.56.82.56,1.41,0,.66-.25,1.19-.76,1.59s-1.22.61-2.13.61h-.16Z"/><path class="cls-11" d="m834.22,51.17c-.83,0-1.47-.21-1.92-.62-.45-.42-.67-1.08-.67-1.98v-3.92h-1.47v-1.03h1.47v-2.27h1.19v2.27h2.64v1.03h-2.64v3.76c0,.62.14,1.06.41,1.31.27.25.66.37,1.17.37.22,0,.42-.01.6-.03.18-.02.37-.05.56-.09v1.04c-.21.05-.42.09-.65.12-.23.03-.46.05-.68.05Z"/><path class="cls-11" d="m840.47,51.24c-.75,0-1.39-.17-1.94-.5s-.97-.79-1.26-1.38c-.3-.58-.45-1.25-.45-2.01s.15-1.43.45-2.02c.3-.58.72-1.04,1.26-1.38s1.19-.5,1.94-.5h.15c.75,0,1.39.17,1.94.5s.97.79,1.26,1.38c.3.58.45,1.26.45,2.02s-.15,1.42-.45,2.01c-.3.58-.72,1.04-1.26,1.38s-1.19.5-1.94.5h-.15Zm0-1.09h.14c.75,0,1.33-.25,1.77-.77.44-.51.65-1.19.65-2.03s-.22-1.53-.65-2.04c-.43-.51-1.02-.76-1.77-.76h-.14c-.75,0-1.33.25-1.77.76s-.65,1.19-.65,2.04.22,1.52.65,2.03c.43.51,1.02.77,1.77.77Z"/><path class="cls-11" d="m846.23,54.23v-10.61h1.18v1.34c.27-.5.63-.88,1.08-1.13.45-.25.95-.38,1.5-.38h.15c.66,0,1.23.17,1.72.5s.87.79,1.14,1.37.41,1.26.41,2.03-.14,1.44-.41,2.03-.65,1.04-1.14,1.37-1.07.5-1.72.5h-.15c-.54,0-1.04-.12-1.49-.36s-.81-.59-1.09-1.07v4.41h-1.18Zm3.49-4.07h.14c.71,0,1.28-.24,1.7-.73.42-.49.63-1.18.63-2.07s-.21-1.58-.63-2.07c-.42-.49-.98-.73-1.7-.73h-.14c-.55,0-1.03.16-1.42.49s-.69.75-.89,1.27v2.09c.2.52.5.94.89,1.27.39.33.87.49,1.42.49Z"/><path class="cls-11" d="m854.74,47.55v-1.14h4.9v1.14h-4.9Z"/><path class="cls-11" d="m861.38,51.08v-10.95h1.18v6.79c.67-.54,1.32-1.1,1.94-1.65.62-.56,1.2-1.11,1.72-1.65h1.49c-.58.6-1.2,1.2-1.86,1.8-.66.6-1.34,1.18-2.03,1.73,1.46,1.17,2.87,2.48,4.23,3.93h-1.56c-.59-.62-1.24-1.26-1.92-1.89s-1.35-1.22-2-1.74v3.63h-1.18Z"/><polyline class="cls-3" points="822.78 .8 822.78 1.3 822.78 89.85 822.78 90.35"/><line class="cls-2" x1="819.78" y1="90.65" x2="825.78" y2="90.65"/><line class="cls-2" x1="825.78" y1=".5" x2="819.78" y2=".5"/><path class="cls-8" d="m409.42,2.76h89.82c.77,0,1.23,0,1.54.13.44.16.79.51.96.96.13.31.13.77.13,1.54v5.75c0,.77,0,1.23-.13,1.54-.16.44-.51.79-.96.96-.31.13-.77.13-1.54.13h-89.82c-.77,0-1.23,0-1.54-.13-.44-.16-.79-.51-.96-.96-.13-.31-.13-.77-.13-1.54v-5.75c0-.77,0-1.23.13-1.54.16-.44.51-.79.96-.96.31-.13.77-.13,1.54-.13Z"/><path class="cls-8" d="m409.42,21.42h67.55c.77,0,1.23,0,1.54.13.44.16.79.51.96.96.13.31.13.77.13,1.54v5.75c0,.77,0,1.23-.13,1.54-.16.44-.51.79-.96.96-.31.13-.77.13-1.54.13h-67.55c-.77,0-1.23,0-1.54-.13-.44-.16-.79-.51-.96-.96-.13-.31-.13-.77-.13-1.54v-5.75c0-.77,0-1.23.13-1.54.16-.44.51-.79.96-.96.31-.13.77-.13,1.54-.13Z"/><path class="cls-8" d="m409.42,40.07h49.02c.77,0,1.23,0,1.54.13.44.16.79.51.96.96.13.31.13.77.13,1.54v5.75c0,.77,0,1.23-.13,1.54-.16.44-.51.79-.96.96-.31.13-.77.13-1.54.13h-49.02c-.77,0-1.23,0-1.54-.13-.44-.16-.79-.51-.96-.96-.13-.31-.13-.77-.13-1.54v-5.75c0-.77,0-1.23.13-1.54.16-.44.51-.79.96-.96.31-.13.77-.13,1.54-.13Z"/><path class="cls-8" d="m409.42,58.73h48.05c.77,0,1.23,0,1.54.13.44.16.79.51.96.96.13.31.13.77.13,1.54v5.75c0,.77,0,1.23-.13,1.54-.16.44-.51.79-.96.96-.31.13-.77.13-1.54.13h-48.05c-.77,0-1.23,0-1.54-.13-.44-.16-.79-.51-.96-.96-.13-.31-.13-.77-.13-1.54v-5.75c0-.77,0-1.23.13-1.54.16-.44.51-.79.96-.96.31-.13.77-.13,1.54-.13Z"/><path class="cls-8" d="m409.42,77.38h35.78c.77,0,1.23,0,1.54.13.44.16.79.51.96.96.13.31.13.77.13,1.54v5.75c0,.77,0,1.23-.13,1.54-.16.44-.51.79-.96.96-.31.13-.77.13-1.54.13h-35.78c-.77,0-1.23,0-1.54-.13-.44-.16-.79-.51-.96-.96-.13-.31-.13-.77-.13-1.54v-5.75c0-.77,0-1.23.13-1.54.16-.44.51-.79.96-.96.31-.13.77-.13,1.54-.13Z"/><path class="cls-8" d="m409.42,96.04h24.41c.77,0,1.23,0,1.54.13.44.16.79.51.96.96.13.31.13.77.13,1.54v5.75c0,.77,0,1.23-.13,1.54-.16.44-.51.79-.96.96-.31.13-.77.13-1.54.13h-24.41c-.77,0-1.23,0-1.54-.13-.44-.16-.79-.51-.96-.96-.13-.31-.13-.77-.13-1.54v-5.75c0-.77,0-1.23.13-1.54.16-.44.51-.79.96-.96.31-.13.77-.13,1.54-.13Z"/><path class="cls-8" d="m409.42,114.69h12.76c.77,0,1.23,0,1.54.13.44.16.79.51.96.96.13.31.13.77.13,1.54v5.75c0,.77,0,1.23-.13,1.54-.16.44-.51.79-.96.96-.31.13-.77.13-1.54.13h-12.76c-.77,0-1.23,0-1.54-.13-.44-.16-.79-.51-.96-.96-.13-.31-.13-.77-.13-1.54v-5.75c0-.77,0-1.23.13-1.54.16-.44.51-.79.96-.96.31-.13.77-.13,1.54-.13Z"/><path class="cls-8" d="m409.42,133.35h4.52c.77,0,1.23,0,1.54.13.44.16.79.51.96.96.13.31.13.77.13,1.54v5.75c0,.77,0,1.23-.13,1.54-.16.44-.51.79-.96.96-.31.13-.77.13-1.54.13h-4.52c-.77,0-1.23,0-1.54-.13-.44-.16-.79-.51-.96-.96-.13-.31-.13-.77-.13-1.54v-5.75c0-.77,0-1.23.13-1.54.16-.44.51-.79.96-.96.31-.13.77-.13,1.54-.13Z"/><path class="cls-6" d="m706.42,2.38h22.07c1.11,0,1.78,0,2.23.19.64.23,1.15.74,1.38,1.38.19.45.19,1.11.19,2.23v6.4c0,1.11,0,1.78-.19,2.23-.23.64-.74,1.15-1.38,1.38-.45.19-1.11.19-2.23.19h-22.07c-1.11,0-1.78,0-2.23-.19-.64-.23-1.15-.74-1.38-1.38-.19-.45-.19-1.11-.19-2.23v-6.4c0-1.11,0-1.78.19-2.23.23-.64.74-1.15,1.38-1.38.45-.19,1.11-.19,2.23-.19Z"/><path class="cls-10" d="m711.93,12.57c-.52,0-.98-.12-1.38-.35-.4-.23-.71-.56-.93-.99-.22-.43-.33-.93-.33-1.52s.11-1.09.33-1.52c.22-.43.53-.76.92-.99.4-.23.86-.35,1.38-.35h.11c.42,0,.82.1,1.18.31s.66.49.89.85l-.67.48c-.17-.26-.37-.46-.61-.61s-.51-.22-.81-.22h-.1c-.53,0-.95.19-1.25.56-.31.37-.46.87-.46,1.49s.15,1.12.46,1.49c.31.37.73.56,1.25.56h.1c.31,0,.58-.07.83-.2.24-.13.45-.31.63-.53l.63.52c-.23.32-.53.57-.89.75s-.75.27-1.18.27h-.11Z"/><path class="cls-10" d="m716.92,12.55c-.58,0-1.02-.14-1.34-.43-.32-.29-.48-.68-.48-1.17s.18-.87.53-1.18.92-.47,1.71-.47h1.59v-.12c0-1.02-.47-1.53-1.4-1.53-.38,0-.7.07-.96.21-.26.14-.47.34-.62.59l-.61-.46c.22-.37.52-.65.89-.84.37-.2.8-.29,1.29-.29h.11c.66,0,1.19.19,1.58.58.39.38.58.95.58,1.7v3.32h-.84v-1.02c-.21.36-.49.63-.83.83s-.74.29-1.2.29Zm.16-.78c.47,0,.86-.11,1.17-.34.31-.23.54-.54.69-.93v-.51h-1.56c-.51,0-.87.08-1.08.24s-.32.38-.32.66.09.5.28.65c.18.15.46.23.82.23Z"/><path class="cls-10" d="m723.82,12.51c-.61,0-1.08-.15-1.41-.46-.33-.3-.5-.79-.5-1.45v-2.88h-1.08v-.75h1.08v-1.67h.87v1.67h1.94v.75h-1.94v2.75c0,.46.1.78.3.96s.49.27.86.27c.16,0,.31,0,.44-.02.13-.02.27-.04.41-.07v.76c-.15.04-.31.07-.48.09-.17.02-.33.04-.5.04Z"/><path class="cls-6" d="m706.42,21.03h20.48c1.11,0,1.78,0,2.23.19.64.23,1.15.74,1.38,1.38.19.45.19,1.11.19,2.23v6.4c0,1.11,0,1.78-.19,2.23-.23.64-.74,1.15-1.38,1.38-.45.19-1.11.19-2.23.19h-20.48c-1.11,0-1.78,0-2.23-.19-.64-.23-1.15-.74-1.38-1.38-.19-.45-.19-1.11-.19-2.23v-6.4c0-1.11,0-1.78.19-2.23.23-.64.74-1.15,1.38-1.38.45-.19,1.11-.19,2.23-.19Z"/><path class="cls-10" d="m711.08,31.21c-.58,0-1.02-.14-1.34-.43-.32-.29-.47-.68-.47-1.17s.18-.87.53-1.18c.35-.31.92-.47,1.71-.47h1.59v-.12c0-1.02-.47-1.53-1.4-1.53-.38,0-.7.07-.96.21-.26.14-.47.34-.62.59l-.61-.46c.22-.37.52-.65.89-.84.37-.2.8-.29,1.29-.29h.11c.66,0,1.19.19,1.58.58.39.38.58.95.58,1.7v3.32h-.84v-1.02c-.21.36-.49.63-.83.83-.35.2-.74.29-1.2.29Zm.17-.78c.47,0,.86-.11,1.17-.34s.54-.54.69-.93v-.51h-1.56c-.51,0-.87.08-1.08.24s-.32.38-.32.66.09.5.28.65c.18.15.46.23.83.23Z"/><path class="cls-10" d="m715.62,31.1v-5.47h.87v.95c.17-.34.39-.61.66-.79.27-.19.58-.28.93-.28.17,0,.33.02.48.05v.87c-.08-.01-.17-.02-.27-.03-.1,0-.19-.01-.28-.01-.4,0-.72.12-.97.37s-.43.57-.55.98v3.37h-.87Z"/><path class="cls-10" d="m722.24,31.17c-.61,0-1.08-.15-1.41-.46-.33-.3-.5-.79-.5-1.45v-2.88h-1.08v-.75h1.08v-1.67h.87v1.67h1.94v.75h-1.94v2.75c0,.46.1.78.3.96.2.18.48.27.86.27.16,0,.31,0,.44-.02.13-.02.27-.04.41-.07v.76c-.15.04-.31.07-.48.09-.17.02-.33.04-.49.04Z"/><path class="cls-6" d="m706.42,39.69h55.02c1.11,0,1.78,0,2.23.19.64.23,1.15.74,1.38,1.38.19.45.19,1.11.19,2.23v6.4c0,1.11,0,1.78-.19,2.23-.23.64-.74,1.15-1.38,1.38-.45.19-1.11.19-2.23.19h-55.02c-1.11,0-1.78,0-2.23-.19-.64-.23-1.15-.74-1.38-1.38-.19-.45-.19-1.11-.19-2.23v-6.4c0-1.11,0-1.78.19-2.23.23-.64.74-1.15,1.38-1.38.45-.19,1.11-.19,2.23-.19Z"/><path class="cls-10" d="m711.93,50.71c-.52,0-.98-.12-1.38-.35-.4-.23-.71-.56-.93-.99-.22-.43-.33-.93-.33-1.52s.11-1.09.33-1.52c.22-.43.53-.76.92-.99.4-.23.86-.35,1.38-.35h.11c.42,0,.82.1,1.18.31s.66.49.89.85l-.67.48c-.17-.26-.37-.46-.61-.61s-.51-.22-.81-.22h-.1c-.53,0-.95.19-1.25.56-.31.37-.46.87-.46,1.49s.15,1.12.46,1.49c.31.37.73.56,1.25.56h.1c.31,0,.58-.07.83-.2.24-.13.45-.31.63-.53l.63.52c-.23.32-.53.57-.89.75s-.75.27-1.18.27h-.11Z"/><path class="cls-10" d="m715.45,50.59v-8.03h.87v3.6c.2-.36.46-.64.78-.85.32-.21.69-.31,1.11-.31h.11c.63,0,1.12.21,1.45.62.33.41.5,1,.5,1.77v3.21h-.87v-3.08c0-.56-.11-.99-.31-1.28-.21-.29-.54-.43-.98-.43h-.1c-.41,0-.75.13-1.04.4-.29.26-.5.6-.63,1v3.39h-.87Z"/><path class="cls-10" d="m723.41,50.69c-.58,0-1.02-.14-1.34-.43-.32-.29-.48-.68-.48-1.17s.18-.87.53-1.18.92-.47,1.71-.47h1.6v-.12c0-1.02-.47-1.53-1.4-1.53-.38,0-.7.07-.96.21s-.47.34-.62.59l-.61-.46c.22-.37.52-.65.89-.84.37-.2.8-.29,1.29-.29h.11c.66,0,1.19.19,1.58.58.39.38.58.95.58,1.7v3.32h-.84v-1.02c-.21.36-.49.63-.83.83-.34.2-.74.29-1.2.29Zm.17-.78c.47,0,.86-.11,1.17-.34.31-.23.54-.54.69-.93v-.51h-1.56c-.51,0-.87.08-1.08.24-.21.16-.32.38-.32.66s.09.5.27.65c.18.15.46.23.83.23Z"/><path class="cls-10" d="m727.95,50.59v-5.47h.87v.95c.17-.34.39-.61.66-.79.27-.19.58-.28.93-.28.17,0,.33.02.48.05v.87c-.08-.01-.17-.02-.27-.03-.1,0-.19-.01-.28-.01-.4,0-.72.12-.97.37-.25.24-.43.57-.55.98v3.37h-.87Z"/><path class="cls-10" d="m733.5,50.69c-.58,0-1.02-.14-1.34-.43-.32-.29-.48-.68-.48-1.17s.18-.87.53-1.18.92-.47,1.71-.47h1.59v-.12c0-1.02-.47-1.53-1.4-1.53-.38,0-.7.07-.96.21-.26.14-.47.34-.62.59l-.61-.46c.22-.37.52-.65.89-.84.37-.2.8-.29,1.29-.29h.11c.66,0,1.19.19,1.58.58.39.38.58.95.58,1.7v3.32h-.84v-1.02c-.21.36-.49.63-.83.83s-.74.29-1.2.29Zm.16-.78c.47,0,.86-.11,1.17-.34.31-.23.54-.54.69-.93v-.51h-1.56c-.51,0-.87.08-1.08.24s-.32.38-.32.66.09.5.28.65c.18.15.46.23.82.23Z"/><path class="cls-10" d="m740.36,50.71c-.52,0-.98-.12-1.38-.35-.4-.23-.71-.56-.93-.99-.22-.43-.33-.93-.33-1.52s.11-1.09.33-1.52c.22-.43.53-.76.92-.99.4-.23.86-.35,1.38-.35h.11c.42,0,.82.1,1.18.31s.66.49.88.85l-.67.48c-.17-.26-.37-.46-.61-.61s-.51-.22-.81-.22h-.1c-.53,0-.95.19-1.25.56-.31.37-.46.87-.46,1.49s.15,1.12.46,1.49c.31.37.73.56,1.25.56h.1c.31,0,.58-.07.83-.2s.45-.31.63-.53l.63.52c-.23.32-.53.57-.89.75s-.75.27-1.18.27h-.11Z"/><path class="cls-10" d="m746.24,50.65c-.61,0-1.08-.15-1.41-.46-.33-.3-.49-.79-.49-1.45v-2.88h-1.08v-.75h1.08v-1.67h.87v1.67h1.94v.75h-1.94v2.75c0,.46.1.78.3.96.2.18.49.27.86.27.16,0,.31,0,.44-.02.13-.02.27-.04.41-.07v.76c-.15.04-.31.07-.48.09-.17.02-.33.04-.5.04Z"/><path class="cls-10" d="m750.76,50.71c-.52,0-.98-.12-1.37-.36-.39-.24-.7-.57-.92-1-.22-.43-.33-.93-.33-1.5s.11-1.05.33-1.48.52-.77.91-1.01c.39-.24.83-.37,1.34-.37h.11c.48,0,.9.12,1.26.36s.64.58.83,1.01.29.95.29,1.54v.3h-4.18c.06.52.24.94.55,1.25.31.31.71.46,1.21.46h.1c.29,0,.57-.06.82-.18s.46-.28.64-.48l.55.57c-.24.28-.53.49-.88.65-.35.16-.74.24-1.15.24h-.11Zm-.05-4.93c-.46,0-.83.15-1.13.46-.3.31-.48.72-.53,1.24h3.3c-.03-.48-.17-.89-.44-1.22s-.63-.49-1.1-.49h-.1Z"/><path class="cls-10" d="m754.64,50.59v-5.47h.87v.95c.17-.34.39-.61.66-.79.27-.19.58-.28.93-.28.17,0,.33.02.48.05v.87c-.08-.01-.18-.02-.27-.03-.1,0-.19-.01-.28-.01-.4,0-.72.12-.97.37s-.43.57-.55.98v3.37h-.87Z"/><path class="cls-6" d="m706.42,58.34h29.46c1.11,0,1.78,0,2.23.19.64.23,1.15.74,1.38,1.38.19.45.19,1.11.19,2.23v6.4c0,1.11,0,1.78-.19,2.23-.23.64-.74,1.15-1.38,1.38-.45.19-1.11.19-2.23.19h-29.46c-1.11,0-1.78,0-2.23-.19-.64-.23-1.15-.74-1.38-1.38-.19-.45-.19-1.11-.19-2.23v-6.4c0-1.11,0-1.78.19-2.23.23-.64.74-1.15,1.38-1.38.45-.19,1.11-.19,2.23-.19Z"/><path class="cls-10" d="m711.7,68.53c-.48,0-.91-.12-1.26-.36s-.64-.58-.84-1.01c-.2-.43-.3-.92-.3-1.49s.1-1.06.3-1.49c.2-.43.48-.76.84-1.01s.78-.36,1.26-.36h.11c.4,0,.76.09,1.09.26.33.17.6.44.8.78v-3.48h.87v8.03h-.87v-.98c-.2.37-.46.64-.79.83-.33.19-.7.28-1.1.28h-.11Zm.2-.8h.11c.41,0,.75-.12,1.04-.36s.5-.55.65-.93v-1.54c-.15-.38-.37-.69-.65-.93s-.64-.36-1.04-.36h-.11c-.52,0-.94.18-1.25.54-.31.36-.46.87-.46,1.52s.15,1.16.46,1.52.72.54,1.25.54Z"/><path class="cls-10" d="m718.69,68.53c-.55,0-1.02-.12-1.42-.37-.4-.25-.71-.58-.93-1.01-.22-.43-.33-.92-.33-1.47s.11-1.05.33-1.48c.22-.43.53-.77.93-1.01.4-.25.87-.37,1.42-.37h.11c.55,0,1.02.12,1.42.37.4.25.71.58.93,1.01s.33.92.33,1.48-.11,1.04-.33,1.47c-.22.43-.53.77-.93,1.01-.4.25-.87.37-1.42.37h-.11Zm0-.8h.1c.54,0,.98-.19,1.3-.56.32-.37.48-.87.48-1.49s-.16-1.12-.48-1.49c-.32-.37-.75-.56-1.3-.56h-.1c-.55,0-.98.19-1.3.56-.32.37-.48.87-.48,1.49s.16,1.12.48,1.49c.32.37.75.56,1.3.56Z"/><path class="cls-10" d="m725.28,68.53c-.55,0-1.02-.12-1.42-.37-.4-.25-.71-.58-.93-1.01-.22-.43-.33-.92-.33-1.47s.11-1.05.33-1.48c.22-.43.53-.77.93-1.01.4-.25.87-.37,1.42-.37h.11c.55,0,1.02.12,1.42.37.4.25.71.58.93,1.01.22.43.33.92.33,1.48s-.11,1.04-.33,1.47c-.22.43-.53.77-.93,1.01-.4.25-.87.37-1.42.37h-.11Zm0-.8h.1c.55,0,.98-.19,1.3-.56s.48-.87.48-1.49-.16-1.12-.48-1.49-.75-.56-1.3-.56h-.1c-.55,0-.98.19-1.3.56-.32.37-.48.87-.48,1.49s.16,1.12.48,1.49c.32.37.75.56,1.3.56Z"/><path class="cls-10" d="m729.51,68.41v-5.47h.87v.95c.17-.34.39-.61.66-.79.27-.19.58-.28.93-.28.17,0,.33.02.48.05v.87c-.08-.01-.18-.02-.27-.03-.1,0-.19-.01-.28-.01-.4,0-.72.12-.97.37s-.43.57-.55.98v3.37h-.87Z"/><path class="cls-6" d="m706.42,77h26.3c1.11,0,1.78,0,2.23.19.64.23,1.15.74,1.38,1.38.19.45.19,1.11.19,2.23v6.4c0,1.11,0,1.78-.19,2.23-.23.64-.74,1.15-1.38,1.38-.45.19-1.11.19-2.23.19h-26.3c-1.11,0-1.78,0-2.23-.19-.64-.23-1.15-.74-1.38-1.38-.19-.45-.19-1.11-.19-2.23v-6.4c0-1.11,0-1.78.19-2.23.23-.64.74-1.15,1.38-1.38.45-.19,1.11-.19,2.23-.19Z"/><path class="cls-10" d="m711.93,87.19c-.52,0-.98-.12-1.38-.35-.4-.23-.71-.56-.93-.99-.22-.43-.33-.93-.33-1.52s.11-1.09.33-1.52c.22-.43.53-.76.92-.99.4-.23.86-.35,1.38-.35h.11c.42,0,.82.1,1.18.31s.66.49.89.85l-.67.48c-.17-.26-.37-.46-.61-.61s-.51-.22-.81-.22h-.1c-.53,0-.95.19-1.25.56-.31.37-.46.87-.46,1.49s.15,1.12.46,1.49c.31.37.73.56,1.25.56h.1c.31,0,.58-.07.83-.2.24-.13.45-.31.63-.53l.63.52c-.23.32-.53.57-.89.75s-.75.27-1.18.27h-.11Z"/><path class="cls-10" d="m716.92,87.17c-.58,0-1.02-.14-1.34-.43-.32-.29-.48-.68-.48-1.17s.18-.87.53-1.18.92-.47,1.71-.47h1.59v-.12c0-1.02-.47-1.53-1.4-1.53-.38,0-.7.07-.96.21-.26.14-.47.34-.62.59l-.61-.46c.22-.37.52-.65.89-.84.37-.2.8-.29,1.29-.29h.11c.66,0,1.19.19,1.58.58.39.38.58.95.58,1.7v3.32h-.84v-1.02c-.21.36-.49.63-.83.83s-.74.29-1.2.29Zm.16-.78c.47,0,.86-.11,1.17-.34.31-.23.54-.54.69-.93v-.51h-1.56c-.51,0-.87.08-1.08.24s-.32.38-.32.66.09.5.28.65c.18.15.46.23.82.23Z"/><path class="cls-10" d="m721.46,87.07v-5.47h.87v.95c.17-.34.39-.61.66-.79.27-.19.58-.28.93-.28.17,0,.33.02.48.05v.87c-.08-.01-.17-.02-.27-.03-.1,0-.19-.01-.28-.01-.4,0-.72.12-.97.37-.25.24-.43.57-.55.98v3.37h-.87Z"/><path class="cls-10" d="m728.07,87.13c-.61,0-1.08-.15-1.41-.46-.33-.3-.5-.79-.5-1.45v-2.88h-1.08v-.75h1.08v-1.67h.87v1.67h1.94v.75h-1.94v2.75c0,.46.1.78.3.96s.49.27.86.27c.16,0,.31,0,.44-.02.13-.02.27-.04.41-.07v.76c-.15.04-.31.07-.48.09-.17.02-.33.04-.5.04Z"/><path class="cls-6" d="m706.42,95.65h26.3c1.11,0,1.78,0,2.23.19.64.23,1.15.74,1.38,1.38.19.45.19,1.11.19,2.23v6.4c0,1.11,0,1.78-.19,2.23-.23.64-.74,1.15-1.38,1.38-.45.19-1.11.19-2.23.19h-26.3c-1.11,0-1.78,0-2.23-.19-.64-.23-1.15-.74-1.38-1.38-.19-.45-.19-1.11-.19-2.23v-6.4c0-1.11,0-1.78.19-2.23.23-.64.74-1.15,1.38-1.38.45-.19,1.11-.19,2.23-.19Z"/><path class="cls-10" d="m710.91,105.72c-.33-.88-.64-1.77-.94-2.69-.3-.92-.58-1.84-.84-2.78h.96c.2.8.42,1.59.65,2.38.24.79.48,1.58.74,2.35l1.34-4.4h.95l1.35,4.42c.26-.78.51-1.57.75-2.36.24-.79.46-1.59.66-2.39h.93c-.26.94-.54,1.86-.84,2.78-.3.92-.62,1.82-.95,2.69h-1.11l-1.27-4.17-1.27,4.17h-1.11Z"/><path class="cls-10" d="m719.99,105.83c-.58,0-1.02-.14-1.34-.43-.32-.29-.47-.68-.47-1.17s.18-.87.53-1.18c.35-.31.92-.47,1.71-.47h1.59v-.12c0-1.02-.47-1.53-1.4-1.53-.38,0-.7.07-.96.21-.26.14-.47.34-.62.59l-.61-.46c.22-.37.52-.65.89-.84.37-.2.8-.29,1.29-.29h.11c.66,0,1.19.19,1.58.58.39.38.58.95.58,1.7v3.32h-.84v-1.02c-.21.36-.49.63-.83.83-.35.2-.74.29-1.2.29Zm.17-.78c.47,0,.86-.11,1.17-.34s.54-.54.69-.93v-.51h-1.56c-.51,0-.87.08-1.08.24s-.32.38-.32.66.09.5.28.65c.18.15.46.23.83.23Z"/><path class="cls-10" d="m724.53,105.72v-8.03h.87v8.03h-.87Z"/><path class="cls-10" d="m727.16,105.72v-8.03h.87v8.03h-.87Z"/><path class="cls-6" d="m706.42,114.31h10.42c1.11,0,1.78,0,2.23.19.64.23,1.15.74,1.38,1.38.19.45.19,1.11.19,2.23v6.4c0,1.11,0,1.78-.19,2.23-.23.64-.74,1.15-1.38,1.38-.45.19-1.11.19-2.23.19h-10.42c-1.11,0-1.78,0-2.23-.19-.64-.23-1.15-.74-1.38-1.38-.19-.45-.19-1.11-.19-2.23v-6.4c0-1.11,0-1.78.19-2.23.23-.64.74-1.15,1.38-1.38.45-.19,1.11-.19,2.23-.19Z"/><path class="cls-10" d="m709.61,124.38v-8.03h.87v4.98c.49-.4.96-.8,1.42-1.21.46-.41.88-.81,1.26-1.21h1.09c-.43.44-.88.88-1.37,1.32-.49.44-.98.86-1.49,1.27,1.07.86,2.1,1.82,3.1,2.88h-1.14c-.44-.46-.91-.92-1.41-1.39s-.99-.89-1.47-1.27v2.66h-.87Z"/><path class="cls-6" d="m706.42,132.96h10.42c1.11,0,1.78,0,2.23.19.64.23,1.15.74,1.38,1.38.19.45.19,1.11.19,2.23v6.4c0,1.11,0,1.78-.19,2.23-.23.64-.74,1.15-1.38,1.38-.45.19-1.11.19-2.23.19h-10.42c-1.11,0-1.78,0-2.23-.19-.64-.23-1.15-.74-1.38-1.38-.19-.45-.19-1.11-.19-2.23v-6.4c0-1.11,0-1.78.19-2.23.23-.64.74-1.15,1.38-1.38.45-.19,1.11-.19,2.23-.19Z"/><path class="cls-10" d="m711.93,143.15c-.52,0-.98-.12-1.38-.35-.4-.23-.71-.56-.93-.99-.22-.43-.33-.93-.33-1.52s.11-1.09.33-1.52c.22-.43.53-.76.92-.99.4-.23.86-.35,1.38-.35h.11c.42,0,.82.1,1.18.31s.66.49.89.85l-.67.48c-.17-.26-.37-.46-.61-.61s-.51-.22-.81-.22h-.1c-.53,0-.95.19-1.25.56-.31.37-.46.87-.46,1.49s.15,1.12.46,1.49c.31.37.73.56,1.25.56h.1c.31,0,.58-.07.83-.2.24-.13.45-.31.63-.53l.63.52c-.23.32-.53.57-.89.75s-.75.27-1.18.27h-.11Z"/><path class="cls-5" d="m738.65,2.38h7.37c1.11,0,1.78,0,2.23.19.64.23,1.15.74,1.38,1.38.19.45.19,1.11.19,2.23v6.4c0,1.11,0,1.78-.19,2.23-.23.64-.74,1.15-1.38,1.38-.45.19-1.11.19-2.23.19h-7.37c-1.11,0-1.78,0-2.23-.19-.64-.23-1.15-.74-1.38-1.38-.19-.45-.19-1.11-.19-2.23v-6.4c0-1.11,0-1.78.19-2.23.23-.64.74-1.15,1.38-1.38.45-.19,1.11-.19,2.23-.19Z"/><path class="cls-5" d="m737.13,21.03h7.37c1.11,0,1.78,0,2.23.19.64.23,1.15.74,1.38,1.38.19.45.19,1.11.19,2.23v6.4c0,1.11,0,1.78-.19,2.23-.23.64-.74,1.15-1.38,1.38-.45.19-1.11.19-2.23.19h-7.37c-1.11,0-1.78,0-2.23-.19-.64-.23-1.15-.74-1.38-1.38-.19-.45-.19-1.11-.19-2.23v-6.4c0-1.11,0-1.78.19-2.23.23-.64.74-1.15,1.38-1.38.45-.19,1.11-.19,2.23-.19Z"/><path class="cls-5" d="m771.36,39.52h7.37c1.11,0,1.78,0,2.23.19.64.23,1.15.74,1.38,1.38.19.45.19,1.11.19,2.23v6.4c0,1.11,0,1.78-.19,2.23-.23.64-.74,1.15-1.38,1.38-.45.19-1.11.19-2.23.19h-7.37c-1.11,0-1.78,0-2.23-.19-.64-.23-1.15-.74-1.38-1.38-.19-.45-.19-1.11-.19-2.23v-6.4c0-1.11,0-1.78.19-2.23.23-.64.74-1.15,1.38-1.38.45-.19,1.11-.19,2.23-.19Z"/><path class="cls-5" d="m746.02,58.73h7.37c1.11,0,1.78,0,2.23.19.64.23,1.15.74,1.38,1.38.19.45.19,1.11.19,2.23v6.4c0,1.11,0,1.78-.19,2.23-.23.64-.74,1.15-1.38,1.38-.45.19-1.11.19-2.23.19h-7.37c-1.11,0-1.78,0-2.23-.19-.64-.23-1.15-.74-1.38-1.38-.19-.45-.19-1.11-.19-2.23v-6.4c0-1.11,0-1.78.19-2.23.23-.64.74-1.15,1.38-1.38.45-.19,1.11-.19,2.23-.19Z"/><path class="cls-6" d="m523.92,2.03h22.07c1.11,0,1.78,0,2.23.19.64.23,1.15.74,1.38,1.38.19.45.19,1.11.19,2.23v6.4c0,1.11,0,1.78-.19,2.23-.23.64-.74,1.15-1.38,1.38-.45.19-1.11.19-2.23.19h-22.07c-1.11,0-1.78,0-2.23-.19-.64-.23-1.15-.74-1.38-1.38-.19-.45-.19-1.11-.19-2.23v-6.4c0-1.11,0-1.78.19-2.23.23-.64.74-1.15,1.38-1.38.45-.19,1.11-.19,2.23-.19Z"/><path class="cls-10" d="m529.44,12.22c-.52,0-.98-.12-1.38-.35-.4-.23-.71-.56-.93-.99-.22-.43-.33-.93-.33-1.52s.11-1.09.33-1.52c.22-.43.53-.76.92-.99.4-.23.86-.35,1.38-.35h.11c.42,0,.82.1,1.18.31.36.21.66.49.88.85l-.67.48c-.17-.26-.37-.46-.61-.61s-.51-.22-.81-.22h-.1c-.53,0-.95.19-1.25.56s-.46.87-.46,1.49.15,1.12.46,1.49.73.56,1.25.56h.1c.31,0,.58-.07.83-.2.24-.13.45-.31.63-.53l.63.52c-.23.32-.53.57-.89.75s-.75.27-1.18.27h-.11Z"/><path class="cls-10" d="m534.42,12.21c-.58,0-1.02-.14-1.34-.43-.32-.29-.48-.68-.48-1.17s.18-.87.53-1.18c.35-.31.92-.47,1.71-.47h1.6v-.12c0-1.02-.47-1.53-1.4-1.53-.38,0-.7.07-.96.21-.26.14-.47.34-.62.59l-.61-.46c.22-.37.52-.65.89-.84.37-.2.8-.29,1.29-.29h.11c.66,0,1.19.19,1.58.58.39.38.58.95.58,1.7v3.32h-.84v-1.02c-.21.36-.49.63-.83.83s-.74.29-1.2.29Zm.17-.78c.47,0,.86-.11,1.17-.34.31-.23.54-.54.69-.93v-.51h-1.56c-.51,0-.87.08-1.08.24s-.32.38-.32.66.09.5.28.65c.18.15.46.23.83.23Z"/><path class="cls-10" d="m541.33,12.17c-.61,0-1.08-.15-1.41-.46-.33-.3-.5-.79-.5-1.45v-2.88h-1.08v-.75h1.08v-1.67h.87v1.67h1.94v.75h-1.94v2.75c0,.46.1.78.3.96.2.18.49.27.86.27.16,0,.31,0,.44-.02.13-.02.27-.04.41-.07v.76c-.15.04-.31.07-.48.09s-.33.04-.5.04Z"/><path class="cls-6" d="m523.92,20.69h20.48c1.11,0,1.78,0,2.23.19.64.23,1.15.74,1.38,1.38.19.45.19,1.11.19,2.23v6.4c0,1.11,0,1.78-.19,2.23-.23.64-.74,1.15-1.38,1.38-.45.19-1.11.19-2.23.19h-20.48c-1.11,0-1.78,0-2.23-.19-.64-.23-1.15-.74-1.38-1.38-.19-.45-.19-1.11-.19-2.23v-6.4c0-1.11,0-1.78.19-2.23.23-.64.74-1.15,1.38-1.38.45-.19,1.11-.19,2.23-.19Z"/><path class="cls-10" d="m528.59,30.86c-.58,0-1.02-.14-1.34-.43-.32-.29-.48-.68-.48-1.17s.18-.87.53-1.18.92-.47,1.71-.47h1.59v-.12c0-1.02-.47-1.53-1.4-1.53-.38,0-.7.07-.96.21s-.47.34-.62.59l-.61-.46c.22-.37.52-.65.89-.84.37-.2.8-.29,1.29-.29h.11c.66,0,1.19.19,1.58.58.39.38.58.95.58,1.7v3.32h-.84v-1.02c-.21.36-.49.63-.83.83s-.74.29-1.2.29Zm.17-.78c.47,0,.86-.11,1.17-.34s.54-.54.69-.93v-.51h-1.56c-.51,0-.87.08-1.08.24-.21.16-.32.38-.32.66s.09.5.27.65c.18.15.46.23.83.23Z"/><path class="cls-10" d="m533.13,30.76v-5.47h.87v.95c.17-.34.39-.61.66-.79.27-.19.58-.28.93-.28.17,0,.33.02.48.05v.87c-.08-.01-.17-.02-.27-.03-.1,0-.19-.01-.28-.01-.4,0-.72.12-.97.37-.25.24-.43.57-.55.98v3.37h-.87Z"/><path class="cls-10" d="m539.74,30.82c-.61,0-1.08-.15-1.41-.46-.33-.3-.5-.79-.5-1.45v-2.88h-1.08v-.75h1.08v-1.67h.87v1.67h1.94v.75h-1.94v2.75c0,.46.1.78.3.96.2.18.48.27.86.27.16,0,.31,0,.44-.02.13-.02.27-.04.41-.07v.76c-.15.04-.31.07-.48.09-.17.02-.33.04-.5.04Z"/><path class="cls-6" d="m523.92,39.34h57.84c1.11,0,1.78,0,2.23.19.64.23,1.15.74,1.38,1.38.19.45.19,1.11.19,2.23v6.4c0,1.11,0,1.78-.19,2.23-.23.64-.74,1.15-1.38,1.38-.45.19-1.11.19-2.23.19h-57.84c-1.11,0-1.78,0-2.23-.19-.64-.23-1.15-.74-1.38-1.38-.19-.45-.19-1.11-.19-2.23v-6.4c0-1.11,0-1.78.19-2.23.23-.64.74-1.15,1.38-1.38.45-.19,1.11-.19,2.23-.19Z"/><path class="cls-10" d="m529.44,50.36c-.52,0-.98-.12-1.38-.35-.4-.23-.71-.56-.93-.99-.22-.43-.33-.93-.33-1.52s.11-1.09.33-1.52c.22-.43.53-.76.92-.99.4-.23.86-.35,1.38-.35h.11c.42,0,.82.1,1.18.31.36.21.66.49.88.85l-.67.48c-.17-.26-.37-.46-.61-.61s-.51-.22-.81-.22h-.1c-.53,0-.95.19-1.25.56s-.46.87-.46,1.49.15,1.12.46,1.49.73.56,1.25.56h.1c.31,0,.58-.07.83-.2.24-.13.45-.31.63-.53l.63.52c-.23.32-.53.57-.89.75s-.75.27-1.18.27h-.11Z"/><path class="cls-10" d="m532.95,50.24v-8.03h.87v3.6c.2-.36.46-.64.78-.85.32-.21.69-.31,1.11-.31h.11c.63,0,1.12.21,1.45.62.33.41.5,1,.5,1.77v3.21h-.87v-3.08c0-.56-.1-.99-.31-1.28-.21-.29-.54-.43-.99-.43h-.1c-.41,0-.75.13-1.04.4-.29.26-.5.6-.63,1v3.39h-.87Z"/><path class="cls-10" d="m540.91,50.35c-.58,0-1.02-.14-1.34-.43-.32-.29-.48-.68-.48-1.17s.18-.87.53-1.18.92-.47,1.71-.47h1.59v-.12c0-1.02-.47-1.53-1.4-1.53-.38,0-.7.07-.96.21s-.47.34-.62.59l-.61-.46c.22-.37.52-.65.89-.84.37-.2.8-.29,1.29-.29h.11c.66,0,1.19.19,1.58.58.39.38.58.95.58,1.7v3.32h-.84v-1.02c-.21.36-.49.63-.83.83s-.74.29-1.2.29Zm.17-.78c.47,0,.86-.11,1.17-.34s.54-.54.69-.93v-.51h-1.56c-.51,0-.87.08-1.08.24-.21.16-.32.38-.32.66s.09.5.27.65c.18.15.46.23.83.23Z"/><path class="cls-10" d="m545.46,50.24v-5.47h.87v.95c.17-.34.39-.61.66-.79.27-.19.58-.28.93-.28.17,0,.33.02.48.05v.87c-.08-.01-.17-.02-.27-.03-.1,0-.19-.01-.28-.01-.4,0-.72.12-.97.37-.25.24-.43.57-.55.98v3.37h-.87Z"/><path class="cls-10" d="m551.01,50.35c-.58,0-1.02-.14-1.34-.43-.32-.29-.48-.68-.48-1.17s.18-.87.53-1.18c.35-.31.92-.47,1.71-.47h1.6v-.12c0-1.02-.47-1.53-1.4-1.53-.38,0-.7.07-.96.21-.26.14-.47.34-.62.59l-.61-.46c.22-.37.52-.65.89-.84.37-.2.8-.29,1.29-.29h.11c.66,0,1.19.19,1.58.58.39.38.58.95.58,1.7v3.32h-.84v-1.02c-.21.36-.49.63-.83.83s-.74.29-1.2.29Zm.17-.78c.47,0,.86-.11,1.17-.34.31-.23.54-.54.69-.93v-.51h-1.56c-.51,0-.87.08-1.08.24s-.32.38-.32.66.09.5.28.65c.18.15.46.23.83.23Z"/><path class="cls-10" d="m557.87,50.36c-.52,0-.98-.12-1.38-.35-.4-.23-.71-.56-.93-.99-.22-.43-.33-.93-.33-1.52s.11-1.09.33-1.52c.22-.43.53-.76.92-.99.4-.23.86-.35,1.38-.35h.11c.43,0,.82.1,1.18.31s.66.49.89.85l-.67.48c-.17-.26-.37-.46-.61-.61s-.51-.22-.81-.22h-.1c-.53,0-.95.19-1.25.56-.31.37-.46.87-.46,1.49s.15,1.12.46,1.49c.31.37.73.56,1.25.56h.1c.31,0,.58-.07.83-.2.24-.13.45-.31.63-.53l.63.52c-.23.32-.53.57-.89.75s-.75.27-1.18.27h-.11Z"/><path class="cls-10" d="m563.75,50.31c-.61,0-1.08-.15-1.41-.46-.33-.3-.5-.79-.5-1.45v-2.88h-1.08v-.75h1.08v-1.67h.87v1.67h1.94v.75h-1.94v2.75c0,.46.1.78.3.96.2.18.48.27.86.27.16,0,.31,0,.44-.02.13-.02.27-.04.41-.07v.76c-.15.04-.31.07-.48.09-.17.02-.33.04-.5.04Z"/><path class="cls-10" d="m568.27,50.36c-.52,0-.98-.12-1.37-.36-.39-.24-.7-.57-.92-1s-.33-.93-.33-1.5.11-1.05.32-1.48c.22-.43.52-.77.91-1.01.39-.24.83-.37,1.34-.37h.1c.48,0,.91.12,1.26.36s.64.58.83,1.01.29.95.29,1.54v.3h-4.18c.06.52.24.94.55,1.25.31.31.71.46,1.21.46h.1c.29,0,.57-.06.82-.18s.46-.28.64-.48l.56.57c-.24.28-.53.49-.89.65-.35.16-.74.24-1.15.24h-.11Zm-.05-4.93c-.46,0-.83.15-1.13.46-.3.31-.47.72-.53,1.24h3.3c-.03-.48-.17-.89-.44-1.22-.27-.33-.63-.49-1.1-.49h-.1Z"/><path class="cls-10" d="m572.15,50.24v-5.47h.87v.95c.17-.34.39-.61.66-.79.27-.19.58-.28.93-.28.17,0,.33.02.48.05v.87c-.08-.01-.17-.02-.27-.03-.1,0-.19-.01-.28-.01-.4,0-.72.12-.97.37-.25.24-.43.57-.55.98v3.37h-.87Z"/><path class="cls-6" d="m523.92,58h29.46c1.11,0,1.78,0,2.23.19.64.23,1.15.74,1.38,1.38.19.45.19,1.11.19,2.23v6.4c0,1.11,0,1.78-.19,2.23-.23.64-.74,1.15-1.38,1.38-.45.19-1.11.19-2.23.19h-29.46c-1.11,0-1.78,0-2.23-.19-.64-.23-1.15-.74-1.38-1.38-.19-.45-.19-1.11-.19-2.23v-6.4c0-1.11,0-1.78.19-2.23.23-.64.74-1.15,1.38-1.38.45-.19,1.11-.19,2.23-.19Z"/><path class="cls-10" d="m529.21,68.19c-.48,0-.91-.12-1.27-.36s-.64-.58-.84-1.01c-.2-.43-.3-.92-.3-1.49s.1-1.06.3-1.49c.2-.43.48-.76.84-1.01s.78-.36,1.27-.36h.11c.4,0,.76.09,1.09.26.33.17.6.44.8.78v-3.48h.87v8.03h-.87v-.98c-.2.37-.46.64-.79.83-.33.19-.7.28-1.1.28h-.11Zm.2-.8h.1c.41,0,.75-.12,1.04-.36s.5-.55.65-.93v-1.54c-.15-.38-.37-.69-.66-.93-.29-.24-.64-.36-1.04-.36h-.1c-.52,0-.94.18-1.25.54-.31.36-.46.87-.46,1.52s.15,1.16.46,1.52c.31.36.72.54,1.25.54Z"/><path class="cls-10" d="m536.2,68.19c-.55,0-1.02-.12-1.42-.37-.4-.25-.71-.58-.93-1.01-.22-.43-.33-.92-.33-1.47s.11-1.05.33-1.48c.22-.43.53-.77.93-1.01.4-.25.87-.37,1.42-.37h.11c.55,0,1.02.12,1.42.37.4.25.71.58.93,1.01.22.43.33.92.33,1.48s-.11,1.04-.33,1.47c-.22.43-.53.77-.93,1.01-.4.25-.87.37-1.42.37h-.11Zm0-.8h.1c.55,0,.98-.19,1.3-.56.32-.37.48-.87.48-1.49s-.16-1.12-.48-1.49c-.32-.37-.75-.56-1.3-.56h-.1c-.55,0-.98.19-1.3.56s-.48.87-.48,1.49.16,1.12.48,1.49.75.56,1.3.56Z"/><path class="cls-10" d="m542.79,68.19c-.55,0-1.02-.12-1.42-.37-.4-.25-.71-.58-.93-1.01-.22-.43-.33-.92-.33-1.47s.11-1.05.33-1.48.53-.77.93-1.01c.4-.25.87-.37,1.42-.37h.11c.55,0,1.02.12,1.42.37.4.25.71.58.93,1.01.22.43.33.92.33,1.48s-.11,1.04-.33,1.47c-.22.43-.53.77-.93,1.01-.4.25-.87.37-1.42.37h-.11Zm0-.8h.1c.55,0,.98-.19,1.3-.56.32-.37.48-.87.48-1.49s-.16-1.12-.48-1.49c-.32-.37-.75-.56-1.3-.56h-.1c-.55,0-.98.19-1.3.56-.32.37-.48.87-.48,1.49s.16,1.12.48,1.49c.32.37.75.56,1.3.56Z"/><path class="cls-10" d="m547.02,68.07v-5.47h.87v.95c.17-.34.39-.61.66-.79.27-.19.58-.28.93-.28.17,0,.33.02.48.05v.87c-.08-.01-.17-.02-.27-.03-.1,0-.19-.01-.28-.01-.4,0-.72.12-.97.37-.25.24-.43.57-.55.98v3.37h-.87Z"/><path class="cls-6" d="m523.92,76.65h26.3c1.11,0,1.78,0,2.23.19.64.23,1.15.74,1.38,1.38.19.45.19,1.11.19,2.23v6.4c0,1.11,0,1.78-.19,2.23-.23.64-.74,1.15-1.38,1.38-.45.19-1.11.19-2.23.19h-26.3c-1.11,0-1.78,0-2.23-.19-.64-.23-1.15-.74-1.38-1.38-.19-.45-.19-1.11-.19-2.23v-6.4c0-1.11,0-1.78.19-2.23.23-.64.74-1.15,1.38-1.38.45-.19,1.11-.19,2.23-.19Z"/><path class="cls-10" d="m529.44,86.84c-.52,0-.98-.12-1.38-.35-.4-.23-.71-.56-.93-.99-.22-.43-.33-.93-.33-1.52s.11-1.09.33-1.52c.22-.43.53-.76.92-.99.4-.23.86-.35,1.38-.35h.11c.42,0,.82.1,1.18.31.36.21.66.49.88.85l-.67.48c-.17-.26-.37-.46-.61-.61s-.51-.22-.81-.22h-.1c-.53,0-.95.19-1.25.56s-.46.87-.46,1.49.15,1.12.46,1.49.73.56,1.25.56h.1c.31,0,.58-.07.83-.2.24-.13.45-.31.63-.53l.63.52c-.23.32-.53.57-.89.75s-.75.27-1.18.27h-.11Z"/><path class="cls-10" d="m534.42,86.83c-.58,0-1.02-.14-1.34-.43-.32-.29-.48-.68-.48-1.17s.18-.87.53-1.18c.35-.31.92-.47,1.71-.47h1.6v-.12c0-1.02-.47-1.53-1.4-1.53-.38,0-.7.07-.96.21-.26.14-.47.34-.62.59l-.61-.46c.22-.37.52-.65.89-.84.37-.2.8-.29,1.29-.29h.11c.66,0,1.19.19,1.58.58.39.38.58.95.58,1.7v3.32h-.84v-1.02c-.21.36-.49.63-.83.83s-.74.29-1.2.29Zm.17-.78c.47,0,.86-.11,1.17-.34.31-.23.54-.54.69-.93v-.51h-1.56c-.51,0-.87.08-1.08.24s-.32.38-.32.66.09.5.28.65c.18.15.46.23.83.23Z"/><path class="cls-10" d="m538.97,86.72v-5.47h.87v.95c.17-.34.39-.61.66-.79.27-.19.58-.28.93-.28.17,0,.33.02.48.05v.87c-.08-.01-.17-.02-.27-.03-.1,0-.19-.01-.28-.01-.4,0-.72.12-.97.37-.25.24-.43.57-.55.98v3.37h-.87Z"/><path class="cls-10" d="m545.58,86.79c-.61,0-1.08-.15-1.41-.46-.33-.3-.5-.79-.5-1.45v-2.88h-1.08v-.75h1.08v-1.67h.87v1.67h1.94v.75h-1.94v2.75c0,.46.1.78.3.96.2.18.49.27.86.27.16,0,.31,0,.44-.02.13-.02.27-.04.41-.07v.76c-.15.04-.31.07-.48.09s-.33.04-.5.04Z"/><path class="cls-6" d="m523.92,95.31h26.3c1.11,0,1.78,0,2.23.19.64.23,1.15.74,1.38,1.38.19.45.19,1.11.19,2.23v6.4c0,1.11,0,1.78-.19,2.23-.23.64-.74,1.15-1.38,1.38-.45.19-1.11.19-2.23.19h-26.3c-1.11,0-1.78,0-2.23-.19-.64-.23-1.15-.74-1.38-1.38-.19-.45-.19-1.11-.19-2.23v-6.4c0-1.11,0-1.78.19-2.23.23-.64.74-1.15,1.38-1.38.45-.19,1.11-.19,2.23-.19Z"/><path class="cls-10" d="m528.42,105.38c-.33-.88-.64-1.77-.94-2.69-.3-.92-.58-1.84-.84-2.78h.96c.2.8.42,1.59.65,2.38s.48,1.58.74,2.35l1.34-4.4h.95l1.35,4.42c.26-.78.51-1.57.75-2.36s.46-1.59.66-2.39h.93c-.26.94-.54,1.86-.84,2.78-.3.92-.62,1.82-.95,2.69h-1.11l-1.27-4.17-1.27,4.17h-1.11Z"/><path class="cls-10" d="m537.49,105.48c-.58,0-1.02-.14-1.34-.43-.32-.29-.48-.68-.48-1.17s.18-.87.53-1.18.92-.47,1.71-.47h1.59v-.12c0-1.02-.47-1.53-1.4-1.53-.38,0-.7.07-.96.21s-.47.34-.62.59l-.61-.46c.22-.37.52-.65.89-.84.37-.2.8-.29,1.29-.29h.11c.66,0,1.19.19,1.58.58.39.38.58.95.58,1.7v3.32h-.84v-1.02c-.21.36-.49.63-.83.83s-.74.29-1.2.29Zm.17-.78c.47,0,.86-.11,1.17-.34s.54-.54.69-.93v-.51h-1.56c-.51,0-.87.08-1.08.24-.21.16-.32.38-.32.66s.09.5.27.65c.18.15.46.23.83.23Z"/><path class="cls-10" d="m542.04,105.38v-8.03h.87v8.03h-.87Z"/><path class="cls-10" d="m544.66,105.38v-8.03h.87v8.03h-.87Z"/><path class="cls-6" d="m523.92,113.96h10.42c1.11,0,1.78,0,2.23.19.64.23,1.15.74,1.38,1.38.19.45.19,1.11.19,2.23v6.4c0,1.11,0,1.78-.19,2.23-.23.64-.74,1.15-1.38,1.38-.45.19-1.11.19-2.23.19h-10.42c-1.11,0-1.78,0-2.23-.19-.64-.23-1.15-.74-1.38-1.38-.19-.45-.19-1.11-.19-2.23v-6.4c0-1.11,0-1.78.19-2.23.23-.64.74-1.15,1.38-1.38.45-.19,1.11-.19,2.23-.19Z"/><path class="cls-10" d="m527.12,124.03v-8.03h.87v4.98c.49-.4.97-.8,1.42-1.21.46-.41.88-.81,1.26-1.21h1.09c-.43.44-.88.88-1.37,1.32-.49.44-.98.86-1.49,1.27,1.07.86,2.1,1.82,3.1,2.88h-1.14c-.44-.46-.91-.92-1.41-1.39s-.99-.89-1.47-1.27v2.66h-.87Z"/><path class="cls-6" d="m523.92,132.62h10.42c1.11,0,1.78,0,2.23.19.64.23,1.15.74,1.38,1.38.19.45.19,1.11.19,2.23v6.4c0,1.11,0,1.78-.19,2.23-.23.64-.74,1.15-1.38,1.38-.45.19-1.11.19-2.23.19h-10.42c-1.11,0-1.78,0-2.23-.19-.64-.23-1.15-.74-1.38-1.38-.19-.45-.19-1.11-.19-2.23v-6.4c0-1.11,0-1.78.19-2.23.23-.64.74-1.15,1.38-1.38.45-.19,1.11-.19,2.23-.19Z"/><path class="cls-10" d="m529.44,142.81c-.52,0-.98-.12-1.38-.35-.4-.23-.71-.56-.93-.99-.22-.43-.33-.93-.33-1.52s.11-1.09.33-1.52c.22-.43.53-.76.92-.99.4-.23.86-.35,1.38-.35h.11c.42,0,.82.1,1.18.31.36.21.66.49.88.85l-.67.48c-.17-.26-.37-.46-.61-.61s-.51-.22-.81-.22h-.1c-.53,0-.95.19-1.25.56s-.46.87-.46,1.49.15,1.12.46,1.49.73.56,1.25.56h.1c.31,0,.58-.07.83-.2.24-.13.45-.31.63-.53l.63.52c-.23.32-.53.57-.89.75s-.75.27-1.18.27h-.11Z"/><path class="cls-6" d="m742.41,76.88h24.71c1.11,0,1.78,0,2.23.19.64.23,1.15.74,1.38,1.38.19.45.19,1.11.19,2.23v6.4c0,1.11,0,1.78-.19,2.23-.23.64-.74,1.15-1.38,1.38-.45.19-1.11.19-2.23.19h-24.71c-1.11,0-1.78,0-2.23-.19-.64-.23-1.15-.74-1.38-1.38-.19-.45-.19-1.11-.19-2.23v-6.4c0-1.11,0-1.78.19-2.23.23-.64.74-1.15,1.38-1.38.45-.19,1.11-.19,2.23-.19Z"/><path class="cls-10" d="m747.96,87.07c-.55,0-1.02-.12-1.42-.37-.4-.25-.71-.58-.93-1.01-.22-.43-.33-.92-.33-1.47s.11-1.05.33-1.48c.22-.43.53-.77.93-1.01.4-.25.87-.37,1.42-.37h.11c.55,0,1.02.12,1.42.37.4.25.71.58.93,1.01s.33.92.33,1.48-.11,1.04-.33,1.47c-.22.43-.53.77-.93,1.01-.4.25-.87.37-1.42.37h-.11Zm0-.8h.1c.54,0,.98-.19,1.3-.56.32-.37.48-.87.48-1.49s-.16-1.12-.48-1.49c-.32-.37-.75-.56-1.3-.56h-.1c-.55,0-.98.19-1.3.56-.32.37-.48.87-.48,1.49s.16,1.12.48,1.49c.32.37.75.56,1.3.56Z"/><path class="cls-10" d="m754.55,87.07c-.55,0-1.02-.12-1.42-.37-.4-.25-.71-.58-.93-1.01-.22-.43-.33-.92-.33-1.47s.11-1.05.33-1.48.53-.77.93-1.01c.4-.25.87-.37,1.42-.37h.11c.55,0,1.02.12,1.42.37.4.25.71.58.93,1.01s.33.92.33,1.48-.11,1.04-.33,1.47c-.22.43-.53.77-.93,1.01-.4.25-.87.37-1.42.37h-.11Zm0-.8h.1c.55,0,.98-.19,1.3-.56.32-.37.48-.87.48-1.49s-.16-1.12-.48-1.49c-.32-.37-.75-.56-1.3-.56h-.1c-.55,0-.98.19-1.3.56-.32.37-.48.87-.48,1.49s.16,1.12.48,1.49c.32.37.75.56,1.3.56Z"/><path class="cls-10" d="m758.78,86.95v-5.47h.87v1.04c.2-.36.46-.64.78-.85.32-.21.69-.31,1.11-.31h.11c.62,0,1.1.21,1.44.62.34.41.51,1,.51,1.77v3.21h-.87v-3.08c0-.56-.1-.99-.31-1.28-.21-.29-.54-.43-.99-.43h-.1c-.41,0-.75.13-1.04.4-.29.26-.5.6-.63,1v3.39h-.87Z"/><path class="cls-5" d="m777.21,77h7.37c1.11,0,1.78,0,2.23.19.64.23,1.15.74,1.38,1.38.19.45.19,1.11.19,2.23v6.4c0,1.11,0,1.78-.19,2.23-.23.64-.74,1.15-1.38,1.38-.45.19-1.11.19-2.23.19h-7.37c-1.11,0-1.78,0-2.23-.19-.64-.23-1.15-.74-1.38-1.38-.19-.45-.19-1.11-.19-2.23v-6.4c0-1.11,0-1.78.19-2.23.23-.64.74-1.15,1.38-1.38.45-.19,1.11-.19,2.23-.19Z"/><path class="cls-6" d="m742.39,95.54h33.44c1.11,0,1.78,0,2.23.19.64.23,1.15.74,1.38,1.38.19.45.19,1.11.19,2.23v6.4c0,1.11,0,1.78-.19,2.23-.23.64-.74,1.15-1.38,1.38-.45.19-1.11.19-2.23.19h-33.44c-1.11,0-1.78,0-2.23-.19-.64-.23-1.15-.74-1.38-1.38-.19-.45-.19-1.11-.19-2.23v-6.4c0-1.11,0-1.78.19-2.23.23-.64.74-1.15,1.38-1.38.45-.19,1.11-.19,2.23-.19Z"/><path class="cls-10" d="m745.59,107.92v-7.78h.87v.98c.2-.37.46-.64.79-.83.33-.19.7-.28,1.1-.28h.11c.48,0,.91.12,1.26.36s.64.58.84,1.01c.2.43.3.93.3,1.49s-.1,1.06-.3,1.49c-.2.43-.48.76-.84,1.01s-.78.36-1.26.36h-.11c-.4,0-.76-.09-1.09-.26-.33-.17-.6-.43-.8-.78v3.23h-.87Zm2.56-2.99h.1c.52,0,.94-.18,1.25-.54.31-.36.46-.87.46-1.52s-.15-1.16-.46-1.52c-.31-.36-.72-.54-1.25-.54h-.1c-.41,0-.75.12-1.04.36s-.5.55-.65.93v1.54c.15.38.36.69.65.93.29.24.64.36,1.04.36Z"/><path class="cls-10" d="m753.78,105.71c-.58,0-1.02-.14-1.34-.43-.32-.29-.48-.68-.48-1.17s.18-.87.53-1.18c.35-.31.92-.47,1.71-.47h1.6v-.12c0-1.02-.47-1.53-1.4-1.53-.38,0-.7.07-.96.21-.26.14-.47.34-.62.59l-.61-.46c.22-.37.52-.65.89-.84.37-.2.8-.29,1.29-.29h.11c.66,0,1.19.19,1.58.58.39.38.58.95.58,1.7v3.32h-.84v-1.02c-.21.36-.49.63-.83.83s-.74.29-1.2.29Zm.17-.78c.47,0,.86-.11,1.17-.34.31-.23.54-.54.69-.93v-.51h-1.56c-.51,0-.87.08-1.08.24s-.32.38-.32.66.09.5.28.65c.18.15.46.23.83.23Z"/><path class="cls-10" d="m758.32,107.92v-7.78h.87v.98c.2-.37.46-.64.79-.83.33-.19.7-.28,1.1-.28h.11c.48,0,.91.12,1.26.36s.64.58.84,1.01c.2.43.3.93.3,1.49s-.1,1.06-.3,1.49c-.2.43-.48.76-.84,1.01s-.78.36-1.26.36h-.11c-.4,0-.76-.09-1.09-.26-.33-.17-.6-.43-.8-.78v3.23h-.87Zm2.56-2.99h.1c.52,0,.94-.18,1.25-.54.31-.36.46-.87.46-1.52s-.15-1.16-.46-1.52c-.31-.36-.72-.54-1.25-.54h-.1c-.41,0-.75.12-1.04.36s-.5.55-.65.93v1.54c.15.38.36.69.65.93.29.24.64.36,1.04.36Z"/><path class="cls-10" d="m767.34,105.73c-.52,0-.98-.12-1.37-.36-.39-.24-.7-.57-.92-1s-.33-.93-.33-1.5.11-1.05.32-1.48c.22-.43.52-.77.91-1.01.39-.24.83-.37,1.34-.37h.1c.48,0,.91.12,1.26.36s.64.58.83,1.01.29.95.29,1.54v.3h-4.18c.06.52.24.94.55,1.25.31.31.71.46,1.21.46h.1c.29,0,.57-.06.82-.18s.46-.28.64-.48l.56.57c-.24.28-.53.49-.89.65-.35.16-.74.24-1.15.24h-.11Zm-.05-4.93c-.46,0-.83.15-1.13.46-.3.31-.47.72-.53,1.24h3.3c-.03-.48-.17-.89-.44-1.22-.27-.33-.63-.49-1.1-.49h-.1Z"/><path class="cls-10" d="m771.22,105.61v-5.47h.87v.95c.17-.34.39-.61.66-.79.27-.19.58-.28.93-.28.17,0,.33.02.48.05v.87c-.08-.01-.17-.02-.27-.03-.1,0-.19-.01-.28-.01-.4,0-.72.12-.97.37-.25.24-.43.57-.55.98v3.37h-.87Z"/><path class="cls-5" d="m785.58,95.64h7.37c1.11,0,1.78,0,2.23.19.64.23,1.15.74,1.38,1.38.19.45.19,1.11.19,2.23v6.4c0,1.11,0,1.78-.19,2.23-.23.64-.74,1.15-1.38,1.38-.45.19-1.11.19-2.23.19h-7.37c-1.11,0-1.78,0-2.23-.19-.64-.23-1.15-.74-1.38-1.38-.19-.45-.19-1.11-.19-2.23v-6.4c0-1.11,0-1.78.19-2.23.23-.64.74-1.15,1.38-1.38.45-.19,1.11-.19,2.23-.19Z"/><path class="cls-6" d="m726.75,114.48h30.14c1.11,0,1.78,0,2.23.19.64.23,1.15.74,1.38,1.38.19.45.19,1.11.19,2.23v6.4c0,1.11,0,1.78-.19,2.23-.23.64-.74,1.15-1.38,1.38-.45.19-1.11.19-2.23.19h-30.14c-1.11,0-1.78,0-2.23-.19-.64-.23-1.15-.74-1.38-1.38-.19-.45-.19-1.11-.19-2.23v-6.4c0-1.11,0-1.78.19-2.23.23-.64.74-1.15,1.38-1.38.45-.19,1.11-.19,2.23-.19Z"/><path class="cls-10" d="m730.38,117.93c-.19,0-.33-.06-.45-.17-.11-.11-.17-.26-.17-.44s.05-.33.17-.44c.11-.11.26-.17.45-.17s.34.06.45.17c.11.11.17.26.17.44s-.05.33-.17.44c-.11.11-.26.17-.45.17Zm-.43,6.62v-5.47h.87v5.47h-.87Z"/><path class="cls-10" d="m734.94,124.62c-.61,0-1.08-.15-1.41-.46-.33-.3-.5-.79-.5-1.45v-2.88h-1.08v-.75h1.08v-1.67h.87v1.67h1.94v.75h-1.94v2.75c0,.46.1.78.3.96.2.18.49.27.86.27.16,0,.31,0,.44-.02.13-.02.27-.04.41-.07v.76c-.15.04-.31.07-.48.09s-.33.04-.5.04Z"/><path class="cls-10" d="m739.53,124.62c-.61,0-1.08-.15-1.41-.46-.33-.3-.5-.79-.5-1.45v-2.88h-1.08v-.75h1.08v-1.67h.87v1.67h1.94v.75h-1.94v2.75c0,.46.1.78.3.96.2.18.49.27.86.27.16,0,.31,0,.44-.02.13-.02.27-.04.41-.07v.76c-.15.04-.31.07-.48.09s-.33.04-.5.04Z"/><path class="cls-10" d="m744.05,124.67c-.52,0-.98-.12-1.37-.36s-.7-.57-.92-1c-.22-.43-.33-.93-.33-1.5s.11-1.05.33-1.48c.22-.43.52-.77.9-1.01s.83-.37,1.34-.37h.1c.48,0,.91.12,1.26.36s.64.58.83,1.01.29.95.29,1.54v.3h-4.18c.06.52.24.94.55,1.25.31.31.71.46,1.21.46h.1c.29,0,.57-.06.82-.18.25-.12.46-.28.63-.48l.56.57c-.24.28-.53.49-.89.65-.35.16-.74.24-1.15.24h-.11Zm-.06-4.93c-.45,0-.83.15-1.13.46-.3.31-.48.72-.53,1.24h3.3c-.03-.48-.17-.89-.44-1.22s-.63-.49-1.1-.49h-.1Z"/><path class="cls-10" d="m747.92,124.55v-5.47h.87v1.04c.2-.36.46-.64.78-.85.32-.21.69-.31,1.11-.31h.11c.62,0,1.1.21,1.44.62.34.41.51,1,.51,1.77v3.21h-.87v-3.08c0-.56-.1-.99-.31-1.28-.21-.29-.54-.43-.99-.43h-.1c-.41,0-.75.13-1.04.4-.29.26-.5.6-.63,1v3.39h-.87Z"/><path class="cls-5" d="m767.39,114.37h7.37c1.11,0,1.78,0,2.23.19.64.23,1.15.74,1.38,1.38.19.45.19,1.11.19,2.23v6.4c0,1.11,0,1.78-.19,2.23-.23.64-.74,1.15-1.38,1.38-.45.19-1.11.19-2.23.19h-7.37c-1.11,0-1.78,0-2.23-.19-.64-.23-1.15-.74-1.38-1.38-.19-.45-.19-1.11-.19-2.23v-6.4c0-1.11,0-1.78.19-2.23.23-.64.74-1.15,1.38-1.38.45-.19,1.11-.19,2.23-.19Z"/><path class="cls-6" d="m726.64,132.85h22.89c1.11,0,1.78,0,2.23.19.64.23,1.15.74,1.38,1.38.19.45.19,1.11.19,2.23v6.4c0,1.11,0,1.78-.19,2.23-.23.64-.74,1.15-1.38,1.38-.45.19-1.11.19-2.23.19h-22.89c-1.11,0-1.78,0-2.23-.19-.64-.23-1.15-.74-1.38-1.38-.19-.45-.19-1.11-.19-2.23v-6.4c0-1.11,0-1.78.19-2.23.23-.64.74-1.15,1.38-1.38.45-.19,1.11-.19,2.23-.19Z"/><path class="cls-10" d="m731.71,143.04c-.63,0-1.12-.21-1.45-.62-.33-.41-.5-1-.5-1.76v-3.21h.87v3.08c0,.56.11.99.32,1.28.21.29.54.43.98.43h.1c.41,0,.75-.13,1.04-.4.29-.27.5-.6.64-1v-3.39h.87v5.47h-.87v-1.04c-.2.36-.46.64-.78.85-.32.21-.69.31-1.11.31h-.11Z"/><path class="cls-10" d="m738.7,142.98c-.61,0-1.08-.15-1.41-.46-.33-.3-.5-.79-.5-1.45v-2.88h-1.08v-.75h1.08v-1.67h.87v1.67h1.94v.75h-1.94v2.75c0,.46.1.78.3.96.2.18.48.27.86.27.16,0,.31,0,.44-.02.13-.02.27-.04.41-.07v.76c-.15.04-.31.07-.48.09-.17.02-.33.04-.5.04Z"/><path class="cls-10" d="m743.22,143.04c-.52,0-.98-.12-1.37-.36-.39-.24-.7-.57-.92-1s-.33-.93-.33-1.5.11-1.05.32-1.48c.22-.43.52-.77.91-1.01.39-.24.83-.37,1.34-.37h.1c.48,0,.91.12,1.26.36s.64.58.83,1.01.29.95.29,1.54v.3h-4.18c.06.52.24.94.55,1.25.31.31.71.46,1.21.46h.1c.29,0,.57-.06.82-.18s.46-.28.64-.48l.56.57c-.24.28-.53.49-.89.65-.35.16-.74.24-1.15.24h-.11Zm-.05-4.93c-.46,0-.83.15-1.13.46-.3.31-.47.72-.53,1.24h3.3c-.03-.48-.17-.89-.44-1.22-.27-.33-.63-.49-1.1-.49h-.1Z"/><path class="cls-5" d="m759.16,132.96h7.37c1.11,0,1.78,0,2.23.19.64.23,1.15.74,1.38,1.38.19.45.19,1.11.19,2.23v6.4c0,1.11,0,1.78-.19,2.23-.23.64-.74,1.15-1.38,1.38-.45.19-1.11.19-2.23.19h-7.37c-1.11,0-1.78,0-2.23-.19-.64-.23-1.15-.74-1.38-1.38-.19-.45-.19-1.11-.19-2.23v-6.4c0-1.11,0-1.78.19-2.23.23-.64.74-1.15,1.38-1.38.45-.19,1.11-.19,2.23-.19Z"/><polyline class="cls-4" points="600.63 77.78 677.4 77.78 678.15 77.78"/><polygon class="cls-9" points="675.45 81.68 683.25 77.78 675.45 73.88 677.4 77.78 675.45 81.68"/><path class="cls-10" d="m612.24,67.2c-1.49,0-2.57-.49-3.24-1.46l.82-.72c.53.76,1.33,1.14,2.41,1.14h.13c.55,0,.98-.1,1.29-.29s.46-.46.46-.81c0-.3-.1-.54-.31-.72-.21-.18-.56-.32-1.05-.42l-1.35-.28c-1.43-.29-2.14-.96-2.14-2,0-.67.27-1.21.8-1.62.53-.41,1.23-.61,2.1-.61h.15c1.27,0,2.22.46,2.85,1.39l-.83.67c-.25-.36-.54-.61-.88-.77-.34-.16-.72-.24-1.16-.24h-.13c-.52,0-.93.1-1.25.29s-.48.46-.48.8c0,.26.1.48.29.63.2.16.52.28.97.38l1.48.31c.67.14,1.18.38,1.56.73.37.34.56.82.56,1.41,0,.66-.25,1.19-.76,1.59-.51.41-1.22.61-2.13.61h-.16Z"/><path class="cls-10" d="m619.16,67.17c-.79,0-1.39-.2-1.83-.59-.43-.39-.65-.92-.65-1.59s.24-1.18.72-1.61c.48-.43,1.26-.64,2.33-.64h2.17v-.16c0-1.4-.64-2.09-1.91-2.09-.52,0-.96.09-1.31.29s-.64.46-.85.81l-.83-.63c.3-.5.7-.88,1.21-1.15.51-.27,1.09-.4,1.76-.4h.15c.91,0,1.62.26,2.15.78.53.52.8,1.29.8,2.31v4.53h-1.15v-1.39c-.29.49-.66.86-1.13,1.13s-1.02.4-1.63.4Zm.22-1.06c.64,0,1.17-.16,1.59-.47s.73-.74.94-1.27v-.69h-2.12c-.7,0-1.19.11-1.47.33-.29.22-.43.52-.43.9s.12.67.38.88c.25.21.62.32,1.12.32Z"/><path class="cls-10" d="m625.36,67.03v-7.46h1.18v1.39c.27-.48.62-.86,1.04-1.14s.91-.42,1.46-.42h.15c1.24,0,2.04.6,2.39,1.79.29-.55.66-.98,1.11-1.3.46-.32.98-.48,1.58-.48h.16c.84,0,1.48.28,1.92.84s.66,1.37.66,2.41v4.37h-1.18v-4.2c0-1.55-.57-2.33-1.7-2.33h-.13c-.54,0-1,.18-1.38.53-.39.35-.67.8-.84,1.35v4.64h-1.19v-4.2c0-1.55-.56-2.33-1.69-2.33h-.14c-.54,0-.99.18-1.38.53-.38.35-.66.8-.84,1.35v4.64h-1.18Z"/><path class="cls-10" d="m639.29,70.18v-10.61h1.18v1.34c.27-.5.63-.88,1.08-1.13.45-.25.95-.38,1.5-.38h.15c.66,0,1.23.17,1.72.5s.87.79,1.14,1.37.41,1.26.41,2.03-.14,1.44-.41,2.03-.65,1.04-1.14,1.37-1.07.5-1.72.5h-.15c-.54,0-1.04-.12-1.49-.36s-.81-.59-1.09-1.07v4.41h-1.18Zm3.49-4.07h.14c.71,0,1.28-.24,1.7-.73.42-.49.63-1.18.63-2.07s-.21-1.58-.63-2.07c-.42-.49-.98-.73-1.7-.73h-.14c-.55,0-1.03.16-1.42.49s-.69.75-.89,1.27v2.09c.2.52.5.94.89,1.27.39.33.87.49,1.42.49Z"/><path class="cls-10" d="m648.46,67.03v-10.95h1.18v10.95h-1.18Z"/><path class="cls-10" d="m652.64,58c-.25,0-.46-.08-.61-.23-.15-.15-.22-.35-.22-.6s.08-.45.22-.6c.15-.15.35-.23.61-.23s.46.08.61.23c.15.16.23.36.23.6s-.08.45-.23.6c-.15.16-.35.23-.61.23Zm-.59,9.03v-7.46h1.18v7.46h-1.18Z"/><path class="cls-10" d="m655.63,67.03v-7.46h1.18v1.42c.28-.49.63-.88,1.07-1.16.43-.28.94-.42,1.51-.42h.15c.84,0,1.5.28,1.96.84s.7,1.37.7,2.41v4.37h-1.18v-4.2c0-.77-.14-1.35-.43-1.74-.29-.39-.73-.58-1.34-.58h-.14c-.55,0-1.03.18-1.42.54-.39.36-.68.81-.87,1.36v4.63h-1.18Z"/><path class="cls-10" d="m667.1,64.75c-.38,0-.73-.04-1.06-.13-.25.26-.37.51-.37.74,0,.43.31.65.92.65h1.77c.89,0,1.56.16,2,.49.44.33.66.8.66,1.41,0,.78-.36,1.38-1.07,1.8-.71.42-1.7.63-2.96.63-1.02,0-1.83-.16-2.43-.47-.6-.32-.9-.79-.9-1.41,0-.41.13-.76.39-1.05.26-.3.63-.55,1.09-.75-.32-.25-.47-.58-.47-.97,0-.46.21-.91.64-1.36-.41-.24-.72-.56-.92-.95s-.31-.82-.31-1.29c0-.79.27-1.44.8-1.93s1.27-.74,2.21-.74h.13c.69,0,1.28.15,1.78.44.29-.55.8-.83,1.53-.83.17,0,.36.02.57.06v.98c-.13-.04-.25-.06-.35-.06-.1,0-.19-.01-.26-.01-.42,0-.73.1-.92.31.44.47.66,1.07.66,1.79,0,.79-.26,1.43-.79,1.93s-1.26.74-2.21.74h-.13Zm-2.26,3.49c0,.76.76,1.13,2.28,1.13.9,0,1.58-.12,2.05-.38s.71-.59.71-1.01c0-.64-.54-.97-1.63-.97h-2.08c-.4.11-.73.27-.96.48-.24.21-.36.46-.36.74Zm2.27-4.46h.12c.59,0,1.05-.15,1.38-.46.32-.31.48-.72.48-1.23s-.16-.93-.48-1.23-.78-.46-1.38-.46h-.12c-.59,0-1.05.15-1.37.46s-.49.72-.49,1.23.16.93.49,1.23c.33.31.78.46,1.37.46Z"/><line class="cls-3" x1="407.29" y1="144.41" x2="407.29" y2="2.76"/><line class="cls-1" x1="834.34" y1="139.63" x2="834.34" y2="150.63"/><polyline class="cls-1" points="763.74 139.88 763.99 139.88 834.3 139.88"/><circle class="cls-9" cx="762.74" cy="139.88" r="1.25"/><path class="cls-5" d="m814.84,154.29h38.99c1.75,0,2.8,0,3.5.29,1.01.37,1.8,1.16,2.17,2.17.29.7.29,1.75.29,3.5v11.06c0,1.75,0,2.8-.29,3.5-.37,1.01-1.16,1.8-2.17,2.17-.7.29-1.75.29-3.5.29h-38.99c-1.75,0-2.8,0-3.5-.29-1.01-.37-1.8-1.16-2.17-2.17-.29-.7-.29-1.75-.29-3.5v-11.06c0-1.75,0-2.8.29-3.5.37-1.01,1.16-1.8,2.17-2.17.7-.29,1.75-.29,3.5-.29Z"/><path class="cls-10" d="m818.18,171.75v-10.98h2.66v.91h-1.63v9.16h1.63v.91h-2.66Z"/><path class="cls-10" d="m825.44,170.47c-.82,0-1.53-.15-2.14-.45-.61-.3-1.12-.74-1.54-1.31l.81-.72c.72.98,1.68,1.47,2.87,1.47h.14c.75,0,1.32-.14,1.7-.41.38-.27.57-.64.57-1.11,0-.33-.08-.59-.25-.79-.17-.2-.38-.36-.64-.48-.26-.12-.54-.21-.83-.27l-1.68-.35c-.38-.08-.75-.21-1.12-.39-.36-.18-.67-.43-.9-.75-.24-.32-.36-.73-.36-1.22,0-.52.14-.98.41-1.38.28-.39.66-.7,1.16-.92s1.08-.33,1.75-.33h.14c1.43,0,2.52.55,3.28,1.66l-.8.66c-.35-.48-.73-.81-1.13-1.01-.41-.2-.86-.3-1.37-.3h-.14c-.65,0-1.18.14-1.58.42-.4.28-.6.65-.6,1.11,0,.42.16.73.47.94.31.21.71.36,1.19.46l1.62.34c.27.06.55.14.84.25.29.11.56.26.81.45.25.19.45.43.61.72.16.29.23.65.23,1.07,0,.81-.3,1.44-.9,1.91-.6.47-1.43.7-2.49.7h-.14Z"/><path class="cls-10" d="m831.04,170.32v-9.1h6.4v1.02h-5.32v3.01h4.39v1.03h-4.39v3.02h5.43v1.02h-6.51Z"/><path class="cls-10" d="m839.77,170.32v-9.1h3.71c1.11,0,1.94.27,2.49.8.55.53.82,1.25.82,2.16s-.27,1.62-.82,2.15c-.55.53-1.38.8-2.49.8h-2.63v3.19h-1.08Zm3.61-8.09h-2.53v3.89h2.53c1.54,0,2.31-.65,2.31-1.94s-.77-1.95-2.31-1.95Z"/><path class="cls-10" d="m847.83,171.75v-.91h1.63v-9.16h-1.63v-.91h2.66v10.98h-2.66Z"/><polyline class="cls-4" points="368.93 77.76 390.39 77.76 391.14 77.76"/><polygon class="cls-9" points="388.44 81.66 396.24 77.76 388.44 73.86 390.39 77.76 388.44 81.66"/></g></svg>